<?xml version="1.0" encoding="utf-8"?>
<!-- Generator: Adobe Illustrator 25.2.1, SVG Export Plug-In . SVG Version: 6.00 Build 0)  -->
<svg version="1.1" id="Layer_1" xmlns="http://www.w3.org/2000/svg" xmlns:xlink="http://www.w3.org/1999/xlink" x="0px" y="0px"
	 viewBox="0 0 1200 648" style="enable-background:new 0 0 1200 648;" xml:space="preserve">
<style type="text/css">
	.st0{fill:#FFFFFF;}
	.st1{clip-path:url(#SVGID_2_);}
	.st2{fill:#594B4F;}
	.st3{fill:#68AAA2;}
	.st4{fill:#E64930;}
</style>
<rect x="-120" y="-64.8" class="st0" width="1440" height="777.6"/>
<rect x="-120" y="-64.8" class="st0" width="1440" height="777.6"/>
<rect x="-120" y="-64.8" class="st0" width="1440" height="777.6"/>
<g>
	<g>
		<defs>
			<rect id="SVGID_1_" x="376.5" y="65.3" width="504.9" height="504"/>
		</defs>
		<clipPath id="SVGID_2_">
			<use xlink:href="#SVGID_1_"  style="overflow:visible;"/>
		</clipPath>
		<g class="st1">
			<path class="st2" d="M877.3,159.7c-2.1-1.5-4.9-1.8-7.3-0.8L810.6,182l-47.7-47.7l1.7-33.7c0.2-3.3-1.8-6.4-4.8-7.7l-64.5-26.8
				c-3.1-1.2-6.6-0.5-8.9,2l-22.7,25.1h-69.5l-22.7-25.1c-2.2-2.5-5.8-3.2-8.9-2l-64.5,26.8c-3.1,1.3-5,4.3-4.8,7.7l1.7,33.7
				l-49.1,49.1l-6.6-0.3l-51.1-22.5c-2.4-1.1-5.2-0.9-7.5,0.6c-2.2,1.5-3.6,3.9-3.6,6.6v149.5c0,3.2,1.9,6.1,4.9,7.3l22.8,9.4v18.1
				l-25.1,22.7c-2.5,2.2-3.3,5.8-2,8.9l26.8,64.5c1.3,3.1,4.1,5.1,7.7,4.8l33.7-1.7l49.1,49.1l-1.7,33.7c-0.2,3.3,1.8,6.4,4.8,7.7
				l64.5,26.8c3.1,1.3,6.6,0.5,8.9-2l22.7-25.1h69.5l22.7,25.1c1.5,1.7,3.7,2.6,5.8,2.6c1,0,2-0.2,3-0.6l64.5-26.8
				c3.1-1.3,5-4.3,4.8-7.7l-1.7-33.7l49.1-49.1l33.7,1.7c3.5,0.2,6.4-1.8,7.7-4.8l26.8-64.5c1.3-3.1,0.5-6.6-2-8.9L853,352.1v-44.6
				l22.5-8c3.1-1.1,5.2-4.1,5.2-7.4V166.2C880.8,163.6,879.5,161.1,877.3,159.7z M508.6,142.9c1.6-1.6,2.4-3.7,2.3-6l-1.6-31.7
				l54.3-22.5l21.3,23.6c1.5,1.7,3.6,2.6,5.8,2.6h76.5c2.2,0,4.3-0.9,5.8-2.6l21.3-23.6l54.3,22.5L747,137c-0.1,2.2,0.7,4.4,2.3,6
				l45.2,45.2l-36.3,14.1c-32.9-36.9-79.7-58.1-129.3-58.1c-52.4,0-100.8,23.1-133.8,63.4L459.6,192L508.6,142.9z M392.9,179.9
				l140.6,61.8c5.6,2.5,11.8,2.7,17.6,0.6l56.1-20.4c9.8-3.6,20.5-4.2,30.6-2l-44.7,22.3c-6.2,3.1-11,8-14.1,14.2l-15.3,30.5
				c-2.2,4.5-2.6,9.5-1,14.2s4.9,8.5,9.4,10.8c6.6,3.3,14.7,2.3,19.9-2.1l32.6-26.1l18.2-4.6c4.9-1.2,10-0.1,14.3,3.5l39.5,29.4
				c7.2,5.4,14.8,10.1,22.4,14l21.6,11.3c0.4,1.7,0.1,3.5-0.7,5.2l-3.4,7c-1,1.9-2.6,3.3-4.6,3.9c-2,0.7-4.1,0.5-6-0.5l-7-3.5l0,0
				L682,330.9c-3.9-1.9-8.6-0.4-10.6,3.5c-1.9,3.9-0.4,8.6,3.5,10.6l36.9,18.5c3.9,2,5.5,6.7,3.4,10.7l-3.4,6.9
				c-1,1.9-2.6,3.3-4.6,4c-2,0.6-4.1,0.5-6-0.5l-7-3.5l0,0l0,0l-33-16.5c-3.9-2-8.6-0.4-10.6,3.5s-0.4,8.6,3.5,10.6L687,395
				c4,2.1,5.9,5.8,4.9,7.8l-2.9,5.7c-0.4,0.8-1.3,1.3-2,1.5c-2.1,0.7-4.7,0.4-7.1-0.9l-21.1-10.5l0,0l-18.4-9.5
				c-3.9-2-8.6-0.5-10.6,3.4s-0.5,8.6,3.4,10.6l18.6,9.6c1.8,0.9,3.2,2.5,3.9,4.5s0.5,4.1-0.4,5.9c-1,1.9-2.6,3.3-4.7,4
				c-1.9,0.7-4,0.5-6-0.5l-21.8-10.8c0-2.6-0.5-5.3-1.6-7.8c-2.1-4.8-5.9-8.5-10.8-10.5c-2.8-1.1-5.7-1.5-8.6-1.3
				c-0.3-1.2-0.7-2.4-1.2-3.6c-2.5-5.8-7.1-10.3-13-12.6c-5.5-2.2-11.4-2.1-16.9-0.1c-2.5-5-6.7-9.3-12.4-11.5
				c-5.9-2.3-12.3-2.2-18.1,0.3c-1.6,0.7-3.1,1.6-4.5,2.6c-2.5-3.1-5.7-5.6-9.6-7.2c-3.5-1.4-7.1-1.8-10.7-1.5l-99.9-41.2l0,0
				l-22.9-9.4V179.9H392.9z M605.5,420.9L605.5,420.9l-2.9,7.3L605.5,420.9l-7.3-2.9l1.5-3.7c0.5-1.3,1.5-1.9,2.1-2.2
				c0.3-0.1,0.9-0.3,1.6-0.3c0.4,0,0.9,0.1,1.4,0.3c2,0.8,3,3.1,2.2,5.1L605.5,420.9L605.5,420.9z M585,408.6l-1.5,3.7l-14.6-5.8
				l2.9-7.3c0.8-1.9,2.3-3.5,4.2-4.3c1-0.4,2.1-0.7,3.1-0.7s2,0.2,2.9,0.6c1.9,0.8,3.5,2.3,4.3,4.2c0.8,1.9,0.9,4.1,0.1,6L585,408.6
				L585,408.6z M554.3,400.6l-14.6-5.8l2.9-7.3c0.8-2,2.3-3.5,4.2-4.3s4.1-0.9,6-0.1c4,1.6,6,6.2,4.4,10.2L554.3,400.6z
				 M514.6,378.9c1-0.4,2.1-0.7,3.1-0.7s2,0.2,2.9,0.6c4,1.6,6,6.2,4.4,10.2l-14.6-5.8C511.2,381.3,512.6,379.7,514.6,378.9z
				 M839.9,361.4l23.6,21.3L841,437l-31.7-1.6c-2.2-0.1-4.4,0.7-6,2.3l-54.1,54.1c-1.6,1.6-2.4,3.7-2.3,6l1.6,31.7L694.2,552
				l-21.3-23.6c-1.5-1.7-3.6-2.6-5.8-2.6h-76.5c-2.2,0-4.3,0.9-5.8,2.6L563.5,552l-54.3-22.5l1.6-31.7c0.1-2.2-0.7-4.4-2.3-6
				l-54.1-54.1c-1.6-1.6-3.7-2.4-6-2.3l-31.7,1.6l-22.5-54.3l23.6-21.3c1.7-1.5,2.6-3.6,2.6-5.8v-15.1l77.8,32.1
				c-1,1.5-2,3.1-2.7,4.8c-1.6,3.9-1.5,8.2,0.2,12.1s4.7,6.8,8.6,8.4l14.6,5.8l0,0c1.9,0.7,3.8,1.1,5.8,1.1c0.8,0,1.5-0.1,2.3-0.2
				c1.7,2.2,3.9,3.9,6.5,4.9l14.6,5.8l0,0c1.9,0.7,3.8,1.1,5.8,1.1c0.8,0,1.6-0.1,2.3-0.2c1.7,2.1,3.8,3.9,6.5,4.9l14.6,5.8
				c1.9,0.8,3.9,1.1,5.8,1.1c0.8,0,1.5-0.2,2.3-0.3c1.7,2.2,3.9,4,6.6,5l7.3,2.9c1.9,0.8,3.8,1.1,5.8,1.1c2.1,0,4.2-0.4,6.2-1.3
				c2.4-1,4.4-2.7,6-4.6l19.9,9.9c3.4,1.7,7,2.6,10.6,2.6c2.5,0,5-0.4,7.4-1.3c6-1.9,10.8-6.1,13.7-11.8c1.2-2.4,1.9-5,2.2-7.7
				l1.2,0.6c3.8,1.9,7.9,2.9,11.9,2.9c2.5,0,4.9-0.4,7.2-1.1c5-1.7,9-5,11.1-9.4l2.8-5.6c1.4-2.8,2-5.9,1.8-9
				c1.4-0.2,2.8-0.5,4.2-0.9c6-2,10.9-6.2,13.8-11.9l3.4-6.9c1.9-3.8,2.6-7.8,2.4-11.8c1.7-0.2,3.4-0.5,5.1-1
				c6-2,10.9-6.1,13.8-11.8l3.4-7c1.2-2.3,1.8-4.8,2.2-7.4l0,0l29.4-10.5c-7.3,79.9-75.1,143.1-156.5,143.1
				c-64,0-121.2-38.2-145.5-97.4c-1.7-4-6.2-5.9-10.3-4.3c-4,1.7-5.9,6.3-4.3,10.3c26.8,65.1,89.6,107.2,160.1,107.2
				c92,0,168.4-73.4,172.8-164.7l35.6-12.7v42.5C837.3,357.8,838.3,359.9,839.9,361.4z M865,286.5l-111.5,39.8L726.2,312
				c-6.9-3.6-13.7-7.8-20.2-12.7l-39.2-29.2c-7.7-6.4-18.1-8.8-27.8-6.4l-17.9,4.5c-2.2,0.5-4.4,1.5-6.3,3L582,297.4
				c-0.7,0.6-1.9,0.7-2.9,0.2c-1.5-0.7-2-2.4-1.3-3.8l15.3-30.6c1.5-3.1,3.9-5.5,7-7.1l46.9-23.4c4.3-2.2,9.4-2.9,14.3-2.2l24.2,4.1
				c9.4,1.6,19.3,1.2,28.7-1.1c4.2-1,6.8-5.3,5.8-9.5s-5.3-6.8-9.5-5.8c-7.4,1.8-15.1,2.1-22.4,0.9l-17.5-2.9l-14.8-6.9
				c-16.8-7.9-36.5-8.8-54.1-2.4l-56.2,20.4c-1.9,0.7-4,0.6-5.9-0.2l-29.7-13C540,179.6,582.8,160,629,160
				c43.1,0,83.9,17.5,113.6,48.4l-6.2,2.4c-4.1,1.6-6.1,6.1-4.5,10.2c1.6,4,6.2,6.1,10.2,4.5l16.2-6.3c0.2-0.1,0.4-0.1,0.5-0.2
				l52.5-20.4c0.2-0.1,0.5-0.2,0.7-0.3l53.1-20.6L865,286.5L865,286.5z"/>
		</g>
	</g>
</g>
<rect x="662.1" y="-308.2" class="st3" width="210.2" height="210.2"/>
<rect x="890.4" y="-308.2" class="st4" width="210.2" height="210.2"/>
</svg>
