<?xml version="1.0" encoding="utf-8"?>
<!-- Generator: Adobe Illustrator 25.2.1, SVG Export Plug-In . SVG Version: 6.00 Build 0)  -->
<svg version="1.1" id="Layer_1" xmlns="http://www.w3.org/2000/svg" xmlns:xlink="http://www.w3.org/1999/xlink" x="0px" y="0px"
	 viewBox="0 0 1200 648" style="enable-background:new 0 0 1200 648;" xml:space="preserve">
<style type="text/css">
	.st0{fill:#FFFFFF;}
	.st1{clip-path:url(#SVGID_2_);}
	.st2{fill:#594B4F;}
	.st3{clip-path:url(#SVGID_4_);}
</style>
<rect x="-120" y="-64.8" class="st0" width="1440" height="777.6"/>
<rect x="-120" y="-64.8" class="st0" width="1440" height="777.6"/>
<g>
	<g>
		<defs>
			<rect id="SVGID_1_" x="489.3" y="64.8" width="241.9" height="428"/>
		</defs>
		<clipPath id="SVGID_2_">
			<use xlink:href="#SVGID_1_"  style="overflow:visible;"/>
		</clipPath>
		<g class="st1">
			<path class="st2" d="M610.2,64.8c34.4,0,65.1,24.7,86.9,64.7c21,38.4,33.9,91.2,33.9,149.3s-13,110.9-33.9,149.3
				c-21.8,40-52.5,64.7-86.9,64.7v-17.5c27.5,0,52.9-21.2,71.6-55.6c19.6-35.9,31.7-85.7,31.7-141s-12.1-105.1-31.7-141
				c-18.7-34.3-44.1-55.5-71.6-55.5V64.8z M610.2,492.8c-34.4,0-65.1-24.7-86.9-64.7c-21-38.4-33.9-91.2-33.9-149.3
				s13-110.9,33.9-149.3c21.8-40,52.5-64.7,86.9-64.7v17.5c-27.5,0-52.9,21.2-71.6,55.5c-19.6,35.9-31.7,85.8-31.7,141
				s12.1,105.1,31.7,141c18.7,34.3,44.1,55.6,71.6,55.6V492.8"/>
		</g>
	</g>
</g>
<g>
	<g>
		<defs>
			<rect id="SVGID_3_" x="415.1" y="128.5" width="390.2" height="300.8"/>
		</defs>
		<clipPath id="SVGID_4_">
			<use xlink:href="#SVGID_3_"  style="overflow:visible;"/>
		</clipPath>
		<g class="st3">
			<path class="st2" d="M610.2,146.1c19.7,7.1,39.8,16.3,59.6,27.7c0.5,0.2,1,0.5,1.5,0.9c50,29,89,66.5,111.6,103.6
				c23.7,38.9,29.7,77.8,12.5,107.6c-0.1,0.2-0.2,0.4-0.3,0.6c-17.3,29.4-53.9,43.4-99.1,42.4c-26.3-0.6-55.7-6.4-85.9-17.2V393
				c30.4,11.6,60.1,17.7,86.3,18.3c38.9,0.9,69.9-10.3,83.7-33.8c0.1-0.1,0.1-0.3,0.2-0.4c13.7-23.8,8-56.4-12.3-89.8
				c-21.3-35-58.4-70.4-106.2-98l0,0c-17.2-9.9-34.6-18.2-51.7-24.7v-18.5H610.2z M425,171.6c17.2-29.7,53.9-43.8,99.3-42.8
				c26.3,0.6,55.6,6.4,85.8,17.2v18.5c-30.5-11.6-60.1-17.7-86.3-18.3c-38.8-0.9-69.6,10.2-83.6,33.6c-0.2,0.4-0.4,0.8-0.7,1.3
				c-13.3,23.8-7.5,56.1,12.7,89.2c21.2,34.9,58.2,70.2,105.8,97.8c0.1,0.1,0.2,0.1,0.4,0.2l0,0l0,0l0,0
				c17.2,9.9,34.6,18.2,51.7,24.7v18.5c-19.7-7.1-39.8-16.3-59.6-27.7c-0.5-0.2-0.9-0.5-1.3-0.7c-50.1-29-89.1-66.5-111.8-103.7
				c-23.7-38.9-29.7-77.8-12.5-107.6C425,171.8,425,171.7,425,171.6"/>
			<path class="st2" d="M780,179.9c-13.9-23.4-44.8-34.5-83.6-33.6c-26.2,0.6-55.8,6.8-86.3,18.3v-18.5
				c30.2-10.8,59.6-16.6,85.9-17.2c45.4-1.1,82.1,13.1,99.3,42.8c0,0.1,0.1,0.1,0.1,0.2c17.2,29.8,11.1,68.7-12.5,107.6
				c-22.7,37.2-61.7,74.7-111.8,103.7c-0.4,0.3-0.9,0.5-1.3,0.7c-19.8,11.4-39.9,20.6-59.6,27.7V393c17.1-6.5,34.5-14.7,51.7-24.7
				l0,0l0,0l0,0l0,0c0.1-0.1,0.2-0.1,0.3-0.2c47.6-27.6,84.6-62.9,105.8-97.8c20.2-33.1,26-65.4,12.7-89.2
				C780.5,180.7,780.2,180.3,780,179.9z M610.2,164.6c-17.1,6.5-34.5,14.7-51.7,24.7l0,0c-47.8,27.6-84.8,63-106.2,98
				c-20.4,33.4-26.1,66-12.3,89.8c0.1,0.1,0.2,0.3,0.2,0.4c13.9,23.6,44.8,34.8,83.7,33.8c26.2-0.6,55.8-6.8,86.3-18.3v18.5
				c-30.2,10.8-59.6,16.6-85.8,17.2c-45.2,1.1-81.7-13-99.1-42.4c-0.1-0.2-0.2-0.4-0.3-0.6c-17.2-29.8-11.1-68.7,12.5-107.6
				c22.6-37.1,61.6-74.5,111.6-103.6c0.5-0.3,1-0.6,1.5-0.9c19.8-11.4,39.9-20.6,59.6-27.7V164.6"/>
		</g>
	</g>
</g>
<path class="st2" d="M610.3,241.2c2.1-2.8,4.4-5.1,6.9-7.2c6.4-5.1,13.8-7.7,23.6-7.7c10.8,0,20.7,4.4,27.8,11.5
	s11.5,16.9,11.5,27.8c0,24.8-15.2,36.2-35.3,51.5c-8.8,6.6-18.6,14-28.3,23.8c-1.7,1.7-3.9,2.6-6.2,2.6v-20.8
	c8.4-7.7,16.6-13.8,24-19.5c16.2-12.2,28.4-21.4,28.4-37.5c0-6-2.4-11.5-6.4-15.4c-4-4-9.4-6.4-15.4-6.4c-5.6,0-9.6,1.3-12.7,3.8
	c-3.7,2.9-6.8,7.7-10.1,14.3c-0.8,1.6-2.1,3-3.9,3.9c-1.3,0.6-2.6,0.9-3.9,0.9L610.3,241.2L610.3,241.2z M610.2,343.5
	c-2.2,0-4.5-0.9-6.2-2.6c-9.8-9.8-19.6-17.2-28.3-23.8c-20.2-15.2-35.3-26.7-35.3-51.5c0-10.8,4.4-20.7,11.5-27.8
	s16.9-11.5,27.8-11.5c14.3,0,23.2,4.9,30.6,14.8v25.6c-3.2,0-6.3-1.8-7.8-4.8c-6-12.1-11.8-18.1-22.8-18.1c-6,0-11.5,2.4-15.4,6.4
	c-4,3.9-6.4,9.4-6.4,15.4c0,16.1,12.2,25.3,28.4,37.5c7.5,5.6,15.6,11.8,24,19.5L610.2,343.5"/>
</svg>
