<?xml version="1.0" encoding="utf-8"?>
<!-- Generator: Adobe Illustrator 25.2.1, SVG Export Plug-In . SVG Version: 6.00 Build 0)  -->
<svg version="1.1" id="Layer_1" xmlns="http://www.w3.org/2000/svg" xmlns:xlink="http://www.w3.org/1999/xlink" x="0px" y="0px"
	 viewBox="0 0 1200 648" style="enable-background:new 0 0 1200 648;" xml:space="preserve">
<style type="text/css">
	.st0{fill:#594B4F;}
	.st1{clip-path:url(#SVGID_2_);}
	.st2{clip-path:url(#SVGID_4_);}
	.st3{clip-path:url(#SVGID_6_);}
	.st4{clip-path:url(#SVGID_8_);}
	.st5{clip-path:url(#SVGID_10_);}
</style>
<path class="st0" d="M775.1,528.3h-31.3c-4.3,0-7.8-3.5-7.8-7.8V395.3c0-4.3,3.5-7.8,7.8-7.8h31.3c4.3,0,7.8,3.5,7.8,7.8v125.2
	C782.9,524.8,779.4,528.3,775.1,528.3z M751.6,512.6h15.6V403.1h-15.6V512.6z"/>
<path class="st0" d="M775.1,199.7h-31.3c-4.3,0-7.8-3.5-7.8-7.8V143c0-4.3,3.5-7.8,7.8-7.8s7.8,3.5,7.8,7.8v41.1h15.6V143
	c0-4.3,3.5-7.8,7.8-7.8s7.8,3.5,7.8,7.8v48.9C782.9,196.2,779.4,199.7,775.1,199.7z"/>
<g>
	<g>
		<defs>
			<rect id="SVGID_1_" x="368.5" y="184" width="122.2" height="220"/>
		</defs>
		<clipPath id="SVGID_2_">
			<use xlink:href="#SVGID_1_"  style="overflow:visible;"/>
		</clipPath>
		<g class="st1">
			<path class="st0" d="M482,403.1H376.3c-4.3,0-7.8-3.5-7.8-7.8V191.9c0-4.3,3.5-7.8,7.8-7.8H475c3.1,0,6,1.9,7.2,4.8
				c1.2,2.9,0.6,6.2-1.6,8.5l-89.9,92.7l96.9,99.8c2.2,2.3,2.8,5.6,1.6,8.5C488,401.2,485.2,403.1,482,403.1z M384.1,387.5h79.4
				l-79.4-81.7V387.5z M384.1,199.7v74.7l72.4-74.7H384.1z"/>
		</g>
	</g>
</g>
<path class="st0" d="M575.8,403.1H482c-2.1,0-4.1-0.9-5.6-2.4L374.2,295.5c-2.9-3-3-7.9,0-10.9l95.2-98.2c1.5-1.5,3.5-2.4,5.6-2.4
	h93.8c3.1,0,6,1.9,7.2,4.8c1.2,2.9,0.6,6.2-1.6,8.5L484.5,290l96.9,99.8c2.2,2.3,2.8,5.6,1.6,8.5C581.8,401.2,579,403.1,575.8,403.1
	z M485.3,387.5h72l-89.3-92c-3-3-3-7.9,0-10.9l82.3-84.9h-72.1L390.6,290L485.3,387.5z"/>
<path class="st0" d="M853.3,395.7c-2.1,0-4.1-0.8-5.6-2.4L751,293.8c-3-3.1-2.9-8,0.1-11l96.4-96.4c1.5-1.5,3.5-2.3,5.5-2.3
	c4.3,0,8.1,3.5,8.1,7.8v196c0,3.2-1.9,6-4.9,7.2C855.3,395.5,854.3,395.7,853.3,395.7z M767.6,288.4l77.9,80.2v-158L767.6,288.4z"/>
<path class="st0" d="M853.3,403.1h-86.6c-2.1,0-4.1-0.9-5.6-2.4L658.7,295.3c-2.9-3-3-7.9,0-10.9l95-98c1.5-1.5,3.5-2.4,5.6-2.4
	h93.8c3.2,0,6,1.9,7.2,4.8c1.2,2.9,0.5,6.3-1.7,8.5l-91,91l91.3,94.1c1.4,1.5,2.2,3.4,2.2,5.4v7.4
	C861.1,399.6,857.6,403.1,853.3,403.1z M770,387.5h72l-91-93.7c-3-3.1-2.9-8,0.1-11l83.1-83.1h-71.6l-87.4,90.1L770,387.5z"/>
<path class="st0" d="M766.7,403.1H665c-2.1,0-4.1-0.9-5.6-2.4L557,295.3c-2.9-3-3-7.9,0-10.9l95-98c1.5-1.5,3.5-2.4,5.6-2.4h101.7
	c3.1,0,6,1.9,7.2,4.8c1.2,2.9,0.6,6.2-1.6,8.5l-89.7,92.5l97.1,100c2.2,2.3,2.8,5.6,1.6,8.5C772.7,401.2,769.8,403.1,766.7,403.1z
	 M668.3,387.5h79.8l-89.5-92.1c-2.9-3-3-7.9,0-10.9l82.1-84.7h-79.9l-87.4,90.1L668.3,387.5z"/>
<path class="st0" d="M665,403.1h-89.2c-2.1,0-4.1-0.9-5.6-2.4L468,295.5c-3-3-3-7.9,0-10.9l95.2-98.2c1.5-1.5,3.5-2.4,5.6-2.4h88.8
	c3.1,0,6,1.9,7.2,4.8c1.2,2.9,0.6,6.2-1.6,8.5l-89.7,92.5l97.1,100c2.2,2.3,2.8,5.6,1.6,8.5C671,401.2,668.2,403.1,665,403.1z
	 M579.2,387.5h67.4L557,295.3c-2.9-3-3-7.9,0-10.9l82.1-84.7h-67L484.5,290L579.2,387.5z"/>
<g>
	<g>
		<defs>
			<rect id="SVGID_3_" x="704" y="512" width="110.7" height="39.8"/>
		</defs>
		<clipPath id="SVGID_4_">
			<use xlink:href="#SVGID_3_"  style="overflow:visible;"/>
		</clipPath>
		<g class="st2">
			<path class="st0" d="M806.4,551.7h-93.8c-4.3,0-7.8-3.5-7.8-7.8v-23.5c0-4.3,3.5-7.8,7.8-7.8h93.8c4.3,0,7.8,3.5,7.8,7.8v23.5
				C814.2,548.2,810.7,551.7,806.4,551.7z M720.3,536.1h78.2v-7.8h-78.2V536.1z"/>
		</g>
	</g>
</g>
<g>
	<g>
		<defs>
			<rect id="SVGID_5_" x="714.7" y="64.8" width="88" height="87.2"/>
		</defs>
		<clipPath id="SVGID_6_">
			<use xlink:href="#SVGID_5_"  style="overflow:visible;"/>
		</clipPath>
		<g class="st3">
			<path class="st0" d="M758.8,150.8c-23.7,0-43-19.3-43-43s19.3-43,43-43s43,19.3,43,43S782.5,150.8,758.8,150.8z M758.8,80.4
				c-15.1,0-27.4,12.3-27.4,27.4s12.3,27.4,27.4,27.4c15.1,0,27.4-12.3,27.4-27.4S773.9,80.4,758.8,80.4z"/>
		</g>
	</g>
</g>
<path class="st0" d="M485.8,528.3h-31.3c-4.3,0-7.8-3.5-7.8-7.8V395.3c0-4.3,3.5-7.8,7.8-7.8h31.3c4.3,0,7.8,3.5,7.8,7.8v125.2
	C493.6,524.8,490.1,528.3,485.8,528.3z M462.3,512.6h15.6V403.1h-15.6V512.6z"/>
<path class="st0" d="M485.8,199.7h-31.3c-4.3,0-7.8-3.5-7.8-7.8V143c0-4.3,3.5-7.8,7.8-7.8s7.8,3.5,7.8,7.8v41.1h15.6V143
	c0-4.3,3.5-7.8,7.8-7.8s7.8,3.5,7.8,7.8v48.9C493.6,196.2,490.1,199.7,485.8,199.7z"/>
<g>
	<g>
		<defs>
			<rect id="SVGID_7_" x="414.7" y="512" width="110.7" height="39.8"/>
		</defs>
		<clipPath id="SVGID_8_">
			<use xlink:href="#SVGID_7_"  style="overflow:visible;"/>
		</clipPath>
		<g class="st4">
			<path class="st0" d="M517,551.7h-93.8c-4.3,0-7.8-3.5-7.8-7.8v-23.5c0-4.3,3.5-7.8,7.8-7.8H517c4.3,0,7.8,3.5,7.8,7.8v23.5
				C524.9,548.2,521.4,551.7,517,551.7z M431,536.1h78.2v-7.8H431V536.1z"/>
		</g>
	</g>
</g>
<g>
	<g>
		<defs>
			<rect id="SVGID_9_" x="425.3" y="64.8" width="88" height="87.2"/>
		</defs>
		<clipPath id="SVGID_10_">
			<use xlink:href="#SVGID_9_"  style="overflow:visible;"/>
		</clipPath>
		<g class="st5">
			<path class="st0" d="M469.5,150.8c-23.7,0-43-19.3-43-43s19.3-43,43-43s43,19.3,43,43S493.2,150.8,469.5,150.8z M469.5,80.4
				c-15.1,0-27.4,12.3-27.4,27.4s12.3,27.4,27.4,27.4s27.4-12.3,27.4-27.4C496.8,92.7,484.6,80.4,469.5,80.4z"/>
		</g>
	</g>
</g>
</svg>
