<svg xmlns="http://www.w3.org/2000/svg" viewBox="0 0 269 250"><defs><style>.b8867c37-cf6b-4840-a32d-6d4e12de0d5f{fill:#e64930;}.ecaa9e46-19a6-48c1-ad24-5a78594eef46{fill:none;}.be45a852-471b-41cb-9435-b6031c32fece{fill:#ffddca;}.b7404f43-2c20-4e60-9c4b-849e9c3850dc{fill:#f4f4f4;}.e055375b-1ea6-45a8-a3e0-881066ee61ff{fill:#ffe6d3;}.baf5a296-b10d-4ce6-9caa-66f095ed2c86{fill:#939393;}.a2bbcec6-61ad-41f5-997c-3fc5e068cda1{fill:#eaeaea;}.a4c9555b-1c8e-4d35-b3e9-575c40a39bac{fill:#9b9b9b;}.b16aacfb-67ba-42bb-a0bc-af12e48d0ac7{fill:#828282;}.bae75a41-c112-42bd-8533-4a3066b4f4b1{fill:#ffc211;}.f471c8d5-9c25-4828-8cf1-7c68ab6bb999{fill:#ffb21d;}</style></defs><g id="acd08a16-8b5b-4ec7-beb7-826d2bd6371f" data-name="Layer 5"><circle class="b8867c37-cf6b-4840-a32d-6d4e12de0d5f" cx="135.19" cy="124.95" r="124.95"/><path class="ecaa9e46-19a6-48c1-ad24-5a78594eef46" d="M101,98.45a3,3,0,0,1,.74.56,4.27,4.27,0,0,0,.75.61A3.08,3.08,0,0,0,101,98.45Z"/><path class="be45a852-471b-41cb-9435-b6031c32fece" d="M135.84,178.74c13.86-10.62,19.47-17.8,22-19.91a26.3,26.3,0,0,1-4.33-13c-2.6.41-5.15.8-7.48,1.13-.7.3-1.41.6-2.14.83a25.63,25.63,0,0,1-5.41,1.12,26.86,26.86,0,0,1-6.88-.2,26.11,26.11,0,0,1-5.43-1.47c-.32-.13-.62-.3-.94-.44-2.25-.33-4.67-.69-7.11-1.09a26.5,26.5,0,0,1-4.35,13.15C116.36,160.94,122,168.12,135.84,178.74Z"/><path class="b7404f43-2c20-4e60-9c4b-849e9c3850dc" d="M147.72,195.37c.53-5.59-9.92-12.12-11.88-15.19-2,3.07-12.42,9.6-11.89,15.19.6,6.34-18.61-16-19.58-25.92,0,.06,0,.11,0,.17-.21,1.26-1.91,5.16,5.11,15.11,6.09,8.64,24.95,42.55,26.45,55.11,1.5-12.56,20.25-46.47,26.35-55.11,7-9.95,5.32-13.85,5.11-15.11,0-.06,0-.11,0-.17C166.33,179.33,147.13,201.71,147.72,195.37Z"/><path d="M166.35,114.69c-1.86-1.32-1.79,17.4-9.47,24.82-.55.53-1.11,1.05-1.68,1.55a38.21,38.21,0,0,1-5.75,4.21,30.37,30.37,0,0,1-3.39,1.66c2.33-.33,4.88-.72,7.48-1.13,10.76-1.73,22.17-4,20.42-5.82-3.11-3.16-1.86-17.21-2-28.72C170.68,114.26,168.76,116.31,166.35,114.69Z"/><path d="M120.61,144.26a42.79,42.79,0,0,1-5.82-4.75c-7.67-7.42-7.61-26.14-9.46-24.82s-3.65.16-4.9-2c0,11.2,1,24.24-2,27.27-1.71,1.75,9.15,4,19.69,5.7,2.44.4,4.86.76,7.11,1.09A30.66,30.66,0,0,1,120.61,144.26Z"/><path class="e055375b-1ea6-45a8-a3e0-881066ee61ff" d="M105.33,114.69c1.85-1.32,1.79,17.4,9.46,24.82a42.79,42.79,0,0,0,5.82,4.75,30.66,30.66,0,0,0,4.65,2.51c.32.14.62.31.94.44a26.11,26.11,0,0,0,5.43,1.47,26.86,26.86,0,0,0,6.88.2,25.63,25.63,0,0,0,5.41-1.12c.73-.23,1.44-.53,2.14-.83a30.37,30.37,0,0,0,3.39-1.66,38.21,38.21,0,0,0,5.75-4.21c.57-.5,1.13-1,1.68-1.55,7.68-7.42,7.61-26.14,9.47-24.82,2.41,1.62,4.33-.43,5.63-3.43a26.11,26.11,0,0,0,1.84-7.22c.45-4.2-1.08-6.33-2.83-5.7-.75,2.28-1.89,1.47-2.78,2-.67.43-1.68-2.6-3.25-6.55a108.57,108.57,0,0,1-29.77,4.78A107.19,107.19,0,0,1,109.63,95a61.82,61.82,0,0,1-5.73,6.33c-.45.35-.72-.73-1.42-1.69a4.27,4.27,0,0,1-.75-.61,3,3,0,0,0-.74-.56,3.06,3.06,0,0,0-1.61-.06C98.27,99,97.53,101,97.85,104a24,24,0,0,0,2.58,8.67C101.68,114.85,103.33,116,105.33,114.69Z"/><path d="M165,93.83c1.57,4,2.58,7,3.25,6.55.89-.57,2,.24,2.78-2a26.46,26.46,0,0,0,.77-7A61.77,61.77,0,0,1,165,93.83Z"/><path d="M101,98.45a3.08,3.08,0,0,1,1.49,1.17c.7,1,1,2,1.42,1.69A61.82,61.82,0,0,0,109.63,95a73.75,73.75,0,0,1-11-3.69c-.1,4.28.34,7.18.73,7.1h0A3.06,3.06,0,0,1,101,98.45Z"/><path class="baf5a296-b10d-4ce6-9caa-66f095ed2c86" d="M209.5,184.47a10.4,10.4,0,0,1,.47,1.16.57.57,0,0,1,.06-.15A8.63,8.63,0,0,0,209.5,184.47Z"/><path class="baf5a296-b10d-4ce6-9caa-66f095ed2c86" d="M209.45,184.39Z"/><path class="baf5a296-b10d-4ce6-9caa-66f095ed2c86" d="M190.73,233.89c.3-7-1.58-48.66,18.28-49.84-3.79-2.35-29.29-11.07-34.88-13.22a18.48,18.48,0,0,1,3.66,4.5c3.54,6.34,3.73,10.23,6.24,12.09s-19.54,3.32-19.54,3.32l13.89,10.48S162.82,219,152.31,226.67c-3.26,2.37-13.46,11.44-16,15.55.54,2.51,1.34,5.86,1.64,7.62a124.46,124.46,0,0,0,52.73-12.94C190.69,235.67,190.69,234.64,190.73,233.89Z"/><path class="a2bbcec6-61ad-41f5-997c-3fc5e068cda1" d="M104.37,169.45c1,9.88,20.18,32.26,19.58,25.92-.53-5.59,9.93-12.12,11.89-15.19,2,3.07,12.41,9.6,11.88,15.19-.59,6.34,18.61-16,19.59-25.92-.63-3.35-2.41-4-2.41-4l.18,0a31.7,31.7,0,0,1-5.39-6.77c-.37-.63-.9-.51-1.82.24-2.56,2.11-8.17,9.29-22,19.91-13.86-10.62-19.48-17.8-22-19.91-.91-.75-1.45-.87-1.81-.24a31.38,31.38,0,0,1-5.4,6.77l.19,0S105,166.1,104.37,169.45Z"/><path class="a4c9555b-1c8e-4d35-b3e9-575c40a39bac" d="M136.34,242.22c-2.93-2.56-13.71-13.18-17-15.55C108.85,219,93.3,201.22,93.3,201.22l13.88-10.48s-22-1.45-19.53-3.32,2.69-5.75,6.24-12.09a18.39,18.39,0,0,1,3.91-4.73c-6.55,2.48-33.81,11.81-35,13.43,20,1,18.08,42.85,18.39,49.86,0,.9,0,2.21,0,3.77a124.34,124.34,0,0,0,54,12.25c.94,0,1.86,0,2.79-.07-.3-1.76-1.1-5.11-1.64-7.62Z"/><path class="b16aacfb-67ba-42bb-a0bc-af12e48d0ac7" d="M93.89,175.33c-3.55,6.34-3.74,10.23-6.24,12.09s19.53,3.32,19.53,3.32L93.3,201.22s15.55,17.78,26.07,25.45c3.26,2.37,14,13,17,15.55h0c2.51-4.11,12.71-13.18,16-15.55,10.51-7.67,26.07-25.45,26.07-25.45l-13.89-10.48s22-1.45,19.54-3.32-2.7-5.75-6.24-12.09a18.48,18.48,0,0,0-3.66-4.5c-1.76-1.61-3.48-2.75-4.38-3.51-2.53-2.14-4.16-2.06-4.67-2l-.18,0s1.78.7,2.41,4c0,.06,0,.11,0,.17.21,1.26,1.9,5.16-5.11,15.11-6.1,8.64-24.85,42.55-26.35,55.11-1.5-12.56-20.36-46.47-26.45-55.11-7-9.95-5.32-13.85-5.11-15.11,0-.06,0-.11,0-.17.63-3.35,2.41-4,2.41-4l-.19,0c-.51-.1-2.14-.18-4.67,2-.85.72-2.45,1.79-4.12,3.28A18.39,18.39,0,0,0,93.89,175.33Z"/><path class="b16aacfb-67ba-42bb-a0bc-af12e48d0ac7" d="M81.2,233.89c-.31-7,1.58-48.82-18.39-49.86-1.1-.05-4.65,16.35-8.29,36.31A125,125,0,0,0,81.2,237.66C81.23,236.1,81.24,234.79,81.2,233.89Z"/><path class="b16aacfb-67ba-42bb-a0bc-af12e48d0ac7" d="M209.46,184.4h0c-.13-.23-.24-.36-.34-.36l-.1,0c-19.86,1.18-18,42.84-18.28,49.84,0,.75,0,1.78,0,3a125.28,125.28,0,0,0,26.49-17.71c-2.89-15.75-5.7-29.1-7.23-33.56a10.4,10.4,0,0,0-.47-1.16A.25.25,0,0,1,209.46,184.4Z"/><path class="bae75a41-c112-42bd-8533-4a3066b4f4b1" d="M112,90.22c4.4.94,12.57,1.62,18,2C129,72.55,115.5,49.55,114.44,47.78c-15.93,8.89-18.35,28.05-18.35,38.7l.47.21C98.74,87,103.13,88.34,112,90.22Z"/><path class="bae75a41-c112-42bd-8533-4a3066b4f4b1" d="M140.46,92.22c5.38-.38,13.55-1.06,17.95-2,8.84-1.88,13.24-3.23,15.42-3.53l.47-.21c0-10.65-2.42-29.81-18.36-38.7C154.89,49.55,141.39,72.55,140.46,92.22Z"/><path class="f471c8d5-9c25-4828-8cf1-7c68ab6bb999" d="M109.63,95a107.19,107.19,0,0,0,25.56,3.63A108.57,108.57,0,0,0,165,93.83a61.77,61.77,0,0,0,6.8-2.5c2.59-1.17,4.13-2.26,4.13-3.07,0-1.39-.31-1.82-2.06-1.57-2.18.3-6.58,1.65-15.42,3.53-4.4.94-12.57,1.62-17.95,2,.93-19.67,14.43-42.67,15.48-44.44l.08-.12c-4.6-4.65-13.65-7.42-21.5-7.35-7.46.07-15.93,3.07-20.15,7.35l.07.12c1.06,1.77,14.56,24.77,15.49,44.44-5.38-.38-13.55-1.06-18-2-8.85-1.88-13.24-3.23-15.42-3.53-1.75-.25-2.06.18-2.06,1.57,0,.8,1.54,1.88,4.12,3A73.75,73.75,0,0,0,109.63,95Z"/></g></svg>