<svg xmlns="http://www.w3.org/2000/svg" viewBox="0 0 269 250"><defs><style>.ea1555d8-ac63-4324-a0f4-a9cfe3d88359{fill:#e64930;}.eb67529f-3fae-41ea-b630-126bd7a29aa1{fill:#d59a80;}.bfb49a1c-ece8-4c6b-9477-37e80373509a{fill:#f8f8f8;}.b2fb71e9-77b1-4580-ad45-e35e71acc602{fill:#eceeee;}.e0dd3b5d-b344-4ba2-bb36-7015ecf1de79{fill:#005467;}.e7d34f72-534e-4597-8f0f-3b9f690a16fc{fill:#e0a484;}.ac4370ff-4191-4b35-a814-de77136f5314{fill:#36373d;}.e2c8ebc3-bfb7-4fca-93d2-963f152d5f2b{fill:#245e6e;}.ba3e7222-f9df-4f68-8f0f-3a3d0707674d{fill:#ffc211;}.a5c14271-22d7-445a-90f5-409e271f9e4e{fill:#ffb21d;}</style></defs><g id="a9661260-8187-429e-bc7c-86529baed906" data-name="Layer 4"><circle class="ea1555d8-ac63-4324-a0f4-a9cfe3d88359" cx="135.07" cy="125.2" r="125.08"/><path class="eb67529f-3fae-41ea-b630-126bd7a29aa1" d="M137.13,174.1c20.34-.21,29.2-9.43,32.76-17.45A25.15,25.15,0,0,1,158,142.11l-.6.55a40.36,40.36,0,0,1-6.13,4.49,29.87,29.87,0,0,1-5.91,2.66,28.17,28.17,0,0,1-13.1,1,27.64,27.64,0,0,1-5.8-1.57,32,32,0,0,1-6-3.15,44.48,44.48,0,0,1-6.21-5.07,1.29,1.29,0,0,1-.16-.17,30.65,30.65,0,0,1-9.7,15.75C107.92,164.61,116.73,173.89,137.13,174.1Z"/><path class="bfb49a1c-ece8-4c6b-9477-37e80373509a" d="M84.68,228.58c-2.57-24.6-5.74-58.44-6.4-66.41-11.14,3.4-21.77,7.13-21.77,8.25h0c6.79-.5,8.72,9.47,13.93,18.77,2.84,5.09,3.68,25.8,3.35,45,2.56,1.45,5.18,2.82,7.85,4.08.18-3.45.49-5.93,1-7.05C83,230.52,83.2,229.16,84.68,228.58Z"/><path class="bfb49a1c-ece8-4c6b-9477-37e80373509a" d="M96.79,157l4.78-1C100.42,156.15,98.78,156.5,96.79,157Z"/><path class="bfb49a1c-ece8-4c6b-9477-37e80373509a" d="M172.81,156l4.21.91C175.3,156.47,173.86,156.16,172.81,156Z"/><path class="bfb49a1c-ece8-4c6b-9477-37e80373509a" d="M203.34,189.19c5.17-9.23,7.11-19.11,13.77-18.76v0c0-1.12-10.52-4.85-21.51-8.26-.66,7.94-3.84,41.84-6.41,66.46a3.94,3.94,0,0,1,2,2.65,19.14,19.14,0,0,1,.83,5.3c2.7-1.39,5.36-2.83,7.94-4.4C199.71,213.52,200.59,194.09,203.34,189.19Z"/><path class="bfb49a1c-ece8-4c6b-9477-37e80373509a" d="M101.46,228.29h71c2.89-27.37,7.5-67.33,9.75-70.07-1.86-.5-3.58-.95-5.09-1.31-3.24,8.38-13.05,23.8-39.23,24.31v0l-.72,0-.71,0v0c-26.18-.51-36.46-15.83-39.7-24.22-1.49.36-3.16.79-5,1.28C94,161.49,98.6,201.11,101.46,228.29Z"/><path class="b2fb71e9-77b1-4580-ad45-e35e71acc602" d="M136.42,181.22v0l.71,0,.72,0v0c26.18-.51,36-15.93,39.23-24.31H177l-4.21-.91-2.42-.51c-.15.39-.32.78-.5,1.18-3.56,8-12.42,17.24-32.76,17.45-20.4-.21-29.21-9.49-32.74-17.52-.17-.38-.33-.75-.47-1.11l-2.35.5-4.78,1-.07,0h0C100,165.39,110.24,180.71,136.42,181.22Z"/><path class="b2fb71e9-77b1-4580-ad45-e35e71acc602" d="M70.44,189.19c-5.21-9.3-7.14-19.27-13.93-18.77a8.07,8.07,0,0,0-1.59.28c-5.77,1.63-12.21,17.57-16.45,34a125.44,125.44,0,0,0,35.32,29.56C74.12,215,73.28,194.28,70.44,189.19Z"/><path class="b2fb71e9-77b1-4580-ad45-e35e71acc602" d="M218.85,170.7a7.53,7.53,0,0,0-1.74-.27c-6.66-.35-8.6,9.53-13.77,18.76-2.75,4.9-3.63,24.33-3.38,43a125.92,125.92,0,0,0,34.42-30.94C230.16,186.09,224.21,172.21,218.85,170.7Z"/><path class="e0dd3b5d-b344-4ba2-bb36-7015ecf1de79" d="M86.36,228.29h15.1c-2.86-27.18-7.43-66.8-9.7-70-.09-.13-.18-.21-.27-.22-2.15-.17-13.4,1.82-13.22,3.95a.92.92,0,0,0,0,.16c.66,8,3.83,41.81,6.4,66.41A4.41,4.41,0,0,1,86.36,228.29Z"/><path class="e0dd3b5d-b344-4ba2-bb36-7015ecf1de79" d="M172.42,228.29h15a4.46,4.46,0,0,1,1.75.31c2.57-24.62,5.75-58.52,6.41-66.46,0,0,0-.09,0-.13.17-2.13-11.08-4.12-13.23-3.95a.39.39,0,0,0-.22.16C179.92,161,175.31,200.92,172.42,228.29Z"/><path class="e7d34f72-534e-4597-8f0f-3b9f690a16fc" d="M102.78,112.06c.23-11.58-1.15-12.33-4.92-15-1.22.59-2,2.73-1.69,6.08.52,4.86,3,12.71,6.76,11.88A24.11,24.11,0,0,1,102.78,112.06Z"/><path class="e7d34f72-534e-4597-8f0f-3b9f690a16fc" d="M170.63,112.06a24.11,24.11,0,0,1-.15,3c3.81.83,6.24-7,6.76-11.88.35-3.35-.47-5.49-1.69-6.08C171.78,99.73,170.4,100.48,170.63,112.06Z"/><path class="e7d34f72-534e-4597-8f0f-3b9f690a16fc" d="M120.46,146.07a32,32,0,0,0,6,3.15,27.64,27.64,0,0,0,5.8,1.57,28.17,28.17,0,0,0,13.1-1,29.87,29.87,0,0,0,5.91-2.66,40.36,40.36,0,0,0,6.13-4.49l.6-.55c.4-.37.81-.73,1.2-1.11,5.77-5.57,7.44-17.12,8.61-23h-1.66c-1.11.22-.91,1.63-.88-3.79a145.19,145.19,0,0,0-.87-19.74,124.53,124.53,0,0,1-27.66,3.57,124.47,124.47,0,0,1-27.64-3.62,144.24,144.24,0,0,0-.88,19.79c0,5.42.23,4-.88,3.79h-1.66c1.16,5.8,2.81,17.18,8.45,22.8a1.29,1.29,0,0,0,.16.17A44.48,44.48,0,0,0,120.46,146.07Z"/><path class="ac4370ff-4191-4b35-a814-de77136f5314" d="M108.18,114.24a144.24,144.24,0,0,1,.88-19.79,90.9,90.9,0,0,1-16.93-5.54c0,.14,0,.28,0,.42a7.58,7.58,0,0,0,5,7.13,3.41,3.41,0,0,0,.48.45l.25.17c3.77,2.65,5.15,3.4,4.92,15a24.11,24.11,0,0,0,.15,3,7.15,7.15,0,0,0,.88,3h3.49C108.41,118.25,108.21,119.66,108.18,114.24Z"/><path class="ac4370ff-4191-4b35-a814-de77136f5314" d="M164.36,94.5a145.19,145.19,0,0,1,.87,19.74c0,5.42-.23,4,.88,3.79h3.48a7.15,7.15,0,0,0,.89-3,24.11,24.11,0,0,0,.15-3c-.23-11.58,1.15-12.33,4.92-15l.24-.17a3,3,0,0,0,.49-.45,7.58,7.58,0,0,0,5-7.13c0-.13,0-.26,0-.39A88.84,88.84,0,0,1,164.36,94.5Z"/><path class="e2c8ebc3-bfb7-4fca-93d2-963f152d5f2b" d="M189.2,228.6a4.46,4.46,0,0,0-1.75-.31H86.36a4.41,4.41,0,0,0-1.68.29c-1.48.58-1.73,1.94-2.05,2.67-.5,1.12-.81,3.6-1,7.05A125.05,125.05,0,0,0,192,236.55a19.14,19.14,0,0,0-.83-5.3A3.94,3.94,0,0,0,189.2,228.6Z"/><path class="ba3e7222-f9df-4f68-8f0f-3a3d0707674d" d="M143,90.44c6.42-.45,16.17-1.27,21.42-2.38,10.55-2.25,15.8-3.86,18.4-4.22l.56-.24c0-12.72-2.89-35.58-21.9-46.19C160.21,39.53,144.1,67,143,90.44Z"/><path class="ba3e7222-f9df-4f68-8f0f-3a3d0707674d" d="M109,88.06c5.25,1.11,15,1.93,21.42,2.38-1.11-23.47-17.22-50.91-18.48-53C92.93,48,90,70.88,90,83.6l.56.24C93.2,84.2,98.45,85.81,109,88.06Z"/><path class="a5c14271-22d7-445a-90f5-409e271f9e4e" d="M109.06,94.45a124.47,124.47,0,0,0,27.64,3.62,124.53,124.53,0,0,0,27.66-3.57,88.84,88.84,0,0,0,16.92-5.56c2.51-1.23,4-2.36,4-3.22,0-1.66-.37-2.17-2.46-1.88-2.6.36-7.85,2-18.4,4.22-5.25,1.11-15,1.93-21.42,2.38,1.11-23.47,17.22-50.91,18.48-53l.09-.15c-5.5-5.55-16.29-8.85-25.66-8.76-8.91.08-19,3.65-24.05,8.76l.09.15c1.26,2.12,17.37,29.56,18.48,53C124,90,114.25,89.17,109,88.06c-10.55-2.25-15.8-3.86-18.4-4.22-2.09-.29-2.46.22-2.46,1.88,0,.85,1.48,2,4,3.19A90.9,90.9,0,0,0,109.06,94.45Z"/></g></svg>