<svg xmlns="http://www.w3.org/2000/svg" viewBox="0 0 269 250"><defs><style>.be68e7a9-aaac-4747-bfb0-01bc7642e634{fill:#e64930;}.f94c2201-f79e-4b24-8a8a-21b246175d93{fill:none;}.af486a0c-c4fa-4b2a-b138-e19d6a2df16f{fill:#594b4f;}.aff06e49-0c4e-4274-bea2-afdff29a931d{fill:#ffe6d3;}.a25eada0-0916-41bb-ba18-a8ed7a2f5036{fill:#fff;}.a2ef15d1-a037-418b-bf4b-d148db5b9113{fill:#eaeaea;}.bce83ae1-a87e-40fe-ac7f-39216915431b{fill:#65585c;}.b8ee4432-ccca-4848-a793-04459ef2c019{fill:#ff8132;}.a1dabd65-feca-404a-8a0d-85fb56d1e937{fill:#554c44;}.b771c7dc-2e50-4535-b32d-37c9c13ab22d{fill:#ffc211;}.af69ebd9-dfad-4b49-a9b9-428200c7b35c{fill:#ffb21d;}</style></defs><g id="fb9c568c-ea3c-4b1f-902c-8b36b00200c0" data-name="Layer 6"><circle class="be68e7a9-aaac-4747-bfb0-01bc7642e634" cx="135.19" cy="124.95" r="124.95"/><path class="f94c2201-f79e-4b24-8a8a-21b246175d93" d="M113.87,146.22l.09-.38Z"/><path class="f94c2201-f79e-4b24-8a8a-21b246175d93" d="M157.1,145.69l-.07-.33C157.05,145.47,157.07,145.58,157.1,145.69Z"/><path class="af486a0c-c4fa-4b2a-b138-e19d6a2df16f" d="M221.47,188.08c.09.15.12.29,0,.38-.75.85-11.3,24.07-16.47,40.12A125.92,125.92,0,0,0,231.94,204C228.24,196.69,224.84,191.09,221.47,188.08Z"/><path class="aff06e49-0c4e-4274-bea2-afdff29a931d" d="M114,145.84l-.09.38-.53,2.39c-1.56,2.93-1.84,6.68-1.27,10.51a30.05,30.05,0,0,0,47-.22,16.06,16.06,0,0,0-1.25-9.86l-.75-3.35c0-.11,0-.22-.07-.33l-.07-.29h0a30.38,30.38,0,0,1-.58-4l-.65.59a39.27,39.27,0,0,1-6,4.4,29.17,29.17,0,0,1-5.78,2.61,27.28,27.28,0,0,1-5.65,1.17,27.92,27.92,0,0,1-7.19-.21,26.51,26.51,0,0,1-5.68-1.54,30.48,30.48,0,0,1-5.84-3.09,41.26,41.26,0,0,1-4.92-3.92,34.83,34.83,0,0,1-.56,4h0Z"/><path class="a25eada0-0916-41bb-ba18-a8ed7a2f5036" d="M151.66,174.53a27.39,27.39,0,0,0,3.8-5.27,34.43,34.43,0,0,1-20,6.18,34.86,34.86,0,0,1-20-6.27,25.33,25.33,0,0,0,3.78,5.36c11.33,15.57,16.14,34.51,16.15,34.55h0s.09-.07.14-.11C135.92,207.49,140.78,189.47,151.66,174.53Z"/><path class="a2ef15d1-a037-418b-bf4b-d148db5b9113" d="M135.5,175.44a34.43,34.43,0,0,0,20-6.18,30.6,30.6,0,0,0,3.64-10.36,30.05,30.05,0,0,1-47,.22,31.11,31.11,0,0,0,3.39,10A34.86,34.86,0,0,0,135.5,175.44Z"/><path class="af486a0c-c4fa-4b2a-b138-e19d6a2df16f" d="M48.88,188.46c-3.29,3.12-6.61,8.64-10.22,15.83a125.87,125.87,0,0,0,26.69,24.29c-5.17-16.05-15.72-39.27-16.47-40.12Z"/><path class="bce83ae1-a87e-40fe-ac7f-39216915431b" d="M221.47,188.08c-.9-1.62-10.4-6.65-22.23-12-8.22-3.69-15.19-8.68-22-12.38,1.19,2.42,2.38,5.15,3.57,8.27,0,0-19.68,3.54-21.8,4.2s-.29,2.63-3,5.53c-12.91,13.73-18.09,25.86-20.49,27.34h1.23v40.79A124.36,124.36,0,0,0,205,228.58c5.17-16.05,15.72-39.27,16.47-40.12C221.59,188.37,221.56,188.23,221.47,188.08Zm-29.16,39.55c-7.38,2.79-15.91,5.25-20.19,5.25s-18.77-4.46-21.62-7.84c-1.26-1.5-1.07-8.74.89-8.92,4-.36,42.86.38,42.85,2.34C194.2,223.1,194.87,226.67,192.31,227.63Z"/><polygon class="b8ee4432-ccca-4848-a793-04459ef2c019" points="135.39 209.08 135.39 209.08 135.39 209.08 135.39 209.08"/><path class="bce83ae1-a87e-40fe-ac7f-39216915431b" d="M134.05,209.08h1.34c-2.4-1.48-7.58-13.61-20.49-27.34-2.73-2.9-.89-4.88-3-5.53S90.09,172,90.09,172c1-2.62,2-5,3-7.08-6.88,3.31-14,7.64-21.94,11.19-13,5.81-23.17,11.32-22.27,12.34h0c.75.85,11.3,24.07,16.47,40.12a124.38,124.38,0,0,0,68.7,21.3Zm-37.72,23.8c-4.28,0-12.81-2.46-20.19-5.25-2.56-1-1.88-4.53-1.92-9.17,0-2,38.87-2.7,42.84-2.34,2,.18,2.15,7.42.89,8.92C115.1,228.42,100.61,232.88,96.33,232.88Z"/><path class="b8ee4432-ccca-4848-a793-04459ef2c019" d="M135.39,209.08h.11l0-.11C135.48,209,135.43,209.07,135.39,209.08Z"/><path class="a2ef15d1-a037-418b-bf4b-d148db5b9113" d="M136.73,209.08h-2.68v40.8l1.14,0c.52,0,1,0,1.54,0Z"/><path class="af486a0c-c4fa-4b2a-b138-e19d6a2df16f" d="M90.09,172s19.67,3.54,21.79,4.2.29,2.63,3,5.53c12.91,13.73,18.09,25.86,20.49,27.34h0s-4.82-19-16.15-34.55a25.33,25.33,0,0,1-3.78-5.36,31.11,31.11,0,0,1-3.39-10c-.57-3.83-.29-7.58,1.27-10.51l.53-2.39.09-.38.17-.77h0c-5.33,1.3-13.23,3.44-21,19.85C92.08,167.05,91.08,169.39,90.09,172Z"/><path class="af486a0c-c4fa-4b2a-b138-e19d6a2df16f" d="M157,145.36l.07.33.75,3.35a16.06,16.06,0,0,1,1.25,9.86,30.6,30.6,0,0,1-3.64,10.36,27.39,27.39,0,0,1-3.8,5.27c-10.88,14.94-15.74,33-16.13,34.44l0,.11h0c2.4-1.48,7.58-13.61,20.49-27.34,2.73-2.9.9-4.88,3-5.53s21.8-4.2,21.8-4.2c-1.19-3.12-2.38-5.85-3.57-8.27-7.57-15.34-15.08-17.4-20.27-18.67h0Z"/><path class="aff06e49-0c4e-4274-bea2-afdff29a931d" d="M125.43,148.09a26.51,26.51,0,0,0,5.68,1.54,27.92,27.92,0,0,0,7.19.21,27.28,27.28,0,0,0,5.65-1.17,29.17,29.17,0,0,0,5.78-2.61,39.27,39.27,0,0,0,6-4.4l.65-.59,1.12-1c8-7.75,8-27.33,9.89-25.94,4.43,3,7.26-5.88,7.82-11.14.42-4-.89-6.25-2.53-6.08a2.43,2.43,0,0,1-.47.61c-2.1,1.82-3.06,6.5-3.18,7.19h-2.7c-1.4-1.53-1.49-5.45-2.84-9.77a120,120,0,0,1-28.11,3.83,121,121,0,0,1-28.33-3.94l0,0c-1.19,2.37-1.58,9.48-1.58,9.48h-3.4a8.38,8.38,0,0,0-3.7-7.21l-.08-.25c-1.61-.13-2.9,2.09-2.48,6.09.55,5.26,3.39,14.11,7.82,11.14,1.93-1.39,1.87,18.19,9.89,25.94.38.36.78.69,1.17,1a41.26,41.26,0,0,0,4.92,3.92A30.48,30.48,0,0,0,125.43,148.09Z"/><path class="a1dabd65-feca-404a-8a0d-85fb56d1e937" d="M163.5,94.91c1.35,4.32,1.44,8.24,2.84,9.77H169c.12-.69,1.08-5.37,3.18-7.19a2.43,2.43,0,0,0,.47-.61,16.83,16.83,0,0,0,1.56-5.29A99.47,99.47,0,0,1,163.5,94.91Z"/><path class="a1dabd65-feca-404a-8a0d-85fb56d1e937" d="M102.05,104.33h3.4s.39-7.11,1.58-9.48l0,0a102.84,102.84,0,0,1-9.88-3,38.65,38.65,0,0,0,1.09,5.08l.08.25A8.38,8.38,0,0,1,102.05,104.33Z"/><path class="af486a0c-c4fa-4b2a-b138-e19d6a2df16f" d="M117.06,216.12c-4-.36-42.86.38-42.84,2.34,0,4.64-.64,8.21,1.92,9.17,7.38,2.79,15.91,5.25,20.19,5.25S115.1,228.42,118,225C119.21,223.54,119,216.3,117.06,216.12Z"/><path class="af486a0c-c4fa-4b2a-b138-e19d6a2df16f" d="M194.24,218.46c0-2-38.88-2.7-42.85-2.34-2,.18-2.15,7.42-.89,8.92,2.85,3.38,17.34,7.84,21.62,7.84s12.81-2.46,20.19-5.25C194.87,226.67,194.2,223.1,194.24,218.46Z"/><path class="b771c7dc-2e50-4535-b32d-37c9c13ab22d" d="M109,89.2c5,1.07,14.29,1.85,20.41,2.27C128.34,69.11,113,43,111.79,40.94,93.68,51.05,90.93,72.84,90.93,85l.53.23C93.93,85.53,98.93,87.06,109,89.2Z"/><path class="b771c7dc-2e50-4535-b32d-37c9c13ab22d" d="M141.38,91.47c6.12-.42,15.4-1.2,20.41-2.27,10.05-2.14,15.06-3.67,17.53-4l.53-.23c0-12.12-2.75-33.91-20.87-44C157.78,43,142.44,69.11,141.38,91.47Z"/><path class="af69ebd9-dfad-4b49-a9b9-428200c7b35c" d="M107.06,94.8a121,121,0,0,0,28.33,3.94,120,120,0,0,0,28.11-3.83,99.47,99.47,0,0,0,10.75-3.32c4.56-1.74,7.41-3.44,7.41-4.62,0-1.57-.35-2.06-2.34-1.78-2.47.34-7.48,1.87-17.53,4-5,1.07-14.29,1.85-20.41,2.27C142.44,69.11,157.78,43,159,40.94l.09-.13c-5.23-5.29-15.52-8.44-24.45-8.36-8.48.08-18.11,3.49-22.91,8.36a.8.8,0,0,1,.08.13c1.21,2,16.55,28.17,17.61,50.53-6.12-.42-15.4-1.2-20.41-2.27-10.06-2.14-15.06-3.67-17.53-4-2-.28-2.34.21-2.34,1.78,0,1.22,3.13,3,8.06,4.82A102.84,102.84,0,0,0,107.06,94.8Z"/><path class="a1dabd65-feca-404a-8a0d-85fb56d1e937" d="M153.32,135.81c-.41-11.3-10.92-13.42-16.64-13.42s-16.13,2.12-16.54,13.42c-.19,5.4,2.73,8.68,6.24,10.66a23.3,23.3,0,0,0,10.3,2.76,23.86,23.86,0,0,0,9.9-2.5C150.31,144.78,153.53,141.44,153.32,135.81Zm-8.87,5.12c-6.33,1.59-2.87-1.94-3.48-3.53s-4.29.24-4.29.24-3.68-1.83-4.3-.24,2.86,5.12-3.48,3.53-6.73-9-2-10.77a26.33,26.33,0,0,1,9.81-1.41,26.33,26.33,0,0,1,9.81,1.41C151.19,131.93,150.78,139.34,144.45,140.93Z"/></g></svg>