<svg id="abf55726-0c75-4d1a-81f3-ac6807585a6d" data-name="Layer 2" xmlns="http://www.w3.org/2000/svg" viewBox="0 0 269 250"><defs><style>.b330a773-18d4-4d35-81cf-be329f6f6958{fill:#e64930;}.bb9ce1f2-6b6a-4dc1-942b-c8cc7ae1fcb0{fill:#f4ccaf;}.ed2c3bfc-1263-45ac-8740-810ecb3463e8{fill:#f4f4f4;}.f19b0771-b087-41fc-9208-1dc8dad47609{fill:#eaeaea;}.a67f0d43-ebd3-4b2f-b9ac-3e00046871a6{fill:#ff9325;}.b07c583f-345f-4aa6-8862-458deb092ad1{fill:#fcd4b5;}.bf639a27-db8c-417c-b8f1-59fc9a1c330b{fill:#554c44;}.b039fc71-7102-433e-b2b6-91b124ed971c{fill:#ffc211;}.bf213572-d072-4924-b8d1-a7939b6dcc6b{fill:#ffb21d;}.a05e7018-dadc-4f30-8400-016953836763{fill:#ffa027;}.e839290d-058a-424d-8b89-5b1c6c1e24c2{fill:#e0e0e0;}</style></defs><circle class="b330a773-18d4-4d35-81cf-be329f6f6958" cx="134.5" cy="125" r="125"/><path class="bb9ce1f2-6b6a-4dc1-942b-c8cc7ae1fcb0" d="M112.55,147.18a19.36,19.36,0,0,0,3.2,13.95c4.1,5.69,10.42,16.07,13.46,21.49h0c.15.25.29.52.43.77l.19.35c.09.17.19.34.28.52a16.77,16.77,0,0,1,.76,1.54,95.07,95.07,0,0,1,5.21,14.8,78.88,78.88,0,0,1,2.47-8,69.77,69.77,0,0,1,2.75-6.81,16.77,16.77,0,0,1,.76-1.54c.09-.18.19-.35.28-.52l.19-.35c.14-.25.28-.52.43-.77h0c3-5.42,9.36-15.8,13.46-21.49a19.36,19.36,0,0,0,3.2-13.95l-.72-2.45a32.35,32.35,0,0,1-1.32-6.72c-8.5,7.21-11.52,9.66-22,9.3-10.15.35-13.3-1.95-21.25-8.69a32.5,32.5,0,0,1-.91,4.93l.18-.07Z"/><path class="ed2c3bfc-1263-45ac-8740-810ecb3463e8" d="M103.24,176.32a176.44,176.44,0,0,1,2.15-22.6,62.54,62.54,0,0,1-8.54,4.18h0C98.46,162.79,100.64,169.21,103.24,176.32Z"/><path class="ed2c3bfc-1263-45ac-8740-810ecb3463e8" d="M135.76,201.9h0v0q.11-.4.21-.87a59,59,0,0,0-6.27-9.32c-3.73-4.65-6.07-5.19-6.07-5.19s-2.42-1.22.44-2.69l1.84-.91c-10.59-6-15.36.51-19.15,2.82,8.09,21,18.8,44.64,28.41,53.29a.91.91,0,0,1,.17.32V203.92S135.46,203.18,135.76,201.9Z"/><path class="f19b0771-b087-41fc-9208-1dc8dad47609" d="M168.81,173c2.12-5.9,3.92-11.21,5.29-15.4a62.48,62.48,0,0,1-7.26-3.54A184.78,184.78,0,0,1,168.81,173Z"/><path class="f19b0771-b087-41fc-9208-1dc8dad47609" d="M136.09,200.64c.43-1.63,1.28-4.65,2.46-8a78.88,78.88,0,0,0-2.47,8Z"/><path class="f19b0771-b087-41fc-9208-1dc8dad47609" d="M146.26,182.91l1.84.91c2.86,1.47.44,2.69.44,2.69a67.12,67.12,0,0,0-6.07,5.19,24.5,24.5,0,0,0-6.34,9.1c.18.69.28,1.11.28,1.11s-.13-.29-.4-.81c-.17.49-.24.78-.25.8-.3,1.28-.42,2-.42,2v35.42c0,.11.07.28.11.44a2.28,2.28,0,0,1,.35-1.1c9.67-8.7,20.44-32.6,28.55-53.67C160.7,182.34,155.89,177.45,146.26,182.91Z"/><path class="f19b0771-b087-41fc-9208-1dc8dad47609" d="M136,201v0q-.1.47-.21.87S135.85,201.55,136,201Z"/><path class="ed2c3bfc-1263-45ac-8740-810ecb3463e8" d="M55.65,172.73a8.59,8.59,0,0,0-1.73.27c-6.07,1.62-9.53,17.53-13.72,34A125.51,125.51,0,0,0,71,232.66a76.86,76.86,0,0,0-.84-12.86C68.15,208.66,55.13,176.65,55.65,172.73Z"/><path class="ed2c3bfc-1263-45ac-8740-810ecb3463e8" d="M217.11,173a8.37,8.37,0,0,0-1.77-.27c-.15,5.16-12.57,35.87-14.53,46.73a73.59,73.59,0,0,0-.84,12,125.42,125.42,0,0,0,30.44-26.34C226.63,189.3,223,174.56,217.11,173Z"/><path class="a67f0d43-ebd3-4b2f-b9ac-3e00046871a6" d="M215.34,172.73c0-.41-.05-.68-.2-.74-2.09-.93-40.25-16.81-41-14.42v0c-1.37,4.19-3.17,9.5-5.29,15.4.37,7.43.1,13.72-1.64,13.46a6.88,6.88,0,0,1-2.82-1.44c-8.11,21.07-18.88,45-28.55,53.67a2.28,2.28,0,0,0-.35,1.1,79.28,79.28,0,0,1,.77,10.18A124.29,124.29,0,0,0,200,231.48a73.59,73.59,0,0,1,.84-12C202.77,208.6,215.19,177.89,215.34,172.73Z"/><path class="b07c583f-345f-4aa6-8862-458deb092ad1" d="M135.61,147.31c10.45.36,13.47-2.09,22-9.3l.3-.26c9.18-7.78,4.56-24,10.13-23s11.68-13.83,7.76-17.57c-1.91-.18-3.48,1.63-4.94,4.09-1.65,2.77-1,7-2.65,7-2-6.73-1.78-12.8-1.41-19.6a126.88,126.88,0,0,1-30.36,4.24,125.43,125.43,0,0,1-28.11-3.73c.14,1.56.24,3.07.32,3.91.45,4.58-2.41,10.22-3.46,11.3-.69.7-2.36,3.63-3.35,3.88-.82.2-.27-4.59-3-8.71-2.16-3.26-3.16-2.55-3.16-2.55-4.38,3.39,2,18.8,7.56,17.79s1,15.24,10.12,23l1,.87C122.31,145.36,125.46,147.66,135.61,147.31Z"/><path class="bf639a27-db8c-417c-b8f1-59fc9a1c330b" d="M166.77,88.6c-.37,6.8-.57,12.87,1.41,19.6,1.64.1,1-4.18,2.65-7,1.46-2.46,3-4.27,4.94-4.09a3.75,3.75,0,0,1,.71.15,41.49,41.49,0,0,0,3.39-13.09A87.94,87.94,0,0,1,166.77,88.6Z"/><path class="bf639a27-db8c-417c-b8f1-59fc9a1c330b" d="M98.81,99.49c2.73,4.12,2.18,8.91,3,8.71,1-.25,2.66-3.18,3.35-3.88,1-1.08,3.91-6.72,3.46-11.3-.08-.84-.18-2.35-.32-3.91a95.64,95.64,0,0,1-15.5-5c0,.32,0,.62.08.95.21,2.13,1.5,10,2.77,11.87C95.65,96.94,96.65,96.23,98.81,99.49Z"/><path class="b039fc71-7102-433e-b2b6-91b124ed971c" d="M142.7,85.22c6.41-.45,16.15-1.27,21.4-2.38,10.55-2.25,15.79-3.85,18.38-4.22l.57-.24c0-12.71-2.89-35.56-21.89-46.16C159.9,34.34,143.8,61.76,142.7,85.22Z"/><path class="b039fc71-7102-433e-b2b6-91b124ed971c" d="M108.73,82.84c5.24,1.11,15,1.93,21.4,2.38-1.11-23.46-17.2-50.88-18.47-53-19,10.6-21.88,33.45-21.88,46.16l.56.24C92.93,79,98.18,80.59,108.73,82.84Z"/><path class="bf213572-d072-4924-b8d1-a7939b6dcc6b" d="M108.3,89.11a125.43,125.43,0,0,0,28.11,3.73,126.88,126.88,0,0,0,30.36-4.24,87.94,87.94,0,0,0,13.1-4.38c3.17-1.42,5.07-2.74,5.07-3.72,0-1.66-.37-2.17-2.46-1.88-2.59.37-7.83,2-18.38,4.22-5.25,1.11-15,1.93-21.4,2.38,1.1-23.46,17.2-50.88,18.46-53l.09-.15c-5.49-5.54-16.28-8.84-25.64-8.76-8.9.08-19,3.66-24,8.76l.08.15c1.27,2.12,17.36,29.54,18.47,53-6.42-.45-16.16-1.27-21.4-2.38C98.18,80.59,92.93,79,90.34,78.62c-2.09-.29-2.46.22-2.46,1.88,0,1,1.84,2.24,4.92,3.62A95.64,95.64,0,0,0,108.3,89.11Z"/><path class="a05e7018-dadc-4f30-8400-016953836763" d="M135.45,239.78c0-.16-.08-.33-.11-.44a.91.91,0,0,0-.17-.32c-9.61-8.65-20.32-32.31-28.41-53.29a4.9,4.9,0,0,1-1.76.72c-1.48.22-1.89-4.25-1.76-10.13-2.6-7.11-4.78-13.53-6.38-18.41h0c-.91-2.32-38.94,13.5-41,14.43-.1,0-.15.19-.18.4-.52,3.92,12.5,35.93,14.51,47.07A76.86,76.86,0,0,1,71,232.66,124.39,124.39,0,0,0,134.5,250c.58,0,1.15,0,1.72,0A79.28,79.28,0,0,0,135.45,239.78Z"/><path class="e839290d-058a-424d-8b89-5b1c6c1e24c2" d="M103.24,176.32c-.13,5.88.28,10.35,1.76,10.13a4.9,4.9,0,0,0,1.76-.72c3.79-2.31,8.56-8.82,19.15-2.82l-1.84.91c-2.86,1.47-.44,2.69-.44,2.69s2.34.54,6.07,5.19A59,59,0,0,1,136,201v0c-.13.51-.21.8-.22.85v0h0s.08-.31.25-.8c.27.52.4.81.4.81s-.1-.42-.28-1.11a24.5,24.5,0,0,1,6.34-9.1,67.12,67.12,0,0,1,6.07-5.19s2.42-1.22-.44-2.69l-1.84-.91c9.63-5.46,14.44-.57,18.09,2.1a6.88,6.88,0,0,0,2.82,1.44c1.74.26,2-6,1.64-13.46a184.78,184.78,0,0,0-2-18.94c-.21-1.23-.41-2.24-.59-2.94-1.62-6.24-4.71-6.47-7.71-7.63l.36,1.25.72,2.45a19.36,19.36,0,0,1-3.2,13.95c-4.1,5.69-10.42,16.07-13.46,21.49h0c-.15.25-.29.52-.43.77l-.19.35c-.09.17-.19.34-.28.52a16.77,16.77,0,0,0-.76,1.54,69.77,69.77,0,0,0-2.75,6.81c-1.18,3.38-2,6.4-2.46,8v0a95.07,95.07,0,0,0-5.21-14.8,16.77,16.77,0,0,0-.76-1.54c-.09-.18-.19-.35-.28-.52l-.19-.35c-.14-.25-.28-.52-.43-.77h0c-3-5.42-9.36-15.8-13.46-21.49a19.36,19.36,0,0,1-3.2-13.95l1.08-3.7-.18.07c-3,1.1-5.94,1.45-7.53,7.56-.16.64-.34,1.53-.53,2.61A176.44,176.44,0,0,0,103.24,176.32Z"/></svg>