<?xml version="1.0" encoding="utf-8"?>
<!-- Generator: Adobe Illustrator 25.2.1, SVG Export Plug-In . SVG Version: 6.00 Build 0)  -->
<svg version="1.1" id="fe33716c-8538-4a11-8725-e98fdc6f58a8"
	 xmlns="http://www.w3.org/2000/svg" xmlns:xlink="http://www.w3.org/1999/xlink" x="0px" y="0px" viewBox="0 0 2000 2000"
	 style="enable-background:new 0 0 2000 2000;" xml:space="preserve">
<style type="text/css">
	.st0{fill:#594B4F;}
	.st1{fill:#625559;}
	.st2{fill:#6C5E63;}
	.st3{fill:#76686C;}
	.st4{fill:#7F7276;}
	.st5{fill:#897B80;}
	.st6{fill:#92858A;}
	.st7{fill:#9B8E93;}
	.st8{fill:#A5989D;}
	.st9{fill:none;stroke:#FF0068;stroke-width:10;stroke-miterlimit:10;}
	.st10{fill:#68AAA2;}
	.st11{fill:#6BB4AB;}
	.st12{fill:#6EBEB3;}
	.st13{fill:#71C8BC;}
	.st14{fill:#74D2C4;}
	.st15{fill:#77DBCD;}
	.st16{fill:#7AE5D6;}
	.st17{fill:#7DEFDE;}
	.st18{fill:#80F9E7;}
	.st19{fill:#CFB284;}
	.st20{fill:#D3B98D;}
	.st21{fill:#D8C096;}
	.st22{fill:#DCC69F;}
	.st23{fill:#E0CDA8;}
	.st24{fill:#E5D4B1;}
	.st25{fill:#E9DBBA;}
	.st26{fill:#EEE2C3;}
	.st27{fill:#F2E9CC;}
	.st28{fill:#F6EFD5;}
	.st29{fill:#FBF6DE;}
	.st30{fill:#FFFDE7;}
	.st31{font-family:'MyriadPro-Regular';}
	.st32{font-size:67.8585px;}
	.st33{fill:none;}
	.st34{fill:#E64930;}
	.st35{fill:#E95338;}
	.st36{fill:#EC5D41;}
	.st37{fill:#EE6749;}
	.st38{fill:#F17151;}
	.st39{fill:#F47B5A;}
	.st40{fill:#F78562;}
	.st41{fill:#F98F6A;}
	.st42{fill:#FC9973;}
	.st43{fill:#FFA37B;}
</style>
<rect x="186.7" y="1305.7" class="st0" width="170.9" height="170.9"/>
<rect x="186.7" y="1208.7" class="st1" width="170.9" height="170.9"/>
<rect x="186.7" y="1111.6" class="st2" width="170.9" height="170.9"/>
<rect x="186.7" y="1014.5" class="st3" width="170.9" height="170.9"/>
<rect x="186.7" y="917.4" class="st4" width="170.9" height="170.9"/>
<rect x="186.7" y="820.3" class="st5" width="170.9" height="170.9"/>
<rect x="186.7" y="723.2" class="st6" width="170.9" height="170.9"/>
<rect x="186.7" y="626.1" class="st7" width="170.9" height="170.9"/>
<rect x="186.7" y="529" class="st8" width="170.9" height="170.9"/>
<line class="st9" x1="374.3" y1="1424.8" x2="541" y2="1424.8"/>
<line class="st9" x1="374.3" y1="1150.4" x2="541" y2="1150.4"/>
<line class="st9" x1="374.3" y1="926" x2="541" y2="926"/>
<line class="st9" x1="374.3" y1="657.8" x2="541" y2="657.8"/>
<rect x="624.4" y="1337.2" class="st10" width="139.5" height="139.4"/>
<rect x="624.4" y="1271.1" class="st11" width="139.5" height="139.4"/>
<rect x="624.4" y="1205" class="st12" width="139.5" height="139.4"/>
<rect x="624.4" y="1138.8" class="st13" width="139.5" height="139.4"/>
<rect x="624.4" y="1072.7" class="st14" width="139.5" height="139.4"/>
<rect x="624.4" y="1006.6" class="st15" width="139.5" height="139.5"/>
<rect x="624.4" y="940.5" class="st16" width="139.5" height="139.5"/>
<rect x="624.4" y="874.3" class="st17" width="139.5" height="139.5"/>
<rect x="624.4" y="808.2" class="st18" width="139.5" height="139.5"/>
<line class="st9" x1="786.3" y1="1463.4" x2="953" y2="1463.4"/>
<line class="st9" x1="786.3" y1="1252" x2="953" y2="1252"/>
<line class="st9" x1="786.3" y1="1057.9" x2="953" y2="1057.9"/>
<line class="st9" x1="786.3" y1="892.7" x2="953" y2="892.7"/>
<rect x="1081.4" y="1391.2" class="st19" width="142.5" height="85.5"/>
<rect x="1081.4" y="1331.9" class="st20" width="142.5" height="85.5"/>
<rect x="1081.4" y="1272.6" class="st21" width="142.5" height="85.5"/>
<rect x="1081.4" y="1213.2" class="st22" width="142.5" height="85.5"/>
<rect x="1081.4" y="1153.9" class="st23" width="142.5" height="85.5"/>
<rect x="1081.4" y="1094.6" class="st24" width="142.5" height="85.5"/>
<rect x="1081.4" y="1035.2" class="st25" width="142.5" height="85.5"/>
<rect x="1081.4" y="975.9" class="st26" width="142.5" height="85.5"/>
<rect x="1081.4" y="916.6" class="st27" width="142.5" height="85.5"/>
<rect x="1081.4" y="857.2" class="st28" width="142.5" height="85.5"/>
<rect x="1081.4" y="797.9" class="st29" width="142.5" height="85.5"/>
<rect x="1081.4" y="738.6" class="st30" width="142.5" height="85.5"/>
<text transform="matrix(1 0 0 1 1184.7471 1470.3778)" class="st31 st32">8</text>
<text transform="matrix(1 0 0 1 1187.2568 1410.5503)" class="st31 st32">7</text>
<text transform="matrix(1 0 0 1 1186.002 1353.9426)" class="st31 st32">6</text>
<text transform="matrix(1 0 0 1 1188.5117 1294.115)" class="st31 st32">5</text>
<text transform="matrix(1 0 0 1 1177.8579 1230.5762)" class="st31 st32">4</text>
<text transform="matrix(1 0 0 1 1180.3677 1170.7487)" class="st31 st32">3</text>
<text transform="matrix(1 0 0 1 1179.1128 1114.1409)" class="st31 st32">2</text>
<text transform="matrix(1 0 0 1 1181.6226 1054.3135)" class="st31 st32">1</text>
<rect x="1046" y="1152" class="st33" width="5" height="0"/>
<g>
	<rect x="1312" y="1411.6" class="st34" width="117" height="66.5"/>
	<rect x="1312" y="1364" class="st35" width="117" height="66.5"/>
	<rect x="1312" y="1316.4" class="st36" width="117" height="66.5"/>
	<rect x="1312" y="1268.8" class="st37" width="117" height="66.5"/>
	<rect x="1312" y="1221.1" class="st38" width="117" height="66.5"/>
	<rect x="1312" y="1173.5" class="st39" width="117" height="66.5"/>
	<rect x="1312" y="1125.9" class="st40" width="117" height="66.5"/>
	<rect x="1312" y="1078.3" class="st41" width="117" height="66.5"/>
	<rect x="1312" y="1030.7" class="st42" width="117" height="66.5"/>
	<rect x="1312" y="983.1" class="st43" width="117" height="66.5"/>
</g>
</svg>
