<?xml version="1.0" encoding="UTF-8" standalone="no"?>
<svg
   xmlns:dc="http://purl.org/dc/elements/1.1/"
   xmlns:cc="http://creativecommons.org/ns#"
   xmlns:rdf="http://www.w3.org/1999/02/22-rdf-syntax-ns#"
   xmlns:svg="http://www.w3.org/2000/svg"
   xmlns="http://www.w3.org/2000/svg"
   xmlns:sodipodi="http://sodipodi.sourceforge.net/DTD/sodipodi-0.dtd"
   xmlns:inkscape="http://www.inkscape.org/namespaces/inkscape"
   version="1.1"
   id="Layer_1"
   x="0px"
   y="0px"
   viewBox="0 0 220.34632 220.49826"
   xml:space="preserve"
   sodipodi:docname="logo-with-with-outline.svg"
   width="220.34633"
   height="220.49826"
   inkscape:version="1.0.2 (1.0.2+r75+1)"><metadata
   id="metadata712"><rdf:RDF><cc:Work
       rdf:about=""><dc:format>image/svg+xml</dc:format><dc:type
         rdf:resource="http://purl.org/dc/dcmitype/StillImage" /><dc:title></dc:title></cc:Work></rdf:RDF></metadata><defs
   id="defs710">
	
	
	
	
	
	
</defs><sodipodi:namedview
   pagecolor="#b7b7b7"
   bordercolor="#666666"
   borderopacity="1"
   objecttolerance="10"
   gridtolerance="10"
   guidetolerance="10"
   inkscape:pageopacity="0"
   inkscape:pageshadow="2"
   inkscape:window-width="1237"
   inkscape:window-height="969"
   id="namedview708"
   showgrid="false"
   fit-margin-top="0"
   fit-margin-left="0"
   fit-margin-right="0"
   fit-margin-bottom="0"
   inkscape:zoom="3.4069099"
   inkscape:cx="63.150835"
   inkscape:cy="109.51897"
   inkscape:window-x="43"
   inkscape:window-y="27"
   inkscape:window-maximized="1"
   inkscape:current-layer="Layer_1" />
<style
   type="text/css"
   id="style2">
	.st0{display:none;}
	.st1{display:inline;opacity:0.25;}
	.st2{opacity:0.6;fill:#31828B;enable-background:new    ;}
	.st3{fill:#31828B;}
	.st4{opacity:0.6;}
	.st5{opacity:0.61;}
	.st6{opacity:0.54;}
	.st7{opacity:0.62;}
	.st8{opacity:0.59;}
	.st9{display:inline;opacity:0.26;}
	.st10{display:inline;opacity:0.25;fill:#31828B;enable-background:new    ;}
	.st11{fill:#E7A624;}
	.st12{fill:#FFC825;}
	.st13{fill:none;}
	.st14{fill:#66595D;}
	.st15{fill:#594C50;}
	.st16{fill:#FFFFFF;}
	.st17{fill:#E64A30;}
</style>
<path
   style="fill:none;stroke:#ffffff;stroke-width:10;stroke-linecap:butt;stroke-linejoin:miter;stroke-miterlimit:4;stroke-dasharray:none;stroke-opacity:0.80000001"
   d="m 16.666385,56.813705 c 25.052212,10.125426 49.614185,-16.235513 39.5,-39.8 7.364045,-4.34624 17.150443,-8.6117795 26,-10.8999998 10.634587,25.4452228 47.117465,23.3323608 56.199995,-0.1 11.21405,3.0695015 18.25929,6.7193228 26,10.8999998 -9.99974,21.570748 12.82507,50.080247 39.5,39.8 3.37273,5.341266 8.99896,18.15841 10.7,26.1 -22.5381,8.79421 -24.90652,45.155385 -0.3,55.699995 -2.95241,10.78903 -6.99415,18.88112 -10.9,26 -23.71046,-9.11211 -48.29391,15.43043 -39.3,39.2 -7.89602,4.55502 -17.16585,8.14331 -26.1,10.7 -6.67679,-18.14214 -42.063195,-27.4624 -55.499995,0.1 -10.431216,-2.66577 -18.661374,-6.42741 -26.1,-10.7 9.250202,-24.51656 -16.329318,-48.24385 -39.3,-39.2 -2.156857,-4.07152 -8.0506908,-14.66679 -10.9000003,-26 23.9671783,-10.00491 23.1434703,-46.491458 -0.2,-55.799995 3.4026157,-12.864743 7.4751093,-20.176101 10.7000003,-26 z"
   id="path1549"
   sodipodi:nodetypes="ccccccccccccccccc" /><g
   id="Layer_2"
   class="st0"
   transform="translate(5.9663847,6.1137052)">
	<g
   class="st1"
   id="g382">
		<path
   class="st2"
   d="m -1580,-1598.5 -255.4,-0.1 h -0.3 v 55.1 h 0.3 l 270.3,0.1 h 46.1 v -55.1 z m 50.4,5.8 -14.4,11.4 -10.2,8.1 -1.5,-1.2 -0.1,-0.1 -9.5,-7.5 -13.6,-10.8 z m -61.8,0 -24.6,19.5 -24.6,-19.5 z m -61.8,0 -24.6,19.5 -24.6,-19.6 z m -62.1,-0.1 -24.6,19.6 -24.6,-19.6 z m -61.7,0 -24.6,19.5 -24.6,-19.5 z m -52.5,1.8 25.2,20 -25.2,20 z m 3.3,41.8 24.7,-19.6 24.6,19.6 z m 52.6,-1.8 -25.1,-20 25.1,-20 z m 6.2,-39.6 24.7,19.6 -24.7,19.6 z m 2.9,41.4 24.6,-19.6 24.6,19.6 z m 53,-1.4 -25.6,-20.3 25.6,-20.3 z m 6.2,-40 24.8,19.6 -24.8,19.7 z m 2.9,41.4 24.6,-19.5 24.6,19.5 z m 53,-1.4 -25.6,-20.3 25.6,-20.3 z m 6.2,-39.7 24.4,19.4 -24.4,19.3 z m 2.5,41.1 24.7,-19.6 24.6,19.6 z m 53.4,-1.1 -25.9,-20.6 26,-20.6 z m 6.2,-39.8 1,0.8 14.9,11.8 8.2,6.5 -8.2,6.5 -8.8,6.9 -7.2,5.7 z m 2.3,40.9 8.8,-7 4.9,-3.9 9.4,-7.5 1.5,-1.2 10.2,8.2 14.4,11.4 z m 53.6,-0.9 -0.2,-0.2 -1.6,-1.2 -17,-13.5 -7.4,-5.9 7.4,-5.9 18.4,-14.6 0.4,-0.3 z"
   id="path4" />
		<path
   class="st3"
   d="m -1192.2,-2028 h -1 v 40.7 h 1 141.3 v -40.7 z m 133.4,4.3 -18.2,14.4 -18.2,-14.4 z m -45.7,0 -18.1,14.4 -18.2,-14.5 z m -45.6,0 -18.1,14.4 -18.2,-14.4 z m -38.6,1.6 18.3,14.5 -18.3,14.5 z m 2.2,30.6 18.2,-14.4 18.2,14.4 z m 39.2,-1.1 -18.9,-15.1 18.9,-15 z m 4.6,-29.4 18,14.4 -18,14.3 z m 1.8,30.5 18.3,-14.5 18.2,14.5 z m 39.5,-0.9 -19.2,-15.2 19.2,-15.3 z m 4.6,-29.4 17.8,14.2 -17.8,14.1 z m 1.6,30.3 18.2,-14.5 18.2,14.5 z m 39.7,-0.7 -19.4,-15.4 19.4,-15.4 z"
   id="path6" />
		<g
   id="g20">
			<path
   class="st3"
   d="m -1529.7,-1474.2 c 0,20.8 -16.9,37.7 -37.7,37.7 h -72.7 c -20.8,0 -37.7,-16.9 -37.7,-37.7 v 0 c 0,-20.8 16.9,-37.7 37.7,-37.7 h 72.7 c 20.8,-0.1 37.7,16.8 37.7,37.7 z"
   id="path8" />
			<rect
   x="-1619.3"
   y="-1521.1"
   class="st3"
   width="33.900002"
   height="5"
   id="rect10" />
			<rect
   x="-1614.5"
   y="-1516"
   class="st3"
   width="24.1"
   height="9.1000004"
   id="rect12" />
			<rect
   x="-1670.7"
   y="-1436.5"
   class="st3"
   width="133.8"
   height="5.6999998"
   id="rect14" />
			<path
   class="st3"
   d="m -1670.6,-1517.1 v 80.6 5.7 77 h 28.4 V -1517 Z m 24.9,3.3 -2.1,2.6 v 0 l -8.7,10.9 -4.3,-5.5 -6.4,-8 z m -16.7,133.4 -4.4,-5.5 h 20.6 l -5.1,6.5 -5.2,6.5 z m 9.4,14.8 6.8,8.6 h -20.6 l 8.1,-10.1 2.3,-2.8 z m -14.7,-25 v -25.3 l 10.1,12.7 z m 11.2,-11.2 10.1,12.7 h -20.3 z m 1.2,-1.4 10.1,-12.7 v 25.4 z m -1.2,-1.5 -10.5,-13.2 h 21 z m -10.1,-16.4 7.7,-9.8 2.4,-3 2.4,3 7.7,9.8 z m 10.1,-15.6 -5.3,-6.6 v 0 l -5.3,-6.6 h 21 l -8.4,10.5 z m -11.2,-17.7 v -25.3 l 10.1,12.7 z m 11.2,-11.2 10,12.6 h -20 z m 1.2,-1.5 10.1,-12.7 v 25.4 z m -1.2,-1.4 -10.6,-13.4 h 21.3 z m -9.8,-16.5 9.8,-12.4 9.9,12.4 z m -1.4,-26.6 5.4,6.8 4.7,5.9 -10.1,12.7 z m 0,63.7 6.3,7.9 2.7,3.5 1,1.3 -3.5,4.4 -6.6,8.2 z m 0,63.8 2.8,3.6 7.2,9.1 -3,3.8 -7.1,8.9 z m 22.5,25.4 -4.8,-6.1 -5.3,-6.6 6.1,-7.7 3.9,-5 v 25.4 z m 0,-63.9 -6.6,-8.3 -0.7,-0.8 -2.9,-3.6 1,-1.3 1.7,-2.1 7.4,-9.3 z m 0,-63.6 -10.1,-12.7 10.1,-12.7 z"
   id="path16" />
			<path
   class="st3"
   d="m -1565.3,-1517.1 v 80.6 5.7 77 h 28.4 v -82.7 -15.6 -65 z m 25,3.3 -6.4,8 -4.3,5.5 -4.7,-5.8 -4,-5 -2.1,-2.6 z m -1.9,98 -7.5,9.4 -1.3,1.7 -1.3,-1.7 -7.5,-9.4 -1.7,-2.1 h 20.9 z m -8.9,45.8 10.3,12.9 h -20.6 z m -11.2,11.2 v -25.4 l 10.1,12.7 z m 12.4,-12.6 10.1,-12.7 v 25.4 z m -1.2,-1.5 -10.3,-13 h 20.5 z m -10.1,-16.2 10.1,-12.7 10.1,12.7 z m 0,-32 7.7,-9.8 2.4,-3 2.4,3 7.7,9.8 z m 8,-18.2 -8.4,-10.6 h 21 l -5.2,6.5 v 0 l -5.3,6.7 z m -9.1,-54.6 v -17.7 l 5.6,7.1 4.4,5.5 -6.7,8.4 -3.4,4.2 z m 0,14.2 10.1,12.7 -10.1,12.7 z m 11.2,14.1 9.9,12.6 h -20 z m 1.2,-1.5 10.1,-12.7 v 25.4 z m -1.2,-1.4 -10.6,-13.4 h 21.2 z m -9.8,-16.5 4,-5 5.9,-7.4 9,11.3 0.9,1.1 z m -1.4,37.1 7.4,9.3 1.7,2.1 1,1.3 -3.5,4.4 -6.6,8.2 z m 0,32 0.1,0.2 7.4,9.4 2.5,3.2 -10.1,12.7 z m 22.4,25.4 -10.1,-12.7 2.5,-3.2 7.5,-9.5 0.1,-0.1 z m 0,-40.3 v 8.3 l -6.5,-8.3 -3.5,-4.4 1,-1.3 9.1,-11.4 v 11.4 z m 0.1,-55.4 -10.1,-12.7 4.7,-5.9 5.4,-6.8 z"
   id="path18" />
		</g>
		<path
   class="st3"
   d="m -1202.6,-1468.8 v 49.4 55.8 58.1 h 28.4 v -60.8 -50.3 -52.1 z m 3,5.5 0.2,0.2 9.9,12.5 -10.1,12.7 z m 19.4,32.8 -8.2,10.3 -4.8,-6.1 -5.8,-7.3 h 21.3 z m 0.3,95.1 -8.5,10.8 -10.3,-13 h 5.7 14.9 z m -1.9,22.1 3.6,4.6 h -20.6 l 3.6,-4.6 6.7,-8.4 z m -16.8,-27.5 10.1,-12.7 10.1,12.7 z m -1,-46.4 v -12.4 l 0.8,0.9 9.3,11.7 -6.8,8.5 -3.3,4.2 z m 11.2,1.7 10.1,12.8 h -13.3 -6.9 l 3.3,-4.1 z m 10.4,15.9 -2.2,2.7 -8.3,10.5 -10.5,-13.2 z m -9.3,-17.4 10.1,-12.7 v 25.3 z m -1.1,-1.4 -9.8,-12.3 -0.7,-0.9 h 1.1 19.9 z m -10,-16.4 10,-12.6 2.6,3.3 7.4,9.3 z m 19.8,-32 h -19.7 l 9.9,-12.4 z m -8.7,-13.8 10.1,-12.7 v 25.4 z m -12.3,19.1 4.8,6.1 5.2,6.6 -10.1,12.7 z m -0.1,63.9 10.1,12.7 -10.1,12.7 z m 0,31.7 10.1,12.7 -7.8,9.9 -2.2,2.8 z m 22.5,22.6 v 2.9 l -2.3,-2.9 -7.8,-9.9 9.7,-12.1 0.4,-0.6 v 0.5 z m 0,-29 -9.2,-11.5 -0.9,-1.2 9.2,-11.6 0.9,-1.1 z m 0,-63.8 -6.9,-8.8 -3.1,-3.9 9.6,-12 0.5,-0.7 z m -11.2,-46 -10.1,-12.8 -0.4,-0.5 -0.2,-0.3 h 21.5 l -0.2,0.3 z"
   id="path22" />
		<path
   class="st3"
   d="m -1142.8,-1468.8 v 54.4 45.9 62.9 h 28.4 v -7.8 -82.6 -72.8 z m 3,5.5 1.2,1.6 8.8,11.1 -10.1,12.7 z m 0.9,125.7 h 20.6 l -10.3,12.9 z m 17,24.3 3.6,4.6 h -20.6 l 3.6,-4.6 6.7,-8.4 z m -16.8,-27.5 10.1,-12.7 10.1,12.7 z m 11.3,-14.1 10,-12.7 v 25.4 z m -1.2,-1.5 -3.6,-4.6 -6.8,-8.6 h 20.9 z m 2.5,-16.4 h -12.6 l 10.1,-12.8 5.4,6.9 4.7,5.9 z m -9.8,-24.9 -3.1,-3.9 h 2.3 18.7 l -10.5,13.2 z m -2.1,-7.8 9.5,-11.9 9.9,12.6 h -19.9 z m 10.6,-13.3 10.1,-12.7 v 25.4 z m -1.2,-1.4 -10.6,-13.4 h 21.2 z m -9.8,-16.6 9.8,-12.4 9.9,12.4 z m -1.4,5.3 10.1,12.7 -9.1,11.4 -1,1.2 z m 0,57.2 v -25.3 l 4.2,5.3 5.8,7.3 -9.1,11.4 z m 0,6.7 6.6,8.3 3.5,4.4 -10.1,12.7 z m 0,31.7 10.1,12.7 -7.8,9.9 -2.2,2.8 z m 22.4,25.4 -2.3,-2.9 -7.8,-9.9 10.1,-12.7 z m 0,-63.8 -4.9,-6.1 -5.2,-6.6 10.1,-12.7 v 9.6 z m 0.1,-63.6 -10.1,-12.7 1.8,-2.3 8.3,-10.4 z m -9.7,-16.2 -1.6,2 -5.7,-7.2 -4.8,-6 -0.2,-0.3 h 21.5 l -0.2,0.3 z"
   id="path24" />
		<g
   class="st4"
   id="g32">
			<rect
   x="-1018.3"
   y="-1469"
   class="st3"
   width="77"
   height="161.39999"
   id="rect26" />
			<path
   class="st3"
   d="m -927,-1464.8 v 140.6 h -4.2 v -30.6 h -10 v -2.8 h 10 v -27.6 h -10 v -2.8 h 10 v -27.6 h -10 v -2.8 h 10 v -27.6 h -10 v -2.8 h 10 v -15.8 c 0,-5.7 -4.7,-10.4 -10.4,-10.4 -4.2,0 -7.9,2.6 -9.5,6.2 h -4.5 c 1.8,-6 7.4,-10.4 14,-10.4 8.1,-0.2 14.6,6.4 14.6,14.4 z"
   id="path28" />
			<rect
   x="-1022.1"
   y="-1316"
   class="st3"
   width="84.599998"
   height="10.7"
   id="rect30" />
		</g>
		<g
   id="g48">
			<rect
   x="-2135.2"
   y="-1885.2"
   class="st3"
   width="11.1"
   height="23.799999"
   id="rect34" />
			<rect
   x="-2052.1001"
   y="-1885.2"
   class="st3"
   width="11.1"
   height="23.799999"
   id="rect36" />
			<path
   class="st3"
   d="m -2004.9,-1912.2 c 0,15.9 -11.8,29.1 -27.2,31.1 -1.4,0.2 -2.8,0.3 -4.2,0.3 H -2140 c -1.4,0 -2.8,-0.1 -4.2,-0.3 -1.6,-0.2 -3.1,-0.5 -4.6,-0.9 -1.8,-0.5 -3.5,-1.2 -5.1,-2 v -56.3 c 3,-1.5 6.2,-2.5 9.6,-2.9 1.4,-0.2 2.8,-0.3 4.2,-0.3 h 103.7 c 1.4,0 2.9,0.1 4.3,0.3 7,0.9 13.2,4.2 17.9,8.9 5.8,5.6 9.3,13.4 9.3,22.1 z"
   id="path38" />
			<path
   class="st3"
   d="m -2038.4,-1881.5 c 0,1.7 1.4,3.2 3.2,3.2 v 0 c 1.7,0 3.2,-1.4 3.2,-3.2 v -61.9 c 0,-1.8 -1.4,-3.2 -3.2,-3.2 v 0 c -1.8,0 -3.2,1.4 -3.2,3.2 z"
   id="path40" />
			<path
   class="st3"
   d="m -2091.3,-1881.5 c 0,1.7 1.4,3.2 3.2,3.2 v 0 c 1.8,0 3.2,-1.4 3.2,-3.2 v -61.9 c 0,-1.8 -1.4,-3.2 -3.2,-3.2 v 0 c -1.7,0 -3.2,1.4 -3.2,3.2 z"
   id="path42" />
			<path
   class="st3"
   d="m -2144.2,-1881.5 c 0,1.7 1.4,3.2 3.2,3.2 v 0 c 1.8,0 3.2,-1.4 3.2,-3.2 v -61.9 c 0,-1.8 -1.4,-3.2 -3.2,-3.2 v 0 c -1.7,0 -3.2,1.4 -3.2,3.2 z"
   id="path44" />
			<rect
   x="-2153.8999"
   y="-1912.4"
   class="st3"
   width="5.0999999"
   height="31.700001"
   id="rect46" />
		</g>
		<g
   class="st5"
   id="g84">
			<rect
   x="-1004.9"
   y="-1199.4"
   class="st3"
   width="8"
   height="17.1"
   id="rect50" />
			<rect
   x="-1037.3"
   y="-1199.4"
   class="st3"
   width="8"
   height="17.1"
   id="rect52" />
			<rect
   x="-1059.8"
   y="-1199.4"
   class="st3"
   width="8"
   height="17.1"
   id="rect54" />
			<rect
   x="-1119.4"
   y="-1199.4"
   class="st3"
   width="8"
   height="17.1"
   id="rect56" />
			<path
   class="st3"
   d="m -1025.8,-1218.8 c 0,12.4 -10.1,22.5 -22.5,22.5 h -74.5 c -12.5,0 -22.6,-10.1 -22.6,-22.5 v 0 c 0,-12.5 10.1,-22.5 22.6,-22.5 h 74.5 c 12.4,0 22.5,10.1 22.5,22.5 z"
   id="path58" />
			<path
   class="st3"
   d="m -1121.3,-1196.7 c 0,1.3 -1,2.3 -2.3,2.3 v 0 c -1.2,0 -2.3,-1 -2.3,-2.3 v -44.5 c 0,-1.3 1,-2.3 2.3,-2.3 v 0 c 1.3,0 2.3,1 2.3,2.3 z"
   id="path60" />
			<path
   class="st3"
   d="m -1083.3,-1196.7 c 0,1.3 -1,2.3 -2.3,2.3 v 0 c -1.3,0 -2.3,-1 -2.3,-2.3 v -44.5 c 0,-1.3 1,-2.3 2.3,-2.3 v 0 c 1.2,0 2.3,1 2.3,2.3 z"
   id="path62" />
			<path
   class="st3"
   d="m -1045.3,-1196.7 c 0,1.3 -1,2.3 -2.3,2.3 v 0 c -1.3,0 -2.3,-1 -2.3,-2.3 v -44.5 c 0,-1.3 1,-2.3 2.3,-2.3 v 0 c 1.3,0 2.3,1 2.3,2.3 z"
   id="path64" />
			<g
   id="g68">
				<path
   class="st3"
   d="m -1018,-1212.9 c -1.1,0 -2.1,-0.9 -2.1,-2.1 v -16.9 h -3.7 c -1.1,0 -2.1,-0.9 -2.1,-2.1 v -22.2 c 0,-1.1 0.9,-2.1 2.1,-2.1 1.1,0 2.1,0.9 2.1,2.1 v 20.1 h 3.7 c 1.1,0 2.1,0.9 2.1,2.1 v 19 c 0,1.2 -0.9,2.1 -2.1,2.1 z"
   id="path66" />
			</g>
			<g
   id="g72">
				<path
   class="st3"
   d="m -1003.7,-1212.9 c -1.1,0 -2.1,-0.9 -2.1,-2.1 v -16.9 h -3.6 c -1.1,0 -2.1,-0.9 -2.1,-2.1 v -22.2 c 0,-1.1 0.9,-2.1 2.1,-2.1 1.1,0 2.1,0.9 2.1,2.1 v 20.1 h 3.6 c 1.1,0 2.1,0.9 2.1,2.1 v 19 c 0,1.2 -0.9,2.1 -2.1,2.1 z"
   id="path70" />
			</g>
			<path
   class="st3"
   d="m -1018,-1256.1 c 0,3.2 -2.6,5.7 -5.7,5.7 -1.6,0 -3,-0.7 -4,-1.6 -1,-1.1 -1.6,-2.5 -1.6,-4.1 0,-3.2 2.6,-5.7 5.7,-5.7 3.1,-0.1 5.6,2.5 5.6,5.7 z"
   id="path74" />
			<path
   class="st3"
   d="m -1019.2,-1256.1 c 0,2.5 -2,4.5 -4.5,4.5 -1.2,0 -2.3,-0.5 -3.2,-1.3 l 3.2,-3.2 v -4.5 c 2.5,0 4.5,2 4.5,4.5 z"
   id="path76" />
			<path
   class="st3"
   d="m -1003.7,-1256.1 c 0,3.2 -2.5,5.7 -5.7,5.7 -3.1,0 -5.7,-2.6 -5.7,-5.7 0,-1.6 0.6,-3 1.7,-4 1,-1 2.4,-1.7 4,-1.7 3.2,-0.1 5.7,2.5 5.7,5.7 z"
   id="path78" />
			<path
   class="st3"
   d="m -1004.9,-1256.1 c 0,2.5 -2,4.5 -4.4,4.5 -2.5,0 -4.5,-2 -4.5,-4.5 0,-1.3 0.5,-2.4 1.4,-3.2 l 3.1,3.2 v -4.5 c 2.4,0 4.4,2 4.4,4.5 z"
   id="path80" />
			<rect
   x="-1042"
   y="-1219"
   class="st3"
   width="49.900002"
   height="22.700001"
   id="rect82" />
		</g>
		<g
   id="g94">
			<g
   id="g88">
				<path
   class="st3"
   d="m -1720.8,-1962.3 c -2.8,0 -5,-2.3 -5,-5 v -41.1 h -8.9 c -2.8,0 -5.1,-2.3 -5.1,-5.1 v -53.9 c 0,-2.8 2.3,-5.1 5.1,-5.1 2.8,0 5.1,2.3 5.1,5.1 v 48.8 h 8.9 c 2.8,0 5.1,2.3 5.1,5 v 46.2 c -0.1,2.8 -2.4,5.1 -5.2,5.1 z"
   id="path86" />
			</g>
			<path
   class="st3"
   d="m -1720.8,-2067.4 c 0,7.7 -6.2,13.9 -13.9,13.9 -3.8,0 -7.2,-1.7 -9.7,-4 -2.4,-2.7 -4,-6.1 -4,-9.9 0,-7.7 6.2,-13.9 13.7,-13.9 7.7,0 13.9,6.2 13.9,13.9 z"
   id="path90" />
			<path
   class="st3"
   d="m -1723.7,-2067.4 c 0,6 -4.9,10.9 -11,10.9 -2.9,0 -5.6,-1.2 -7.7,-3.2 l 7.7,-7.7 v -11 c 6.1,0 11,4.9 11,11 z"
   id="path92" />
		</g>
		<g
   id="g104">
			<g
   id="g98">
				<path
   class="st3"
   d="m -1686.6,-1962.3 c -2.8,0 -5.1,-2.3 -5.1,-5 v -41.1 h -8.8 c -2.8,0 -5,-2.3 -5,-5.1 v -53.9 c 0,-2.8 2.2,-5.1 5,-5.1 2.8,0 5.1,2.3 5.1,5.1 v 48.8 h 8.8 c 2.8,0 5.1,2.3 5.1,5 v 46.2 c 0,2.8 -2.3,5.1 -5.1,5.1 z"
   id="path96" />
			</g>
			<path
   class="st3"
   d="m -1686.7,-2067.4 c 0,7.7 -6.2,13.9 -13.7,13.9 -7.7,0 -13.9,-6.2 -13.9,-13.9 0,-3.9 1.5,-7.3 4.1,-9.8 2.4,-2.5 5.9,-4.1 9.8,-4.1 7.5,0 13.7,6.2 13.7,13.9 z"
   id="path100" />
			<path
   class="st3"
   d="m -1689.6,-2067.4 c 0,6 -4.9,10.9 -10.8,10.9 -6,0 -10.9,-4.9 -10.9,-10.9 0,-3.1 1.2,-5.8 3.3,-7.7 l 7.7,7.7 v -11 c 5.8,0 10.7,4.9 10.7,11 z"
   id="path102" />
		</g>
		<g
   class="st4"
   id="g114">
			<path
   class="st3"
   d="m -1662.5,-1754.4 h 4.1 c 2.3,0 4.3,0.6 6.2,1.5 -3.2,-1.9 -6.9,-2.3 -10.3,-1.5 z"
   id="path106" />
			<path
   class="st3"
   d="m -1916.6,-1726.1 v 6.3 h 171.7 v -6.3 z m 0,0 v 6.3 h 171.7 v -6.3 z m 0,0 v 6.3 h 171.7 v -6.3 z m 0,0 v 6.3 h 171.7 v -6.3 z m 0,0 v 6.3 h 171.7 v -6.3 z m 0,0 v 6.3 h 171.7 v -6.3 z m 0,0 v 6.3 h 171.7 v -6.3 z m 0,0 v 6.3 h 171.7 v -6.3 z m 367,64.8 -7,-4 -12.1,-6.9 -2.7,-1.6 -40.2,-23.1 c 0.2,2.7 0.6,5.3 1.2,7.9 l 34.5,19.9 v 0 l 2.8,1.6 3.3,1.9 8.1,4.7 3.3,1.9 2.9,1.7 1.4,0.8 33.6,19.3 c 0.3,-0.2 0.6,-0.5 0.8,-0.7 v -6 z m -367,-64.8 v 6.3 h 209.2 v -6.3 z m 499.8,101.4 -13.2,-7.6 -23,-13.2 -42.5,-24.5 -24,-13.8 -5.6,-3.2 -2.3,-1.3 -19.5,-11.2 -99.9,-57.5 -0.1,-0.1 -2.1,-1.2 c -0.5,-0.3 -1.1,-0.6 -1.7,-0.8 -2.3,-0.9 -4.9,-1.5 -7.7,-1.5 h -268 c -5.5,0 -10.6,2.3 -14.3,6 -3.7,3.7 -5.9,8.8 -5.9,14.3 0,8.2 4.8,15.2 11.6,18.4 2.6,1.3 5.6,2 8.7,2 h 262.5 l 4.9,2.8 38.3,22.1 10.3,5.9 34.5,19.9 v 0 l 2.8,1.6 3.3,1.9 8.1,4.7 3.3,1.9 2.9,1.7 1.4,0.8 33.6,19.3 0.8,0.5 24,13.8 32.4,18.7 4.7,2.7 3.4,2 11.2,6.4 3.1,1.8 0.3,0.1 3.4,2 c 9.8,5.6 22.2,2.2 27.8,-7.5 5.6,-9.8 2.2,-22.2 -7.5,-27.9 z m -509.6,-101.4 c -3.3,0 -6.3,-1.1 -8.7,-3.1 -3.3,-2.5 -5.4,-6.6 -5.4,-11.1 0,-7.8 6.3,-14.1 14.1,-14.1 h 252.1 c -0.1,0.1 -0.1,0.1 -0.2,0.2 -0.9,1 -1.7,2.1 -2.4,3.4 -4.8,8.3 -3.1,18.5 3.5,24.7 z m 264.2,0 -4,-2.3 c -6.8,-3.8 -9,-12.5 -5.2,-19.3 1.2,-2 2.8,-3.7 4.6,-4.8 1.3,-0.9 2.8,-1.5 4.3,-1.9 3.4,-0.8 7.1,-0.4 10.3,1.5 l 1.7,0.9 c 0.2,0.2 0.5,0.3 0.7,0.5 3.4,2.5 5.5,6.6 5.5,11.2 0,7.8 -6.3,14.2 -14.1,14.2 z m 247.5,126.1 c -3.9,6.8 -12.5,9 -19.3,5.2 l -1.9,-1.1 -2.4,-1.4 -2.9,-1.7 -10.2,-5.9 -2.9,-1.7 -3.5,-2 -0.2,-0.1 -37.6,-21.6 -20.5,-11.8 -3.5,-2 -30,-17.3 -7,-4 -12.1,-6.9 -2.7,-1.6 -40.2,-23.1 -8.4,-4.8 -32.8,-18.9 c 2.4,-0.7 4.6,-1.8 6.6,-3.3 5,-3.7 8.1,-9.6 8.1,-16.3 0,-1.7 -0.2,-3.3 -0.7,-4.9 l 1.7,1 25.8,14.8 0.9,0.5 58.9,33.9 21.8,12.6 0.1,0.1 0.4,0.2 9.6,5.5 1.2,0.7 22.8,13.1 41.7,24 23,13.2 11,6.3 c 6.7,3.9 9,12.6 5.2,19.3 z m -501.9,-126.1 v 6.3 h 171.7 v -6.3 z m 0,0 v 6.3 h 171.7 v -6.3 z m 0,0 v 6.3 h 171.7 v -6.3 z m 0,0 v 6.3 h 171.7 v -6.3 z m 0,0 v 6.3 h 171.7 v -6.3 z m 0,0 v 6.3 h 171.7 v -6.3 z m 0,0 v 6.3 h 171.7 v -6.3 z m 0,0 v 6.3 h 171.7 v -6.3 z"
   id="path108" />
			<circle
   class="st3"
   cx="-1925.8"
   cy="-1740.3"
   id="ellipse110"
   r="10.5" />
			<path
   class="st3"
   d="m -1648.3,-1740.3 c 0,5.8 -4.7,10.5 -10.5,10.5 -5.8,0 -10.5,-4.7 -10.5,-10.5 0,-5.8 4.7,-10.5 10.5,-10.5 5.8,0.1 10.5,4.7 10.5,10.5 z"
   id="path112" />
		</g>
		<g
   class="st4"
   id="g122">
			<path
   class="st3"
   d="m -1175,-1509.1 h -268 c -5.6,0 -10.7,2.3 -14.4,6 -3.7,3.7 -5.9,8.8 -5.9,14.4 0,8.2 4.8,15.2 11.6,18.4 2.6,1.3 5.6,2 8.7,2 h 240.4 c 0,0 0,0 0.1,0 h 27.6 c 0.3,0 0.5,0 0.7,0 3.3,-0.1 6.4,-1 9.1,-2.5 6.3,-3.5 10.5,-10.1 10.5,-17.8 0,-11.3 -9.2,-20.5 -20.4,-20.5 z m 0,34.5 h -268 c -3.3,0 -6.3,-1.1 -8.7,-3.1 -3.3,-2.6 -5.4,-6.6 -5.4,-11.1 0,-7.8 6.3,-14.1 14.1,-14.1 h 268 c 7.8,0 14.1,6.3 14.1,14.1 0,7.9 -6.3,14.2 -14.1,14.2 z"
   id="path116" />
			<circle
   class="st3"
   cx="-1442.4"
   cy="-1488.7"
   id="ellipse118"
   r="10.5" />
			<path
   class="st3"
   d="m -1164.9,-1488.7 c 0,5.8 -4.7,10.5 -10.5,10.5 -5.8,0 -10.5,-4.7 -10.5,-10.5 0,-5.8 4.7,-10.5 10.5,-10.5 5.8,0 10.5,4.7 10.5,10.5 z"
   id="path120" />
		</g>
		<g
   class="st4"
   id="g128">
			<path
   class="st3"
   d="m -1662.9,-1760.7 h 4.5 c 2.7,0 5.3,0.6 7.7,1.5 -3.9,-1.8 -8.2,-2.2 -12.2,-1.5 z"
   id="path124" />
			<path
   class="st3"
   d="m -1418.2,-1602 c -2.9,5 -9.3,6.8 -14.3,3.9 -5,-2.9 -6.7,-9.3 -3.9,-14.3 2.9,-5 9.3,-6.7 14.3,-3.9 5.1,2.9 6.8,9.3 3.9,14.3 z"
   id="path126" />
		</g>
		<rect
   x="-1821.8"
   y="-1796"
   class="st2"
   width="39.799999"
   height="32"
   id="rect130" />
		
			<rect
   x="-1665.7"
   y="-1797.6"
   transform="matrix(0.2434,-0.9699,0.9699,0.2434,476.1191,-2945.0935)"
   class="st2"
   width="32"
   height="39.799999"
   id="rect132" />
		
			<rect
   x="-1544.8"
   y="-1730.8"
   transform="matrix(0.4986,-0.8668,0.8668,0.4986,716.5236,-2183.0339)"
   class="st2"
   width="32"
   height="39.799999"
   id="rect134" />
		
			<rect
   x="-1417.8"
   y="-1656.8"
   transform="matrix(0.707,-0.7072,0.7072,0.707,746.8965,-1470.9944)"
   class="st2"
   width="32"
   height="39.799999"
   id="rect136" />
		<polygon
   class="st2"
   points="-1321,-1511.2 -1360.8,-1511.3 -1360.7,-1543.3 -1320.9,-1543.2 "
   id="polygon138" />
		<polygon
   class="st2"
   points="-1205.9,-1511.2 -1245.7,-1511.3 -1245.6,-1543.3 -1205.8,-1543.2 "
   id="polygon140" />
		<rect
   x="-1922.5"
   y="-1827.6"
   class="st2"
   width="39.799999"
   height="32"
   id="rect142" />
		<g
   id="g146">
			<path
   class="st3"
   d="m -1441.9,-1272.9 v 214.3 h -18.7 c -10.3,0 -18.8,-8.4 -18.8,-18.7 v -195.6 c 0,-12.1 -4.8,-23.5 -13.4,-32.1 -8.6,-8.6 -20,-13.4 -32,-13.4 h -0.1 l -310.5,0.6 h -21.4 l -55.2,0.1 h -0.2 c -22,0 -42.8,-8.6 -58.5,-24.3 -15.7,-15.7 -24.4,-36.5 -24.4,-58.5 v -378.4 c 0,-25.1 -20.4,-45.5 -45.5,-45.5 h -113.3 v -37.5 h 113.3 c 45.8,0 83,37.2 83,83 v 378.4 c 0,12 4.8,23.4 13.4,32.1 8.6,8.5 20,13.3 32,13.3 0.1,0 0.1,0 0.1,0 l 55.2,-0.1 h 21.4 l 123.9,-0.2 h 19.9 l 20.9,-0.1 h 28.4 l 77,-0.2 h 28.4 11.9 0.2 c 22.1,0 42.8,8.6 58.5,24.3 15.8,15.6 24.5,36.4 24.5,58.5 z"
   id="path144" />
		</g>
		<g
   id="g150">
			<path
   class="st3"
   d="m -1396.4,-2088 v 28.7 c 0,44.6 -37.2,81 -83,81 h -182.4 c -7,0 -13.7,1.6 -19.7,4.5 -3.7,1.7 -7,4 -10.1,6.6 -9.7,8.3 -15.8,20.6 -15.8,34.4 v 212.9 c -0.1,45.8 -37.3,82.9 -83,82.9 h -186 c -10.3,0 -18.8,-8.4 -18.8,-18.8 0,-10.3 8.4,-18.7 18.8,-18.7 h 186 c 25,0 45.4,-20.4 45.5,-45.4 v -212.9 c 0,-20.1 7.1,-38.5 19,-52.8 3,-3.7 6.4,-7.1 10.1,-10.2 6,-5.1 12.7,-9.4 19.9,-12.7 4.5,-2.1 9.3,-3.7 14.3,-4.9 6.3,-1.6 12.9,-2.4 19.7,-2.4 h 182.4 c 25.1,0 45.5,-19.5 45.5,-43.5 v -28.7 z"
   id="path148" />
		</g>
		<g
   id="g154">
			<path
   class="st3"
   d="m -855,-1551.4 0.8,208.4 v 0.8 c 0,1.5 2.1,20.2 -20.3,42.6 -16.3,16.3 -37.5,28.5 -62.5,28.5 h -253.7 c -4.1,0 -8,0.5 -11.8,1.5 -1.8,0.5 -3.5,1 -5.2,1.8 h -0.1 c -11.6,4.7 -20.8,14.1 -25.3,25.8 -0.7,1.7 -1.2,3.4 -1.6,5.2 -0.6,2.3 -1,4.8 -1.2,7.3 -0.1,1.3 -0.2,2.6 -0.2,3.9 v 84.1 c 0,25 -11.1,47.4 -28.6,62.6 -3.9,3.5 -8.2,6.5 -12.7,9.1 -12,7 -25.9,11.1 -40.8,11.3 -0.3,0 -0.6,0 -0.9,0 h -143.6 c -7.7,0 -14.3,-4.6 -17.2,-11.3 -1,-2.2 -1.5,-4.7 -1.6,-7.2 v -0.2 c 0,-10.4 8.4,-18.8 18.8,-18.8 h 143.6 c 0.3,0 0.6,0 0.9,0 9.8,-0.2 18.8,-3.5 26.1,-8.9 11.2,-8.3 18.5,-21.6 18.5,-36.6 v -84.1 c 0,-1.3 0,-2.6 0.1,-3.9 0.1,-2.4 0.3,-4.9 0.7,-7.3 0.2,-1.7 0.5,-3.5 0.8,-5.2 1.9,-9.2 5.3,-17.9 9.9,-25.8 v 0 c 3.4,-5.7 7.5,-11.1 12.2,-15.8 10.2,-10.5 23.2,-18.3 37.7,-22.2 2.4,-0.6 4.9,-1.2 7.4,-1.6 4.6,-0.8 9.3,-1.2 14.1,-1.2 H -937 c 11.7,0 22.4,-4.4 30.4,-11.7 9.3,-8.3 15.1,-20.4 15.1,-33.8 v -143.4 c 0,-21.1 23.5,-39.2 36.5,-53.9 z"
   id="path152" />
		</g>
		<g
   id="g158">
			<path
   class="st3"
   d="M -891.7,-1342.3 V -1786 c 0,-25.1 -20.4,-45.5 -45.5,-45.5 h -30.7 c -45.8,0 -83,-37.3 -83,-83 V -2088 h 37.5 v 173.5 c 0,23.2 17.4,42.4 39.9,45.2 1.9,0.2 3.7,0.4 5.6,0.4 h 30.7 c 2.8,0 5.6,0.1 8.4,0.4 2.4,0.2 4.7,0.6 7,1 38.4,7.2 67.5,41 67.5,81.5 v 443.7"
   id="path156" />
		</g>
		<g
   id="g162">
			<path
   class="st3"
   d="m -1049.9,-1575.4 v 285.5 c 0,10.4 -8.4,18.8 -18.8,18.8 -10.3,0 -18.7,-8.3 -18.7,-18.8 v -285.5 c 0,-25.1 -20.4,-45.5 -45.5,-45.5 h -13.9 c -42.1,0 -77,-31.5 -82.3,-72.3 -0.5,-3.5 -0.7,-7.1 -0.7,-10.7 V -2088 h 37.5 v 384.1 c 0,25.1 20.4,45.5 45.5,45.5 h 13.9 c 43.5,0 79.2,33.6 82.7,76.2 0.2,2.2 0.3,4.5 0.3,6.8 z"
   id="path160" />
		</g>
		<g
   class="st6"
   id="g166">
			<path
   class="st3"
   d="m -1690.9,-1418.9 v 59.5 c 0,1.4 -0.3,2.7 -0.7,3.9 -1.5,4 -5.4,6.9 -9.9,6.9 -4.5,0 -8.4,-2.8 -10,-6.8 -0.5,-1.2 -0.8,-2.5 -0.8,-3.9 v -59.5 c 0,-14.9 -12,-27 -26.8,-27 h -69.6 c -26.5,0 -48.2,-21.9 -48.2,-48.7 V -1954 c 0,-12.5 -8.4,-23.1 -19.9,-26.1 -2.2,-0.6 -4.5,-0.9 -6.9,-0.9 h -102.9 c -26.6,0 -48.2,-21.9 -48.2,-48.7 v -58.3 h 21.4 v 58.3 c 0,14.9 12,27 26.8,27 h 102.9 c 2.3,0 4.7,0.2 6.9,0.5 23.3,3.4 41.3,23.7 41.3,48.2 v 459.5 c 0,14.9 12,27 26.7,27 h 69.6 c 26.7,0 48.3,21.8 48.3,48.6 z"
   id="path164" />
		</g>
		<g
   class="st4"
   id="g170">
			<path
   class="st3"
   d="m -1209,-1703.9 c 0,5.9 -4.8,10.7 -10.7,10.7 H -1375 c -26.5,0 -48.2,-21.6 -48.2,-48.2 v -69.6 c 0,-14.8 -12,-26.7 -26.8,-26.7 h -117.8 c -26.6,0 -48.2,-21.6 -48.2,-48.2 V -2088 h 21.4 v 202.1 c 0,14.8 12,26.8 26.8,26.8 h 117.8 c 26.5,0 48.2,21.6 48.2,48.2 v 69.6 c 0,14.8 12,26.7 26.7,26.7 h 155.3 c 6,0 10.8,4.8 10.8,10.7 z"
   id="path168" />
		</g>
		<g
   id="g174">
			<path
   class="st3"
   d="m -1174.5,-1271.1 h -14 c -4.1,0 -8,0.5 -11.8,1.5 -5.4,-8.5 -14.7,-14 -25.2,-14 h -78 c -29.8,0 -54,-24.7 -54,-55.1 v -24.5 c 0,-16.9 -13.4,-30.6 -30,-30.6 h -78 c -29.8,0 -54,-24.7 -54,-55.1 v -529.4 h 24 v 529.4 c 0,16.9 13.5,30.6 30,30.6 h 78 c 29.8,0 54,24.7 54,55.1 v 24.5 c 0,16.9 13.4,30.6 30,30.6 h 78 c 5.4,0 10.6,0.8 15.5,2.4 16.6,4.9 29.8,18 35.5,34.6 z"
   id="path172" />
		</g>
		<g
   id="g178">
			<path
   class="st3"
   d="m -1449.9,-1173.9 c 0,5.9 -4.8,10.7 -10.7,10.7 h -348 c -26.6,0 -48.2,-21.6 -48.2,-48.2 v -143.9 l 21.4,-0.1 v 143.9 c 0,14.7 12,26.8 26.8,26.8 h 348 c 5.8,0.1 10.7,4.9 10.7,10.8 z"
   id="path176" />
		</g>
		<g
   class="st4"
   id="g182">
			<path
   class="st3"
   d="m -1271.5,-1163.8 c 1.1,0.4 2.3,0.6 3.6,0.6 h 33.9 257.4 c 26.6,0 48.2,-21.6 48.2,-48.2 v -58.9 c 0,-0.3 0,-0.6 -0.1,-0.9 -0.4,-5.5 -5.1,-9.8 -10.7,-9.8 -5.6,0 -10.2,4.3 -10.7,9.8 -0.1,0.3 -0.1,0.6 -0.1,0.9 v 58.9 c 0,14.7 -12,26.8 -26.8,26.8 h -257.2 -33.9 c -1.3,0 -2.5,0.2 -3.6,0.6 z"
   id="path180" />
		</g>
		<g
   class="st7"
   id="g194">
			<path
   class="st3"
   d="m -907.2,-1791.5 c -1.3,-2.6 -2.8,-5.1 -4.6,-7.5 -1.6,-2.3 -3.5,-4.5 -5.5,-6.5 -5.8,-5.8 -12.6,-10 -19.9,-12.6 -3.3,-1.2 -6.7,-2.1 -10.1,-2.6 -11.4,-1.8 -23.4,0.2 -33.8,5.8 -3,1.6 -5.9,3.6 -8.7,5.9 -1.3,1.1 -2.6,2.3 -3.8,3.5 -7.3,7.3 -12.1,16.2 -14.4,25.7 -4.1,17.6 0.6,36.9 14.4,50.6 10.8,10.9 25.1,16.1 39.4,15.8 11.1,-0.2 22.1,-3.9 31.4,-11 0.6,-0.4 1.1,-0.8 1.6,-1.3 1.3,-1.1 2.6,-2.3 3.8,-3.5 0.6,-0.6 1.1,-1.1 1.7,-1.7 2.4,-2.6 4.4,-5.3 6.2,-8.2 0.2,-0.3 0.3,-0.5 0.5,-0.8 2.3,-3.8 4,-7.9 5.3,-12 3.7,-13.2 2.6,-27.3 -3.5,-39.6 z m -13.2,50.5 c -0.5,0.7 -1.1,1.4 -1.7,2.1 -0.7,0.8 -1.5,1.7 -2.3,2.5 -0.9,0.9 -1.9,1.8 -2.8,2.6 -6.4,5.3 -14,8.6 -21.8,9.8 -11.8,1.8 -24.2,-1.3 -34,-9.1 -1.3,-1 -2.5,-2.1 -3.7,-3.3 -1.2,-1.2 -2.3,-2.4 -3.3,-3.7 -8.5,-10.7 -11.4,-24.6 -8.4,-37.3 1.5,-6.6 4.5,-12.9 9.1,-18.4 0.8,-1 1.7,-1.9 2.6,-2.8 0.5,-0.5 1,-1 1.6,-1.5 1,-0.9 2,-1.8 3,-2.5 1.6,-1.2 3.2,-2.2 4.8,-3.2 9,-5.1 19.3,-6.8 29.3,-5.1 3.2,0.6 6.3,1.4 9.4,2.7 3.7,1.5 7.2,3.6 10.5,6.2 1.3,1 2.5,2.1 3.7,3.3 1.2,1.2 2.3,2.4 3.3,3.7 1.7,2.2 3.2,4.4 4.4,6.8 2.3,4.3 3.9,9 4.6,13.7 1,6.6 0.6,13.3 -1.4,19.7 -1.4,5 -3.8,9.6 -6.9,13.8 z"
   id="path184" />
			
				<rect
   x="-1003"
   y="-1773.1"
   transform="matrix(0.7071,-0.7071,0.7071,0.7071,970.6046,-1193.0334)"
   class="st3"
   width="96.400002"
   height="9.8999996"
   id="rect186" />
			
				<rect
   x="-959.70001"
   y="-1816.6"
   transform="matrix(0.7071,-0.7071,0.7071,0.7071,970.807,-1193.047)"
   class="st3"
   width="9.8999996"
   height="96.400002"
   id="rect188" />
			<path
   class="st3"
   d="m -946.1,-1778 c 5.1,5.1 5.1,13.3 0,18.4 -5.1,5.1 -13.3,5.1 -18.4,0 -5.1,-5.1 -5.1,-13.3 0,-18.4 5.1,-5.1 13.3,-5.1 18.4,0 z"
   id="path190" />
			
				<circle
   transform="matrix(0.7072,-0.7071,0.7071,0.7072,970.8789,-1193.5928)"
   class="st3"
   cx="-955.5"
   cy="-1768.9"
   id="ellipse192"
   r="8.1999998" />
		</g>
		<g
   id="g206">
			<rect
   x="-1717.7"
   y="-1190.3"
   class="st3"
   width="67.400002"
   height="32.700001"
   id="rect196" />
			<path
   class="st3"
   d="m -1660.8,-1175.6 c 0,12.6 -10.4,22.9 -23.2,22.9 -12.8,0 -23.2,-10.2 -23.2,-22.9 0,-12.6 10.4,-22.9 23.2,-22.9 12.8,0 23.2,10.2 23.2,22.9 z"
   id="path198" />
			<rect
   x="-1695.5"
   y="-1201.4"
   class="st3"
   width="23"
   height="11.1"
   id="rect200" />
			<path
   class="st3"
   d="m -1665.4,-1208.3 c 0,1.7 -1.4,3.1 -3.1,3.1 h -31.3 c -1.7,0 -3.1,-1.4 -3.1,-3.1 v 0 c 0,-1.7 1.4,-3.1 3.1,-3.1 h 31.3 c 1.7,0 3.1,1.4 3.1,3.1 z"
   id="path202" />
			<path
   class="st3"
   d="m -1680.3,-1200.5 c 0,2.1 -1.7,3.8 -3.9,3.8 v 0 c -2.1,0 -3.9,-1.7 -3.9,-3.8 v -10.3 c 0,-2.1 1.7,-3.8 3.9,-3.8 v 0 c 2.1,0 3.9,1.7 3.9,3.8 z"
   id="path204" />
		</g>
		<g
   id="g218">
			<rect
   x="-1653.6"
   y="-2021.8"
   class="st3"
   width="99.400002"
   height="48.900002"
   id="rect208" />
			<path
   class="st3"
   d="m -1569.7,-1999.9 c 0,18.9 -15.3,34.2 -34.2,34.2 -18.9,0 -34.2,-15.3 -34.2,-34.2 0,-18.9 15.3,-34.2 34.2,-34.2 18.9,0 34.2,15.4 34.2,34.2 z"
   id="path210" />
			<rect
   x="-1620.8"
   y="-2038.4"
   class="st3"
   width="34"
   height="16.6"
   id="rect212" />
			<path
   class="st3"
   d="m -1576.4,-2048.6 c 0,2.6 -2.1,4.6 -4.6,4.6 h -46.2 c -2.6,0 -4.6,-2.1 -4.6,-4.6 v 0 c 0,-2.6 2.1,-4.6 4.6,-4.6 h 46.2 c 2.6,-0.1 4.6,2 4.6,4.6 z"
   id="path214" />
			<path
   class="st3"
   d="m -1598.4,-2037.1 c 0,3.2 -2.6,5.7 -5.7,5.7 v 0 c -3.2,0 -5.7,-2.6 -5.7,-5.7 v -15.4 c 0,-3.2 2.6,-5.7 5.7,-5.7 v 0 c 3.2,0 5.7,2.6 5.7,5.7 z"
   id="path216" />
		</g>
		<g
   class="st8"
   id="g222">
			<path
   class="st3"
   d="m -1980,-1463 c 0,5.8 -4.8,10.7 -10.7,10.7 h -58.9 c -26.5,0 -48.2,-21.6 -48.2,-48.2 v -117.8 c 0,-14.8 -12,-26.8 -26.8,-26.8 h -25.7 v 227.8 c 0,8.6 5.4,16.1 11.5,16.1 18.1,0 32.9,16.8 32.9,37.5 v 36.5 h -21.4 v -36.5 c 0,-8.6 -5.4,-16.1 -11.5,-16.1 -5.5,0 -10.6,-1.5 -15.2,-4.2 v -282.4 h 29.4 c 26.5,0 48.2,21.6 48.2,48.2 v 117.8 c 0,14.8 12,26.8 26.8,26.8 h 58.9 c 5.9,-0.1 10.7,4.7 10.7,10.6 z"
   id="path220" />
		</g>
		<g
   id="g234">
			<rect
   x="-1412.5"
   y="-1101.3"
   class="st3"
   width="96.300003"
   height="47.299999"
   id="rect224" />
			<path
   class="st3"
   d="m -1331.1,-1080 c 0,18.3 -14.8,33.1 -33.1,33.1 -18.3,0 -33.1,-14.8 -33.1,-33.1 0,-18.3 14.8,-33.1 33.1,-33.1 18.2,0 33.1,14.8 33.1,33.1 z"
   id="path226" />
			<rect
   x="-1380.7"
   y="-1117.4"
   class="st3"
   width="32.900002"
   height="16.1"
   id="rect228" />
			<path
   class="st3"
   d="m -1337.7,-1127.3 c 0,2.5 -2,4.5 -4.5,4.5 h -44.7 c -2.5,0 -4.5,-2 -4.5,-4.5 v 0 c 0,-2.5 2,-4.5 4.5,-4.5 h 44.7 c 2.5,0 4.5,2.1 4.5,4.5 z"
   id="path230" />
			<path
   class="st3"
   d="m -1359,-1116.1 c 0,3.1 -2.5,5.6 -5.6,5.6 v 0 c -3.1,0 -5.6,-2.5 -5.6,-5.6 v -14.9 c 0,-3.1 2.5,-5.6 5.6,-5.6 v 0 c 3.1,0 5.6,2.5 5.6,5.6 z"
   id="path232" />
		</g>
		<g
   id="g260">
			<rect
   x="-973.59998"
   y="-2088"
   class="st3"
   width="7"
   height="221.39999"
   id="rect236" />
			<rect
   x="-928.79999"
   y="-2088"
   class="st3"
   width="7"
   height="221.39999"
   id="rect238" />
			<rect
   x="-969"
   y="-2077.3999"
   class="st3"
   width="42"
   height="2.7"
   id="rect240" />
			<rect
   x="-969"
   y="-2055.6001"
   class="st3"
   width="42"
   height="2.7"
   id="rect242" />
			<rect
   x="-969"
   y="-2033.8"
   class="st3"
   width="42"
   height="2.7"
   id="rect244" />
			<rect
   x="-969"
   y="-2012"
   class="st3"
   width="42"
   height="2.7"
   id="rect246" />
			<rect
   x="-969"
   y="-1990.2"
   class="st3"
   width="42"
   height="2.7"
   id="rect248" />
			<rect
   x="-969"
   y="-1968.4"
   class="st3"
   width="42"
   height="2.7"
   id="rect250" />
			<rect
   x="-969"
   y="-1946.7"
   class="st3"
   width="42"
   height="2.7"
   id="rect252" />
			<rect
   x="-969"
   y="-1924.9"
   class="st3"
   width="42"
   height="2.7"
   id="rect254" />
			<rect
   x="-969"
   y="-1903.1"
   class="st3"
   width="42"
   height="2.7"
   id="rect256" />
			<rect
   x="-969"
   y="-1881.3"
   class="st3"
   width="42"
   height="2.7"
   id="rect258" />
		</g>
		<g
   id="g272">
			<polygon
   class="st3"
   points="-1116,-1797.1 -1113.1,-1804.3 -1116,-1839.3 -1120,-1835.3 -1123.2,-1804.4 -1120,-1797.1 "
   id="polygon262" />
			<polygon
   class="st3"
   points="-1119.2,-1799 -1126.9,-1797.9 -1155.8,-1777.9 -1150.3,-1776.4 -1121.9,-1789.2 -1117.2,-1795.5 "
   id="polygon264" />
			<polygon
   class="st3"
   points="-1119.2,-1795.3 -1114.4,-1789.2 -1082.7,-1774.2 -1084.1,-1779.7 -1109.4,-1797.9 -1117.2,-1798.7 "
   id="polygon266" />
			<path
   class="st3"
   d="m -1123.6,-1797.1 c 0,3 2.4,5.5 5.5,5.5 3,0 5.5,-2.5 5.5,-5.5 0,-3 -2.5,-5.5 -5.5,-5.5 -3.1,0 -5.5,2.4 -5.5,5.5 z"
   id="path268" />
			<path
   class="st3"
   d="m -1121.1,-1797.1 c 0,1.6 1.3,2.9 2.9,2.9 1.6,0 2.9,-1.3 2.9,-2.9 0,-1.6 -1.3,-2.9 -2.9,-2.9 -1.6,0 -2.9,1.3 -2.9,2.9 z"
   id="path270" />
		</g>
		<path
   class="st3"
   d="m -1118,-1847.8 h -75.2 v 100.4 h 75.2 c 27.2,0 49.3,-21.5 50.2,-48.5 0,-0.6 0,-1.1 0,-1.7 0,-27.7 -22.5,-50.2 -50.2,-50.2 z m 0,95 c -24.7,0 -44.8,-20.1 -44.8,-44.8 0,-8 2.1,-15.6 5.8,-22.1 7.7,-13.6 22.3,-22.7 39,-22.7 24.7,0 44.9,20.1 44.9,44.8 v 0.3 c -0.2,24.6 -20.3,44.5 -44.9,44.5 z"
   id="path274" />
		<g
   id="g286">
			<polygon
   class="st3"
   points="-1542.6,-1241 -1537.3,-1243.1 -1511.6,-1241 -1514.6,-1238.1 -1537.3,-1235.8 -1542.6,-1238.1 "
   id="polygon276" />
			<polygon
   class="st3"
   points="-1541.2,-1238.7 -1542.1,-1233 -1556.8,-1211.8 -1557.8,-1215.8 -1548.5,-1236.7 -1543.8,-1240.1 "
   id="polygon278" />
			<polygon
   class="st3"
   points="-1544,-1238.7 -1548.4,-1242.2 -1559.5,-1265.5 -1555.5,-1264.4 -1542.1,-1245.9 -1541.4,-1240.1 "
   id="polygon280" />
			<path
   class="st3"
   d="m -1542.6,-1235.4 c -2.2,0 -4,-1.8 -4,-4 0,-2.2 1.8,-4 4,-4 2.2,0 4,1.8 4,4 0,2.2 -1.8,4 -4,4 z"
   id="path282" />
			<circle
   class="st3"
   cx="-1542.6"
   cy="-1239.4"
   r="2.0999999"
   id="circle284" />
		</g>
		<path
   class="st3"
   d="m -1505.4,-1242 c -0.5,-7.7 -3.4,-14.8 -8,-20.5 -3.3,-4.2 -7.5,-7.6 -12.3,-10 -4.3,-2.2 -9.1,-3.5 -14.2,-3.8 -0.8,0 -1.5,-0.1 -2.3,-0.1 -5.4,0 -10.5,1.1 -15.1,3.2 -3.2,1.4 -6.2,3.3 -8.8,5.6 v 0 c -5,4.3 -8.9,9.9 -11,16.2 -0.6,1.8 -1.1,3.7 -1.4,5.6 -0.2,1.2 -0.4,2.5 -0.5,3.8 0,0.8 -0.1,1.6 -0.1,2.4 v 55.3 h 73.8 v -55.3 c -0.1,-0.8 -0.1,-1.6 -0.1,-2.4 z m -8,18.4 c -2.9,5.2 -7.2,9.6 -12.3,12.6 -1.2,0.7 -2.5,1.3 -3.8,1.9 -1.6,0.6 -3.2,1.2 -4.9,1.6 v 0 c -2.5,0.6 -5.1,0.9 -7.8,0.9 -2.8,0 -5.5,-0.4 -8.1,-1 -3.7,-0.9 -7.1,-2.5 -10.1,-4.5 -2.1,-1.3 -3.9,-2.9 -5.6,-4.7 -2,-2.1 -3.7,-4.4 -5.1,-7 -1,-1.8 -1.8,-3.7 -2.4,-5.6 -0.2,-0.5 -0.3,-0.9 -0.4,-1.4 -0.6,-1.9 -0.9,-3.9 -1,-5.9 -0.1,-0.9 -0.1,-1.8 -0.1,-2.7 0,-0.8 0,-1.6 0.1,-2.4 0.1,-1.3 0.3,-2.5 0.5,-3.8 0.4,-1.9 0.9,-3.8 1.6,-5.6 1.6,-4 3.9,-7.7 6.9,-10.8 1.7,-1.8 3.6,-3.4 5.6,-4.8 0.3,-0.2 0.7,-0.5 1,-0.7 5,-3.1 10.9,-4.9 17.3,-4.9 6,0 11.7,1.6 16.5,4.5 5.2,3 9.4,7.3 12.3,12.6 2.3,4 3.7,8.6 4,13.5 0.1,0.8 0.1,1.6 0.1,2.4 0,0.9 0,1.8 -0.1,2.7 -0.6,4.6 -2,9.1 -4.2,13.1 z"
   id="path288" />
		<polygon
   class="st3"
   points="-1876.7,-2088 -1876.7,-1865.9 -1862.8,-1848 -1942.4,-1848 -1928.6,-1865.9 -1928.6,-2088 "
   id="polygon290" />
		<path
   class="st3"
   d="m -1916.6,-1670.8 c 0,5.1 -4.1,9.2 -9.2,9.2 v 0 c -5.1,0 -9.2,-4.1 -9.2,-9.2 v -69.6 c 0,-5.1 4.1,-9.2 9.2,-9.2 v 0 c 5.1,0 9.2,4.1 9.2,9.2 z"
   id="path292" />
		<path
   class="st3"
   d="m -1433.2,-1418.3 c 0,5.1 -4.1,9.2 -9.2,9.2 v 0 c -5.1,0 -9.2,-4.1 -9.2,-9.2 v -69.6 c 0,-5.1 4.1,-9.2 9.2,-9.2 v 0 c 5.1,0 9.2,4.1 9.2,9.2 z"
   id="path294" />
		<rect
   x="-1229.7"
   y="-1566.8"
   class="st3"
   width="142.39999"
   height="101.5"
   id="rect296" />
		<rect
   x="-1196.1"
   y="-1552"
   class="st3"
   width="32.299999"
   height="32.299999"
   id="rect298" />
		<rect
   x="-1152.4"
   y="-1552"
   class="st3"
   width="32.299999"
   height="32.299999"
   id="rect300" />
		<polygon
   class="st3"
   points="-1295.2,-1928.8 -1299.7,-1899.1 -1320,-1899.1 -1324.5,-1928.8 "
   id="polygon302" />
		<path
   class="st3"
   d="m -1296.1,-1868.9 c -0.1,0.1 -0.1,0.2 -0.2,0.3 -3.1,4.1 -8.6,7.6 -14.2,7.6 -9.2,0 -16.6,-6.7 -16.8,-15.8 0,-7.5 3.3,-11.5 6.6,-13.9 3.3,-2.4 6.6,-3.2 6.6,-4.6 v -3.9 h 8.4 v 6.5 c 0,1.4 -0.5,2.7 -1.2,3.6 -0.7,1 -1.8,1.6 -3,1.6 -5,0 -9,4 -9,9 0,5 4,9 9,9 5,0 9,-4 9,-9 v -0.5 c 0,-3.3 1.1,-4.2 3,-4.2 1.5,0.1 6.5,5.3 1.8,14.3 z"
   id="path304" />
		<g
   id="g308">
			<path
   class="st3"
   d="m -1285.5,-2014.1 c -0.5,-0.4 -1.2,-0.7 -2,-0.7 h -44.6 c -0.8,0 -1.5,0.3 -2,0.7 -0.5,0.4 -0.7,0.9 -0.6,1.5 l 1.4,7.1 6.3,31.4 8.5,42 0.7,3.3 2,10.1 3.4,16.6 c 0.2,0.9 1.3,1.6 2.6,1.6 1.3,0 2.5,-0.7 2.7,-1.6 l 5.4,-26.7 7.6,-37.4 7.9,-39.3 1.4,-7.1 c 0,-0.6 -0.2,-1.1 -0.7,-1.5 z m -13.9,46.5 -7.8,38.8 -2.6,13.1 -2.6,-13.1 -9,-44.6 -6,-29.9 -1.6,-7.7 h 38.5 l -1.6,7.7 z"
   id="path306" />
		</g>
		<path
   class="st3"
   d="m -1279.1,-2018.8 c 0,8.7 -7,15.7 -15.7,15.7 h -30.1 c -8.7,0 -15.7,-7 -15.7,-15.7 v 0 c 0,-8.7 7,-15.7 15.7,-15.7 h 30.1 c 8.7,0 15.7,7 15.7,15.7 z"
   id="path310" />
		<rect
   x="-1334.8"
   y="-2088"
   class="st3"
   width="5.8000002"
   height="69.199997"
   id="rect312" />
		<rect
   x="-1292"
   y="-2088"
   class="st3"
   width="5.8000002"
   height="69.199997"
   id="rect314" />
		<rect
   x="-1341.1"
   y="-1841.8"
   class="st3"
   width="60.900002"
   height="60.900002"
   id="rect316" />
		<g
   id="g320">
			<path
   class="st3"
   d="m -1286.9,-1837.3 c -0.8,0 -1.6,-0.4 -2.2,-1.1 l -21.7,-29.6 -22,29.6 c -0.9,1.2 -2.6,1.4 -3.7,0.6 -1.2,-0.9 -1.4,-2.6 -0.6,-3.7 l 24.1,-32.6 c 0.5,-0.7 1.3,-0.9 2.2,-1.1 0.8,0 1.6,0.4 2.1,1.1 l 23.8,32.6 c 0.9,1.2 0.6,2.9 -0.6,3.7 -0.3,0.3 -0.8,0.5 -1.4,0.5 z"
   id="path318" />
		</g>
		<polygon
   class="st3"
   points="-1922.4,-1099.4 -1926.6,-1072.3 -1945.1,-1072.3 -1949.2,-1099.4 "
   id="polygon322" />
		<path
   class="st3"
   d="m -1923.3,-1044.8 c -0.1,0.1 -0.1,0.2 -0.2,0.3 -2.9,3.8 -7.9,7 -12.9,7 -8.4,0 -15.1,-6.1 -15.4,-14.4 0,-6.9 3,-10.5 6,-12.7 3,-2.2 6,-2.9 6,-4.2 v -3.5 h 7.7 v 6 c 0,1.3 -0.4,2.4 -1.1,3.3 -0.6,0.9 -1.6,1.5 -2.7,1.5 -4.6,0 -8.2,3.7 -8.2,8.2 0,4.6 3.7,8.2 8.2,8.2 4.5,0 8.2,-3.7 8.2,-8.2 v -0.4 c 0,-3 1,-3.9 2.7,-3.9 1.5,-0.1 6,4.7 1.7,12.8 z"
   id="path324" />
		<g
   id="g328">
			<path
   class="st3"
   d="m -1919.7,-1167.4 -2.3,11.7 h 4.9 l 2.8,-13.8 c -1.7,1.1 -3.5,1.8 -5.4,2.1 z m 6.1,-9.8 c -0.5,-0.4 -1.1,-0.6 -1.9,-0.6 h -40.7 c -0.7,0 -1.4,0.2 -1.8,0.6 -0.5,0.4 -0.7,0.8 -0.6,1.3 l 1.3,6.5 2.8,13.8 11.3,56.3 4.3,21.4 0.6,3 c 0.2,0.8 1.2,1.5 2.4,1.5 1.2,0 2.3,-0.6 2.4,-1.5 l 0.6,-3 4.3,-21.4 11.3,-56.3 2.8,-13.8 1.3,-6.5 c 0.2,-0.5 0,-0.9 -0.4,-1.3 z m -8.5,21.5 -11.3,56.3 -2.4,11.9 -2.4,-11.9 -11.3,-56.3 -2.3,-11.7 -1.4,-7 h 35.1 l -1.4,7 z"
   id="path326" />
		</g>
		<path
   class="st3"
   d="m -1907.7,-1181.5 c 0,7.9 -6.4,14.3 -14.3,14.3 h -27.5 c -7.9,0 -14.3,-6.4 -14.3,-14.3 v 0 c 0,-7.9 6.4,-14.3 14.3,-14.3 h 27.5 c 7.8,0 14.3,6.4 14.3,14.3 z"
   id="path330" />
		<rect
   x="-1958.6"
   y="-1253.6"
   class="st3"
   width="5.3000002"
   height="72.099998"
   id="rect332" />
		<rect
   x="-1919.5"
   y="-1253.6"
   class="st3"
   width="5.3000002"
   height="72.099998"
   id="rect334" />
		<g
   id="g342">
			<rect
   x="-1965.2"
   y="-1505.6"
   class="st3"
   width="33.400002"
   height="12.7"
   id="rect336" />
			<path
   class="st3"
   d="m -1890.2,-1499.3 c 0,14.2 -11.5,25.7 -25.5,25.7 -14.2,0 -25.7,-11.5 -25.7,-25.7 0,-7.2 2.8,-13.5 7.7,-18.1 4.4,-4.7 11,-7.7 18.1,-7.7 13.9,0.1 25.4,11.5 25.4,25.8 z"
   id="path338" />
			<path
   class="st3"
   d="m -1895.7,-1499.3 c 0,11.2 -9.1,20.2 -20,20.2 -11.2,0 -20.3,-9 -20.3,-20.2 0,-5.8 2.2,-10.7 6.1,-14.3 l 14.2,14.3 v -20.3 c 11,0 20,9.1 20,20.3 z"
   id="path340" />
		</g>
		<g
   id="g350">
			<rect
   x="-1060.5"
   y="-1582.3"
   class="st3"
   width="33.400002"
   height="12.7"
   id="rect344" />
			<path
   class="st3"
   d="m -985.5,-1575.9 c 0,14.2 -11.5,25.7 -25.5,25.7 -14.2,0 -25.7,-11.5 -25.7,-25.7 0,-7.2 2.8,-13.5 7.7,-18.1 4.4,-4.7 11,-7.7 18.1,-7.7 13.9,0 25.4,11.5 25.4,25.8 z"
   id="path346" />
			<path
   class="st3"
   d="m -990.9,-1575.9 c 0,11.2 -9.1,20.2 -20,20.2 -11.2,0 -20.3,-9 -20.3,-20.2 0,-5.8 2.2,-10.7 6.1,-14.3 l 14.2,14.3 v -20.3 c 10.9,0 20,9 20,20.3 z"
   id="path348" />
		</g>
		<g
   id="g358">
			<path
   class="st3"
   d="m -1385.7,-1250.4 c 0,12.6 -10.3,22.8 -22.9,22.8 -6.3,0 -11.9,-2.7 -16,-6.6 -3.9,-4.4 -6.6,-10 -6.6,-16.3 0,-12.7 10.2,-22.9 22.6,-22.9 12.7,0.1 22.9,10.3 22.9,23 z"
   id="path352" />
			<path
   class="st3"
   d="m -1390.6,-1250.4 c 0,9.9 -8,17.9 -18,17.9 -4.9,0 -9.2,-1.9 -12.6,-5.3 l 12.6,-12.6 v -18 c 10,0 18,8 18,18 z"
   id="path354" />
			<rect
   x="-1442.6"
   y="-1255.7"
   class="st3"
   width="21.4"
   height="11.6"
   id="rect356" />
		</g>
		<g
   id="g366">
			<path
   class="st3"
   d="m -1799.8,-1899.1 c 0,12.6 10.3,22.8 22.9,22.8 6.3,0 11.9,-2.7 16,-6.6 3.9,-4.4 6.6,-10 6.6,-16.3 0,-12.7 -10.2,-22.9 -22.6,-22.9 -12.7,0.1 -22.9,10.3 -22.9,23 z"
   id="path360" />
			<path
   class="st3"
   d="m -1794.9,-1899.1 c 0,9.9 8,17.9 18,17.9 4.9,0 9.2,-1.9 12.6,-5.3 l -12.6,-12.6 v -18 c -10,-0.1 -18,8 -18,18 z"
   id="path362" />
			<rect
   x="-1764.3"
   y="-1904.4"
   class="st3"
   width="21.4"
   height="11.6"
   id="rect364" />
		</g>
		<g
   id="g370">
			<path
   class="st3"
   d="m -1609.2,-980.5 h -37.5 v -18.3 c 0,-20.7 20,-37 45.5,-37 h 113.8 c 4.4,0 8,-3.7 8,-8 v -69.4 h 37.5 v 69.4 c 0,25.1 -20.4,45.5 -45.5,45.5 h -113.8 c -3.8,0 -6.6,1 -8,1.9 z"
   id="path368" />
		</g>
		<g
   id="g374">
			<path
   class="st3"
   d="m -1856.8,-1266.4 v 21.4 h -232.9 c -20.7,0 -37.5,-16.8 -37.5,-37.5 v -44.8 h 21.4 v 44.8 c 0,8.8 7.2,16.1 16.1,16.1 z"
   id="path372" />
		</g>
		<rect
   x="-2148.8999"
   y="-1327.2"
   class="st3"
   width="142.39999"
   height="101.5"
   id="rect376" />
		<rect
   x="-2115.3"
   y="-1312.4"
   class="st3"
   width="32.299999"
   height="32.299999"
   id="rect378" />
		<rect
   x="-2071.6001"
   y="-1312.4"
   class="st3"
   width="32.299999"
   height="32.299999"
   id="rect380" />
	</g>
	<g
   class="st1"
   id="g410">
		<g
   id="g408">
			<rect
   x="-858.20001"
   y="-292.39999"
   class="st3"
   width="7"
   height="221.39999"
   id="rect384" />
			<rect
   x="-813.5"
   y="-292.39999"
   class="st3"
   width="7"
   height="221.39999"
   id="rect386" />
			<rect
   x="-853.59998"
   y="-281.79999"
   class="st3"
   width="42"
   height="2.7"
   id="rect388" />
			<rect
   x="-853.59998"
   y="-260"
   class="st3"
   width="42"
   height="2.7"
   id="rect390" />
			<rect
   x="-853.59998"
   y="-238.2"
   class="st3"
   width="42"
   height="2.7"
   id="rect392" />
			<rect
   x="-853.59998"
   y="-216.39999"
   class="st3"
   width="42"
   height="2.7"
   id="rect394" />
			<rect
   x="-853.59998"
   y="-194.7"
   class="st3"
   width="42"
   height="2.7"
   id="rect396" />
			<rect
   x="-853.59998"
   y="-172.89999"
   class="st3"
   width="42"
   height="2.7"
   id="rect398" />
			<rect
   x="-853.59998"
   y="-151.10001"
   class="st3"
   width="42"
   height="2.7"
   id="rect400" />
			<rect
   x="-853.59998"
   y="-129.3"
   class="st3"
   width="42"
   height="2.7"
   id="rect402" />
			<rect
   x="-853.59998"
   y="-107.5"
   class="st3"
   width="42"
   height="2.7"
   id="rect404" />
			<rect
   x="-853.59998"
   y="-85.699997"
   class="st3"
   width="42"
   height="2.7"
   id="rect406" />
		</g>
	</g>
	<g
   class="st9"
   id="g516">
		<g
   id="g424">
			<path
   class="st3"
   d="m -107.9,-1391.4 c 0,10.7 -8.6,19.3 -19.3,19.3 h -37.2 c -10.7,0 -19.3,-8.6 -19.3,-19.3 v 0 c 0,-10.7 8.7,-19.3 19.3,-19.3 h 37.2 c 10.6,0 19.3,8.6 19.3,19.3 z"
   id="path412" />
			<rect
   x="-153.8"
   y="-1415.4"
   class="st3"
   width="17.299999"
   height="2.5999999"
   id="rect414" />
			<rect
   x="-151.3"
   y="-1412.8"
   class="st3"
   width="12.4"
   height="4.6999998"
   id="rect416" />
			<rect
   x="-180.10001"
   y="-1372.1"
   class="st3"
   width="68.5"
   height="2.9000001"
   id="rect418" />
			<path
   class="st3"
   d="m -180.1,-1413.3 v 41.2 2.9 39.4 h 14.5 v -83.5 z m 12.8,1.6 -1.1,1.3 v 0 l -4.4,5.6 -2.2,-2.8 -3.3,-4.1 z m -8.6,68.3 -2.2,-2.8 h 10.5 l -2.6,3.3 -2.6,3.3 z m 4.8,7.6 3.5,4.4 h -10.5 l 4.1,-5.2 1.2,-1.4 z m -7.5,-12.8 v -13 l 5.2,6.5 z m 5.8,-5.7 5.2,6.5 H -178 Z m 0.6,-0.7 5.2,-6.5 v 13 z m -0.6,-0.8 -5.4,-6.7 h 10.7 z m -5.2,-8.4 4,-5 1.2,-1.5 1.2,1.5 4,5 z m 5.2,-8 -2.7,-3.4 v 0 l -2.7,-3.4 h 10.7 l -4.3,5.4 z m -5.8,-9 v -13 l 5.2,6.5 z m 5.8,-5.8 5.1,6.4 h -10.2 z m 0.6,-0.7 5.2,-6.5 v 13 z m -0.6,-0.7 -5.4,-6.9 h 10.9 z m -5.1,-8.5 5,-6.4 5.1,6.4 z m -0.7,-13.6 2.8,3.5 2.4,3 -5.2,6.5 z m 0,32.6 3.2,4.1 1.4,1.8 0.5,0.7 -1.8,2.3 -3.4,4.2 v -13.1 z m 0,32.6 1.5,1.8 3.7,4.7 -1.5,1.9 -3.6,4.6 z m 11.5,13 -2.5,-3.1 -2.7,-3.4 3.1,-3.9 2,-2.6 z m 0,-32.6 -3.4,-4.2 -0.3,-0.4 -1.5,-1.9 0.5,-0.7 0.9,-1.1 3.8,-4.7 z m 0,-32.6 -5.2,-6.5 5.2,-6.5 z"
   id="path420" />
			<path
   class="st3"
   d="m -126.2,-1413.3 v 41.2 2.9 39.4 h 14.5 v -42.3 -8 -33.3 h -14.5 z m 12.8,1.6 -3.3,4.1 -2.2,2.8 -2.4,-3 -2.1,-2.6 -1.1,-1.4 z m -1,50.2 -3.8,4.8 -0.7,0.9 -0.7,-0.9 -3.8,-4.8 -0.9,-1.1 h 10.7 z m -4.5,23.5 5.3,6.6 h -10.5 z m -5.7,5.7 v -13 l 5.2,6.5 z m 6.3,-6.5 5.2,-6.5 v 13 z m -0.6,-0.7 -5.3,-6.6 h 10.5 z m -5.2,-8.3 5.2,-6.5 5.2,6.5 z m 0,-16.4 4,-5 1.2,-1.5 1.2,1.5 4,5 z m 4.1,-9.3 -4.3,-5.4 h 10.7 l -2.6,3.3 v 0 l -2.7,3.4 z m -4.6,-28 v -9 l 2.9,3.7 2.3,2.8 -3.4,4.3 -1.7,2.2 v -4 z m 0,7.3 5.2,6.5 -5.2,6.5 z m 5.7,7.2 5.1,6.4 H -124 Z m 0.6,-0.7 5.2,-6.5 v 13 z m -0.6,-0.7 -5.4,-6.9 h 10.9 z m -5,-8.5 2.1,-2.6 3,-3.8 4.6,5.8 0.5,0.6 z m -0.7,19 3.8,4.7 0.9,1.1 0.5,0.7 -1.8,2.3 -3.4,4.2 z m 0,16.4 v 0 l 3.9,4.9 1.3,1.6 -5.2,6.5 c 0,0 0,-13 0,-13 z m 11.4,13 -5.2,-6.5 1.3,-1.6 3.8,-4.8 v 0 z m 0,-20.7 v 4.2 l -3.3,-4.2 -1.8,-2.3 0.5,-0.7 4.6,-5.8 v 5.8 z m 0.1,-28.3 -5.2,-6.5 2.4,-3 2.8,-3.5 c 0,0 0,13 0,13 z"
   id="path422" />
		</g>
		<g
   id="g440">
			<rect
   x="-417.89999"
   y="-1524"
   class="st3"
   width="5.6999998"
   height="12.2"
   id="rect426" />
			<rect
   x="-375.39999"
   y="-1524"
   class="st3"
   width="5.6999998"
   height="12.2"
   id="rect428" />
			<path
   class="st3"
   d="m -351.2,-1537.8 c 0,8.1 -6.1,14.9 -13.9,15.9 -0.7,0.1 -1.4,0.1 -2.2,0.1 h -53.1 c -0.7,0 -1.5,0 -2.2,-0.1 -0.8,-0.1 -1.6,-0.3 -2.4,-0.5 -0.9,-0.3 -1.8,-0.6 -2.6,-1 v -28.8 c 1.5,-0.8 3.2,-1.3 4.9,-1.5 0.7,-0.1 1.4,-0.2 2.2,-0.2 h 53.1 c 0.7,0 1.5,0.1 2.2,0.2 3.6,0.5 6.8,2.1 9.2,4.6 3,2.8 4.8,6.8 4.8,11.3 z"
   id="path430" />
			<path
   class="st3"
   d="m -368.3,-1522.1 c 0,0.9 0.7,1.6 1.6,1.6 v 0 c 0.9,0 1.6,-0.7 1.6,-1.6 v -31.7 c 0,-0.9 -0.7,-1.6 -1.6,-1.6 v 0 c -0.9,0 -1.6,0.7 -1.6,1.6 z"
   id="path432" />
			<path
   class="st3"
   d="m -395.4,-1522.1 c 0,0.9 0.7,1.6 1.6,1.6 v 0 c 0.9,0 1.6,-0.7 1.6,-1.6 v -31.7 c 0,-0.9 -0.7,-1.6 -1.6,-1.6 v 0 c -0.9,0 -1.6,0.7 -1.6,1.6 z"
   id="path434" />
			<path
   class="st3"
   d="m -422.5,-1522.1 c 0,0.9 0.7,1.6 1.6,1.6 v 0 c 0.9,0 1.6,-0.7 1.6,-1.6 v -31.7 c 0,-0.9 -0.7,-1.6 -1.6,-1.6 v 0 c -0.9,0 -1.6,0.7 -1.6,1.6 z"
   id="path436" />
			<rect
   x="-427.39999"
   y="-1538"
   class="st3"
   width="2.5999999"
   height="16.200001"
   id="rect438" />
		</g>
		<g
   id="g444">
			<path
   class="st3"
   d="m -63,-1288.3 v 109.7 h -9.6 c -5.3,0 -9.6,-4.3 -9.6,-9.6 v -100.1 c 0,-6.2 -2.4,-12 -6.8,-16.4 -4.4,-4.4 -10.2,-6.8 -16.4,-6.8 v 0 l -158.9,0.3 h -11 l -28.3,0.1 h -0.1 c -11.3,0 -21.9,-4.4 -29.9,-12.5 -8,-8 -12.5,-18.7 -12.5,-30 v -116 c 0,-12.9 -10.4,-23.3 -23.3,-23.3 h -58 v -19.2 h 58 c 23.4,0 42.5,19 42.5,42.5 v 116 c 0,6.2 2.5,12 6.9,16.4 4.4,4.4 10.2,6.8 16.4,6.8 0,0 0,0 0.1,0 l 28.3,-0.1 h 11 l 63.4,-0.1 h 10.2 10.7 14.5 l 39.4,-0.1 h 14.5 6.1 0.1 c 11.3,0 21.9,4.4 29.9,12.4 7.9,8 12.4,18.6 12.4,30 z"
   id="path442" />
		</g>
		<g
   id="g448">
			<path
   class="st3"
   d="m -67.1,-1237.6 c 0,3 -2.5,5.5 -5.5,5.5 h -178.1 c -13.6,0 -24.7,-11.1 -24.7,-24.7 v -73.6 h 11 v 73.7 c 0,7.5 6.1,13.7 13.7,13.7 h 178.1 c 3,-0.1 5.5,2.3 5.5,5.4 z"
   id="path446" />
		</g>
		<g
   id="g460">
			<rect
   x="-204.2"
   y="-1246.1"
   class="st3"
   width="34.5"
   height="16.700001"
   id="rect450" />
			<ellipse
   class="st3"
   cx="-186.89999"
   cy="-1238.6"
   rx="11.9"
   ry="11.7"
   id="ellipse452" />
			<rect
   x="-192.8"
   y="-1251.8"
   class="st3"
   width="11.8"
   height="5.6999998"
   id="rect454" />
			<path
   class="st3"
   d="m -177.4,-1255.2 c 0,0.9 -0.7,1.6 -1.6,1.6 h -16 c -0.9,0 -1.6,-0.7 -1.6,-1.6 v 0 c 0,-0.9 0.7,-1.6 1.6,-1.6 h 16 c 0.9,0 1.6,0.7 1.6,1.6 z"
   id="path456" />
			<path
   class="st3"
   d="m -185,-1251.3 c 0,1.1 -0.9,2 -2,2 v 0 c -1.1,0 -2,-0.9 -2,-2 v -5.3 c 0,-1.1 0.9,-2 2,-2 v 0 c 1.1,0 2,0.9 2,2 z"
   id="path458" />
		</g>
		<g
   class="st8"
   id="g464">
			<path
   class="st3"
   d="m -338.4,-1385.6 c 0,3 -2.5,5.5 -5.5,5.5 H -374 c -13.6,0 -24.7,-11.1 -24.7,-24.7 v -60.3 c 0,-7.6 -6.1,-13.7 -13.7,-13.7 h -13.2 v 116.6 c 0,4.4 2.8,8.2 5.9,8.2 9.3,0 16.8,8.6 16.8,19.2 v 18.7 h -10.9 v -18.7 c 0,-4.4 -2.7,-8.2 -5.9,-8.2 -2.8,0 -5.4,-0.8 -7.8,-2.2 v -144.6 h 15 c 13.6,0 24.7,11.1 24.7,24.7 v 60.3 c 0,7.6 6.1,13.7 13.7,13.7 h 30.1 c 3.1,0 5.6,2.5 5.6,5.5 z"
   id="path462" />
		</g>
		<g
   id="g476">
			<polygon
   class="st3"
   points="-114.6,-1272 -111.9,-1273.1 -98.7,-1272 -100.2,-1270.5 -111.8,-1269.3 -114.6,-1270.5 "
   id="polygon466" />
			<polygon
   class="st3"
   points="-113.9,-1270.8 -114.3,-1267.9 -121.8,-1257.1 -122.3,-1259.1 -117.5,-1269.8 -115.2,-1271.6 "
   id="polygon468" />
			<polygon
   class="st3"
   points="-115.3,-1270.8 -117.5,-1272.6 -123.2,-1284.6 -121.1,-1284 -114.3,-1274.5 -114,-1271.6 "
   id="polygon470" />
			<circle
   class="st3"
   cx="-114.6"
   cy="-1271.2"
   r="2.0999999"
   id="circle472" />
			<circle
   class="st3"
   cx="-114.6"
   cy="-1271.2"
   r="1.1"
   id="circle474" />
		</g>
		<path
   class="st3"
   d="m -95.5,-1272.5 c -0.3,-4 -1.8,-7.6 -4.1,-10.5 -1.7,-2.1 -3.9,-3.9 -6.3,-5.1 -2.2,-1.1 -4.7,-1.8 -7.3,-2 -0.4,0 -0.8,0 -1.2,0 -2.8,0 -5.4,0.6 -7.7,1.7 -1.6,0.7 -3.2,1.7 -4.5,2.9 v 0 c -2.6,2.2 -4.5,5 -5.6,8.3 -0.3,0.9 -0.6,1.9 -0.7,2.9 -0.1,0.6 -0.2,1.3 -0.2,1.9 0,0.4 0,0.8 0,1.3 v 28.3 h 37.8 v -28.3 c -0.2,-0.6 -0.2,-1 -0.2,-1.4 z m -4.1,9.4 c -1.5,2.7 -3.7,4.9 -6.3,6.4 -0.6,0.4 -1.3,0.7 -1.9,1 -0.8,0.3 -1.6,0.6 -2.5,0.8 v 0 c -1.3,0.3 -2.6,0.5 -4,0.5 -1.4,0 -2.8,-0.2 -4.1,-0.5 -1.9,-0.5 -3.6,-1.3 -5.2,-2.3 -1.1,-0.7 -2,-1.5 -2.9,-2.4 -1,-1.1 -1.9,-2.3 -2.6,-3.6 -0.5,-0.9 -0.9,-1.9 -1.2,-2.9 -0.1,-0.2 -0.2,-0.5 -0.2,-0.7 -0.3,-1 -0.5,-2 -0.5,-3 -0.1,-0.5 -0.1,-0.9 -0.1,-1.4 0,-0.4 0,-0.8 0,-1.3 0.1,-0.7 0.1,-1.3 0.3,-1.9 0.2,-1 0.5,-2 0.8,-2.9 0.8,-2.1 2,-4 3.5,-5.5 0.9,-0.9 1.8,-1.7 2.9,-2.4 0.2,-0.1 0.3,-0.2 0.5,-0.3 2.6,-1.6 5.6,-2.5 8.8,-2.5 3.1,0 6,0.8 8.5,2.3 2.6,1.5 4.8,3.8 6.3,6.4 1.2,2.1 1.9,4.4 2.1,6.9 0,0.4 0.1,0.8 0.1,1.3 0,0.5 0,0.9 -0.1,1.4 -0.4,2.3 -1.1,4.5 -2.2,6.6 z"
   id="path478" />
		<polygon
   class="st3"
   points="-309,-1199.5 -311.1,-1185.7 -320.6,-1185.7 -322.6,-1199.5 "
   id="polygon480" />
		<path
   class="st3"
   d="m -309.4,-1171.6 -0.1,0.1 c -1.5,1.9 -4,3.6 -6.6,3.6 -4.3,0 -7.7,-3.1 -7.9,-7.4 0,-3.5 1.5,-5.4 3.1,-6.5 1.5,-1.1 3.1,-1.5 3.1,-2.1 v -1.8 h 3.9 v 3 c 0,0.7 -0.2,1.3 -0.6,1.7 -0.3,0.5 -0.8,0.8 -1.4,0.8 -2.3,0 -4.2,1.9 -4.2,4.2 0,2.3 1.9,4.2 4.2,4.2 2.3,0 4.2,-1.9 4.2,-4.2 v -0.2 c 0,-1.5 0.5,-2 1.4,-2 0.8,0 3.1,2.5 0.9,6.6 z"
   id="path482" />
		<g
   id="g486">
			<path
   class="st3"
   d="m -307.6,-1234.3 -1.2,6 h 2.5 l 1.4,-7 c -0.8,0.5 -1.7,0.8 -2.7,1 z m 3.1,-5.1 c -0.3,-0.2 -0.6,-0.3 -1,-0.3 h -20.8 c -0.4,0 -0.7,0.1 -0.9,0.3 -0.2,0.2 -0.4,0.4 -0.3,0.7 l 0.7,3.3 1.4,7 5.8,28.8 2.2,10.9 0.3,1.5 c 0.1,0.4 0.6,0.7 1.2,0.7 0.6,0 1.2,-0.3 1.2,-0.7 l 0.3,-1.5 2.2,-10.9 5.8,-28.8 1.4,-7 0.7,-3.3 c 0.2,-0.2 0.1,-0.5 -0.2,-0.7 z m -4.3,11.1 -5.8,28.8 -1.2,6.1 -1.2,-6.1 -5.8,-28.8 -1.2,-6 -0.7,-3.6 h 18 l -0.7,3.6 z"
   id="path484" />
		</g>
		<path
   class="st3"
   d="m -301.4,-1241.5 c 0,4.1 -3.3,7.3 -7.3,7.3 h -14.1 c -4.1,0 -7.3,-3.3 -7.3,-7.3 v 0 c 0,-4.1 3.3,-7.3 7.3,-7.3 h 14.1 c 4,-0.1 7.3,3.2 7.3,7.3 z"
   id="path488" />
		<rect
   x="-327.5"
   y="-1278.5"
   class="st3"
   width="2.7"
   height="36.900002"
   id="rect490" />
		<rect
   x="-307.5"
   y="-1278.5"
   class="st3"
   width="2.7"
   height="36.900002"
   id="rect492" />
		<g
   id="g500">
			<rect
   x="-330.89999"
   y="-1407.5"
   class="st3"
   width="17.1"
   height="6.5"
   id="rect494" />
			<path
   class="st3"
   d="m -292.5,-1404.2 c 0,7.3 -5.9,13.2 -13,13.2 -7.3,0 -13.2,-5.9 -13.2,-13.2 0,-3.7 1.4,-6.9 3.9,-9.3 2.3,-2.4 5.6,-3.9 9.2,-3.9 7.2,0 13.1,5.9 13.1,13.2 z"
   id="path496" />
			<path
   class="st3"
   d="m -295.3,-1404.2 c 0,5.7 -4.6,10.3 -10.3,10.3 -5.7,0 -10.4,-4.6 -10.4,-10.3 0,-3 1.1,-5.5 3.1,-7.3 l 7.3,7.3 v -10.4 c 5.7,0 10.3,4.6 10.3,10.4 z"
   id="path498" />
		</g>
		<g
   id="g504">
			<path
   class="st3"
   d="m -148.7,-1138.7 h -19.2 v -9.4 c 0,-10.6 10.2,-18.9 23.3,-18.9 h 58.2 c 2.2,0 4.1,-1.9 4.1,-4.1 v -35.5 H -63 v 35.5 c 0,12.8 -10.4,23.3 -23.3,23.3 h -58.2 c -2,0 -3.4,0.5 -4.1,1 z"
   id="path502" />
		</g>
		<g
   id="g508">
			<path
   class="st3"
   d="m -275.4,-1285 v 11 h -119.2 c -10.6,0 -19.2,-8.6 -19.2,-19.2 v -22.9 h 11 v 22.9 c 0,4.5 3.7,8.2 8.2,8.2 z"
   id="path506" />
		</g>
		<rect
   x="-424.89999"
   y="-1316.1"
   class="st3"
   width="72.900002"
   height="52"
   id="rect510" />
		<rect
   x="-407.70001"
   y="-1308.6"
   class="st3"
   width="16.5"
   height="16.5"
   id="rect512" />
		<rect
   x="-385.29999"
   y="-1308.6"
   class="st3"
   width="16.5"
   height="16.5"
   id="rect514" />
	</g>
	<g
   class="st9"
   id="g532">
		<g
   id="g530">
			<path
   class="st3"
   d="m 969.6,-1282.4 c 0,20.8 -16.9,37.7 -37.7,37.7 h -72.7 c -20.8,0 -37.7,-16.9 -37.7,-37.7 v 0 c 0,-20.8 16.9,-37.7 37.7,-37.7 h 72.7 c 20.8,-0.1 37.7,16.8 37.7,37.7 z"
   id="path518" />
			<rect
   x="880"
   y="-1329.3"
   class="st3"
   width="33.900002"
   height="5"
   id="rect520" />
			<rect
   x="884.79999"
   y="-1324.2"
   class="st3"
   width="24.1"
   height="9.1000004"
   id="rect522" />
			<rect
   x="828.59998"
   y="-1244.7"
   class="st3"
   width="133.8"
   height="5.6999998"
   id="rect524" />
			<path
   class="st3"
   d="m 828.7,-1325.3 v 80.6 5.7 77 H 857 v -163.2 z m 24.9,3.3 -2.1,2.6 v 0 l -8.7,10.9 -4.3,-5.5 -6.4,-8 z m -16.7,133.4 -4.4,-5.5 h 20.6 l -5.1,6.5 -5.2,6.5 z m 9.4,14.8 6.8,8.6 h -20.6 l 8.1,-10.1 2.3,-2.8 z m -14.7,-25 v -25.3 l 10.1,12.7 z m 11.3,-11.2 10.1,12.7 h -20.3 z m 1.1,-1.4 10.1,-12.7 v 25.4 z m -1.1,-1.5 -10.5,-13.2 h 21 z m -10.2,-16.4 7.7,-9.8 2.4,-3 2.4,3 7.7,9.8 z m 10.2,-15.6 -5.3,-6.6 v 0 l -5.3,-6.6 h 21 l -8.4,10.5 z m -11.3,-17.7 v -25.3 l 10.1,12.7 z m 11.3,-11.2 10,12.6 h -20 z m 1.1,-1.5 10.1,-12.7 v 25.4 z m -1.1,-1.4 -10.6,-13.4 h 21.3 z m -9.9,-16.5 9.8,-12.4 9.9,12.4 z m -1.4,-26.6 5.4,6.8 4.7,5.9 -10.1,12.7 z m 0,63.7 6.3,7.9 2.7,3.5 1,1.3 -3.5,4.4 -6.6,8.2 z m 0,63.8 2.8,3.6 7.2,9.1 -3,3.8 -7.1,8.9 z m 22.5,25.4 -4.8,-6.1 -5.3,-6.6 6.1,-7.7 3.9,-5 z m 0,-63.9 -6.6,-8.3 -0.7,-0.8 -2.9,-3.6 1,-1.3 1.7,-2.1 7.4,-9.3 z m 0,-63.6 -10.1,-12.7 10.1,-12.7 z"
   id="path526" />
			<path
   class="st3"
   d="m 934,-1325.3 v 80.6 5.7 77 h 28.4 v -82.7 -15.6 -65 z m 25,3.3 -6.4,8 -4.3,5.5 -4.7,-5.8 -4,-5 -2.1,-2.6 z m -1.9,98 -7.5,9.4 -1.3,1.7 -1.3,-1.7 -7.5,-9.4 -1.7,-2.1 h 20.9 z m -8.9,45.8 10.3,12.9 H 937.9 Z M 937,-1167 v -25.4 l 10.1,12.7 z m 12.4,-12.7 10.1,-12.7 v 25.4 z m -1.2,-1.4 -10.3,-13 h 20.5 z m -10.1,-16.2 10.1,-12.7 10.1,12.7 z m 0,-32 7.7,-9.8 2.4,-3 2.4,3 7.7,9.8 z m 8,-18.2 -8.4,-10.6 h 21 l -5.2,6.5 v 0 l -5.3,6.7 z m -9.1,-54.6 v -17.7 l 5.6,7.1 4.4,5.5 -6.7,8.4 -3.4,4.2 v -7.5 z m 0,14.2 10.1,12.7 -10.1,12.7 z m 11.3,14.1 9.9,12.6 h -20 z m 1.1,-1.5 10.1,-12.7 v 25.4 z m -1.2,-1.4 -10.6,-13.4 h 21.2 z m -9.8,-16.5 4,-5 5.9,-7.4 9,11.3 0.9,1.1 z m -1.4,37.1 7.4,9.3 1.7,2.1 1,1.3 -3.5,4.4 -6.6,8.2 z m 0,32 0.1,0.2 7.4,9.4 2.5,3.2 -10.1,12.7 z m 22.4,25.4 -10.1,-12.7 2.5,-3.2 7.5,-9.5 0.1,-0.1 z m 0,-40.3 v 8.3 l -6.5,-8.3 -3.5,-4.4 1,-1.3 9.1,-11.4 v 11.4 z m 0.1,-55.4 -10.1,-12.7 4.7,-5.9 5.4,-6.8 z"
   id="path528" />
		</g>
	</g>
	<g
   class="st9"
   id="g618">
		<g
   id="g546">
			<path
   class="st3"
   d="m 1081.2,-1452.4 c 0,20.8 16.7,37.7 37.3,37.7 h 71.8 c 20.6,0 37.3,-16.9 37.3,-37.7 v 0 c 0,-20.8 -16.7,-37.7 -37.3,-37.7 h -71.8 c -20.6,-0.1 -37.3,16.8 -37.3,37.7 z"
   id="path534" />
			<rect
   x="1136.3"
   y="-1499.3"
   class="st3"
   width="33.5"
   height="5"
   id="rect536" />
			<rect
   x="1141.1"
   y="-1494.2"
   class="st3"
   width="23.799999"
   height="9.1000004"
   id="rect538" />
			<rect
   x="1088.3"
   y="-1414.7"
   class="st3"
   width="132.2"
   height="5.6999998"
   id="rect540" />
			<path
   class="st3"
   d="m 1220.5,-1495.3 v 80.6 5.7 77 h -28.1 v -163.2 z m -24.7,3.3 2,2.6 v 0 l 8.6,10.9 4.3,-5.5 6.3,-8 z m 16.5,133.4 4.3,-5.5 h -20.3 l 5.1,6.5 5.1,6.5 z m -9.3,14.8 -6.7,8.6 h 20.4 l -8,-10.1 -2.2,-2.8 z m 14.6,-25 v -25.3 l -10,12.7 z m -11.1,-11.2 -10,12.7 h 20 z m -1.2,-1.4 -10,-12.7 v 25.4 z m 1.2,-1.5 10.4,-13.2 h -20.7 z m 10,-16.4 -7.6,-9.8 -2.4,-3 -2.4,3 -7.6,9.8 z m -10,-15.6 5.2,-6.6 v 0 l 5.2,-6.6 h -20.7 l 8.3,10.5 z m 11.1,-17.7 v -25.3 l -10,12.7 z m -11.1,-11.2 -9.9,12.6 h 19.7 z m -1.2,-1.5 -10,-12.7 v 25.4 z m 1.2,-1.4 10.5,-13.4 h -21 z m 9.7,-16.5 -9.7,-12.4 -9.8,12.4 z m 1.4,-26.6 -5.3,6.8 -4.6,5.9 10,12.7 z m 0,63.7 -6.3,7.9 -2.7,3.5 -1,1.3 3.5,4.4 6.5,8.2 z m 0,63.8 -2.8,3.6 -7.2,9.1 3,3.8 7,8.9 z m -22.2,25.4 4.8,-6.1 5.2,-6.6 -6.1,-7.7 -3.9,-5 z m 0,-63.9 6.5,-8.3 0.6,-0.8 2.8,-3.6 -1,-1.3 -1.7,-2.1 -7.3,-9.3 z m -0.1,-63.6 10,-12.7 -10,-12.7 z"
   id="path542" />
			<path
   class="st3"
   d="m 1116.4,-1495.3 v 80.6 5.7 77 h -28.1 v -82.7 -15.6 -65 z m -24.7,3.3 6.3,8 4.3,5.5 4.6,-5.8 4,-5 2.1,-2.6 z m 1.9,98 7.4,9.4 1.3,1.7 1.3,-1.7 7.4,-9.4 1.6,-2.1 H 1092 Z m 8.7,45.8 -10.2,12.9 h 20.3 z m 11.1,11.2 v -25.4 l -10,12.7 z m -12.2,-12.6 -10,-12.7 v 25.4 z m 1.1,-1.5 10.2,-13 h -20.3 z m 10,-16.2 -10,-12.7 -10,12.7 z m 0,-32 -7.6,-9.8 -2.4,-3 -2.4,3 -7.6,9.8 z m -7.9,-18.2 8.3,-10.6 H 1092 l 5.1,6.5 v 0 l 5.3,6.7 z m 9,-54.6 v -17.7 l -5.6,7.1 -4.4,5.5 6.6,8.4 3.3,4.2 z m 0,14.2 -10,12.7 10,12.7 z m -11.1,14.1 -9.8,12.6 h 19.7 z m -1.1,-1.5 -10,-12.7 v 25.4 z m 1.1,-1.4 10.5,-13.4 h -21 z m 9.8,-16.5 -4,-5 -5.8,-7.4 -8.9,11.3 -0.9,1.1 z m 1.3,37.1 -7.3,9.3 -1.7,2.1 -1,1.3 3.5,4.4 6.5,8.2 z m 0,32 -0.1,0.2 -7.3,9.4 -2.5,3.2 10,12.7 z m -22.1,25.4 10,-12.7 -2.5,-3.2 -7.4,-9.5 -0.1,-0.1 z m 0,-40.3 v 8.3 l 6.4,-8.3 3.5,-4.4 -1,-1.3 -9,-11.4 v 11.4 z m -0.1,-55.4 10,-12.7 -4.6,-5.9 -5.4,-6.8 z"
   id="path544" />
		</g>
		<g
   id="g562">
			<rect
   x="1668.6"
   y="-1711.6"
   class="st3"
   width="11"
   height="23.799999"
   id="rect548" />
			<rect
   x="1586.5"
   y="-1711.6"
   class="st3"
   width="11"
   height="23.799999"
   id="rect550" />
			<path
   class="st3"
   d="m 1550.7,-1738.5 c 0,15.9 11.7,29.1 26.9,31.1 1.4,0.2 2.8,0.3 4.2,0.3 h 102.5 c 1.4,0 2.8,-0.1 4.2,-0.3 1.5,-0.2 3.1,-0.5 4.5,-0.9 1.7,-0.5 3.4,-1.2 5,-2 v -56.3 c -2.9,-1.5 -6.1,-2.5 -9.5,-2.9 -1.4,-0.2 -2.8,-0.3 -4.2,-0.3 h -102.5 c -1.4,0 -2.8,0.1 -4.2,0.3 -6.9,0.9 -13.1,4.2 -17.7,8.9 -5.7,5.6 -9.2,13.4 -9.2,22.1 z"
   id="path552" />
			<path
   class="st3"
   d="m 1583.9,-1707.8 c 0,1.7 -1.4,3.2 -3.1,3.2 v 0 c -1.7,0 -3.1,-1.4 -3.1,-3.2 v -61.9 c 0,-1.8 1.4,-3.2 3.1,-3.2 v 0 c 1.7,0 3.1,1.4 3.1,3.2 z"
   id="path554" />
			<path
   class="st3"
   d="m 1636.2,-1707.8 c 0,1.7 -1.4,3.2 -3.1,3.2 v 0 c -1.7,0 -3.2,-1.4 -3.2,-3.2 v -61.9 c 0,-1.8 1.4,-3.2 3.2,-3.2 v 0 c 1.7,0 3.1,1.4 3.1,3.2 z"
   id="path556" />
			<path
   class="st3"
   d="m 1688.5,-1707.8 c 0,1.7 -1.4,3.2 -3.1,3.2 v 0 c -1.7,0 -3.2,-1.4 -3.2,-3.2 v -61.9 c 0,-1.8 1.4,-3.2 3.2,-3.2 v 0 c 1.7,0 3.1,1.4 3.1,3.2 z"
   id="path558" />
			<rect
   x="1693"
   y="-1738.8"
   class="st3"
   width="5"
   height="31.700001"
   id="rect560" />
		</g>
		<g
   id="g566">
			<path
   class="st3"
   d="m 994.5,-1251.1 v 131.8 h 37 v -131.8 c 0,-12.1 4.7,-23.5 13.2,-32.1 8.5,-8.6 19.8,-13.4 31.6,-13.4 h 0.1 l 306.9,0.6 h 21.2 l 54.6,0.1 h 0.2 c 21.8,0 42.3,-8.6 57.8,-24.3 15.5,-15.7 24.1,-36.5 24.1,-58.5 v -226.5 c 0,-25.1 20.1,-45.5 45,-45.5 h 112 v -37.5 h -112 c -45.2,0 -82,37.2 -82,83 v 226.5 c 0,12 -4.7,23.4 -13.2,32.1 -8.5,8.5 -19.7,13.3 -31.6,13.3 -0.1,0 -0.1,0 -0.1,0 l -54.6,-0.1 h -21.2 l -122.4,-0.2 h -19.7 l -20.7,-0.1 h -28.1 l -76.1,-0.2 h -28.1 -11.8 -0.2 c -21.8,0 -42.3,8.6 -57.8,24.3 -15.5,15.6 -24.1,36.4 -24.1,58.5 z"
   id="path564" />
		</g>
		<g
   id="g570">
			<path
   class="st3"
   d="m 1002.4,-1152.1 c 0,5.9 4.8,10.7 10.6,10.7 h 343.9 c 26.2,0 47.6,-21.6 47.6,-48.2 v -143.9 l -21.2,-0.1 v 143.9 c 0,14.7 -11.9,26.8 -26.5,26.8 H 1013 c -5.8,0.1 -10.6,4.9 -10.6,10.8 z"
   id="path568" />
		</g>
		<g
   id="g582">
			<rect
   x="1200.4"
   y="-1168.5"
   class="st3"
   width="66.599998"
   height="32.700001"
   id="rect572" />
			<path
   class="st3"
   d="m 1210.8,-1153.8 c 0,12.6 10.3,22.9 22.9,22.9 12.7,0 22.9,-10.2 22.9,-22.9 0,-12.6 -10.3,-22.9 -22.9,-22.9 -12.6,0 -22.9,10.2 -22.9,22.9 z"
   id="path574" />
			<rect
   x="1222.3"
   y="-1179.6"
   class="st3"
   width="22.700001"
   height="11.1"
   id="rect576" />
			<path
   class="st3"
   d="m 1215.3,-1186.5 c 0,1.7 1.4,3.1 3.1,3.1 h 30.9 c 1.7,0 3.1,-1.4 3.1,-3.1 v 0 c 0,-1.7 -1.4,-3.1 -3.1,-3.1 h -30.9 c -1.7,0 -3.1,1.4 -3.1,3.1 z"
   id="path578" />
			<path
   class="st3"
   d="m 1230,-1178.7 c 0,2.1 1.7,3.8 3.8,3.8 v 0 c 2.1,0 3.8,-1.7 3.8,-3.8 v -10.3 c 0,-2.1 -1.7,-3.8 -3.8,-3.8 v 0 c -2.1,0 -3.8,1.7 -3.8,3.8 z"
   id="path580" />
		</g>
		<g
   class="st8"
   id="g586">
			<path
   class="st3"
   d="m 1559.8,-1441.2 c 0,5.8 4.8,10.7 10.6,10.7 h 58.2 c 26.2,0 47.6,-21.6 47.6,-48.2 v -117.8 c 0,-14.8 11.9,-26.8 26.5,-26.8 h 25.4 v 227.8 c 0,8.6 -5.4,16.1 -11.4,16.1 -17.9,0 -32.5,16.8 -32.5,37.5 v 36.5 h 21.1 v -36.5 c 0,-8.6 5.3,-16.1 11.4,-16.1 5.4,0 10.5,-1.5 15,-4.2 v -282.4 h -29 c -26.2,0 -47.6,21.6 -47.6,48.2 v 117.8 c 0,14.8 -11.9,26.8 -26.5,26.8 h -58.2 c -5.8,-0.1 -10.6,4.7 -10.6,10.6 z"
   id="path584" />
		</g>
		<g
   id="g598">
			<polygon
   class="st3"
   points="1094,-1219.2 1088.8,-1221.3 1063.3,-1219.2 1066.2,-1216.3 1088.7,-1214 1094,-1216.3 "
   id="polygon588" />
			<polygon
   class="st3"
   points="1092.6,-1216.9 1093.4,-1211.2 1108,-1190 1109,-1194 1099.7,-1214.9 1095.1,-1218.3 "
   id="polygon590" />
			<polygon
   class="st3"
   points="1095.3,-1216.9 1099.7,-1220.4 1110.6,-1243.7 1106.7,-1242.6 1093.4,-1224.1 1092.8,-1218.3 "
   id="polygon592" />
			<path
   class="st3"
   d="m 1094,-1213.6 c 2.2,0 4,-1.8 4,-4 0,-2.2 -1.8,-4 -4,-4 -2.2,0 -4,1.8 -4,4 0,2.2 1.8,4 4,4 z"
   id="path594" />
			<circle
   class="st3"
   cx="1094"
   cy="-1217.6"
   id="ellipse596"
   r="2.0999999" />
		</g>
		<path
   class="st3"
   d="m 1057.2,-1220.2 c 0.5,-7.7 3.4,-14.8 7.9,-20.5 3.3,-4.2 7.4,-7.6 12.2,-10 4.3,-2.2 9,-3.5 14.1,-3.8 0.7,0 1.5,-0.1 2.3,-0.1 5.3,0 10.3,1.1 14.9,3.2 3.2,1.4 6.1,3.3 8.7,5.6 v 0 c 5,4.3 8.8,9.9 10.9,16.2 0.6,1.8 1.1,3.7 1.4,5.6 0.2,1.2 0.4,2.5 0.5,3.8 0,0.8 0.1,1.6 0.1,2.4 v 55.3 h -72.9 v -55.3 c -0.1,-0.8 -0.1,-1.6 -0.1,-2.4 z m 7.9,18.4 c 2.9,5.2 7.1,9.6 12.2,12.6 1.2,0.7 2.5,1.3 3.7,1.9 1.5,0.6 3.2,1.2 4.8,1.6 v 0 c 2.5,0.6 5.1,0.9 7.7,0.9 2.8,0 5.4,-0.4 8,-1 3.6,-0.9 7,-2.5 10,-4.5 2,-1.3 3.9,-2.9 5.6,-4.7 2,-2.1 3.7,-4.4 5,-7 1,-1.8 1.8,-3.7 2.4,-5.6 0.2,-0.5 0.3,-0.9 0.4,-1.4 0.5,-1.9 0.9,-3.9 1,-5.9 0.1,-0.9 0.1,-1.8 0.1,-2.7 0,-0.8 0,-1.6 -0.1,-2.4 -0.1,-1.3 -0.3,-2.5 -0.5,-3.8 -0.4,-1.9 -0.9,-3.8 -1.5,-5.6 -1.5,-4 -3.9,-7.7 -6.8,-10.8 -1.7,-1.8 -3.5,-3.4 -5.6,-4.8 -0.3,-0.2 -0.6,-0.5 -1,-0.7 -5,-3.1 -10.8,-4.9 -17,-4.9 -6,0 -11.5,1.6 -16.3,4.5 -5.1,3 -9.3,7.3 -12.2,12.6 -2.2,4 -3.6,8.6 -4,13.5 -0.1,0.8 -0.1,1.6 -0.1,2.4 0,0.9 0,1.8 0.1,2.7 0.5,4.6 1.9,9.1 4.1,13.1 z"
   id="path600" />
		<g
   id="g608">
			<rect
   x="1478.6"
   y="-1483.8"
   class="st3"
   width="33"
   height="12.7"
   id="rect602" />
			<path
   class="st3"
   d="m 1437.5,-1477.5 c 0,14.2 11.3,25.7 25.2,25.7 14,0 25.4,-11.5 25.4,-25.7 0,-7.2 -2.7,-13.5 -7.6,-18.1 -4.4,-4.7 -10.8,-7.7 -17.9,-7.7 -13.8,0.1 -25.1,11.5 -25.1,25.8 z"
   id="path604" />
			<path
   class="st3"
   d="m 1442.8,-1477.5 c 0,11.2 9,20.2 19.8,20.2 11,0 20,-9 20,-20.2 0,-5.8 -2.2,-10.7 -6,-14.3 l -14,14.3 v -20.3 c -10.8,0 -19.8,9.1 -19.8,20.3 z"
   id="path606" />
		</g>
		<g
   id="g612">
			<path
   class="st3"
   d="m 1404.5,-1244.6 v 21.4 h 230.1 c 20.4,0 37,-16.8 37,-37.5 v -44.8 h -21.2 v 44.8 c 0,8.8 -7.1,16.1 -15.9,16.1 z"
   id="path610" />
		</g>
		<rect
   x="1586"
   y="-1305.4"
   class="st3"
   width="140.7"
   height="101.5"
   id="rect614" />
		<rect
   x="1628"
   y="-1290.6"
   class="st3"
   width="31.9"
   height="32.299999"
   id="rect616" />
	</g>
	<g
   class="st1"
   id="g636">
		<g
   id="g630">
			<path
   class="st3"
   d="m 798.9,-648.2 2.2,-5.8 -2.5,-0.9 c 7.6,-23.7 -6.2,-45.1 -18.2,-46.5 v -3.7 h -13.2 v -4.6 h 7.1 v -8.3 h 5.2 v -19.6 h -5.2 v -7.3 h -4.7 v -6.3 H 732 v 6.3 h -4.7 v 7.3 h -5.2 v 19.6 h 5.2 v 8.3 h 7.1 v 4.6 h -12.7 v 3.7 c -12,1.4 -25.8,22.8 -18.2,46.5 l -2.5,0.9 2.2,5.8 c -3,1.8 -5,4.9 -5,8.4 -0.1,5.8 5.1,10.7 11.7,10.8 l -1.3,-2 c -4.6,-2 -7,-4.4 -6.9,-8.7 0.1,-3.4 2.7,-5.8 6,-6.5 0.3,0.3 0.7,0.6 1.1,0.7 2.2,1 4.8,0 5.8,-2.2 0.2,-0.4 0.3,-0.9 0.4,-1.3 2.2,-1.2 4.7,-1.5 6.8,-0.6 v 8.4 h 4.1 c -0.2,1.3 -0.7,2.7 -1.4,4.1 l 0.4,2.4 c 0.5,-0.5 1,-1 1.4,-1.6 v 0 22.5 h -3.5 c -0.6,0 -1,0.5 -1,1 v 24.1 c 0,0.6 0.5,1 1,1 h 26.5 c 0.6,0 1,-0.5 1,-1 v -24.1 c 0,-0.6 -0.5,-1 -1,-1 h -3.5 v -27.5 h 10.7 v 27.5 H 753 c -0.6,0 -1,0.5 -1,1 v 24.1 c 0,0.6 0.5,1 1,1 h 26.5 c 0.6,0 1,-0.5 1,-1 v -24.1 c 0,-0.6 -0.5,-1 -1,-1 H 776 v -22.5 c 0,0 0,0 0.1,0.1 0.4,0.5 0.9,1 1.4,1.5 l 0.4,-2.4 c -0.7,-1.5 -1.2,-2.9 -1.4,-4.1 h 4.1 v -8.4 c 2.1,-0.9 4.6,-0.6 6.7,0.6 0.1,0.5 0.2,0.9 0.4,1.3 1,2.2 3.6,3.2 5.8,2.2 0.4,-0.2 0.8,-0.4 1.1,-0.7 v 0 c 3.3,0.8 5.9,3.1 6,6.5 0.1,4.3 -2.3,6.7 -6.9,8.7 l -1.3,2 c 6.6,-0.2 11.9,-5 11.7,-10.8 -0.2,-3.5 -2.2,-6.5 -5.2,-8.4 z m -77.3,-5.1 c -1.5,-0.4 -3.1,-0.5 -4.7,-0.2 l -2.2,-5.8 -1.1,0.4 c -0.6,-6.7 0.7,-18.1 8,-20.7 z m 66.8,-5.5 -1.1,-0.4 -2.2,5.8 c -1.6,-0.3 -3.2,-0.2 -4.7,0.2 v -26.2 c 7.3,2.5 8.6,13.9 8,20.6 z"
   id="path620" />
			<path
   class="st3"
   d="m 1003.5,-648.2 2.2,-5.8 -2.5,-0.9 c 7.6,-23.7 -6.2,-45.1 -18.2,-46.5 v -3.7 h -13.2 v -4.6 h 7.1 v -8.3 h 5.2 v -19.6 h -5.2 v -7.3 h -4.7 v -6.3 h -37.6 v 6.3 h -4.7 v 7.3 h -5.2 v 19.6 h 5.2 v 8.3 h 7.1 v 4.6 h -12.7 v 3.7 c -12,1.4 -25.8,22.8 -18.2,46.5 l -2.5,0.9 2.2,5.8 c -3,1.8 -4.9,4.9 -5,8.4 -0.1,5.8 5.1,10.7 11.7,10.8 l -1.3,-2 c -4.6,-2 -7,-4.4 -6.9,-8.7 0.1,-3.4 2.7,-5.8 6,-6.5 0.3,0.3 0.7,0.6 1.1,0.7 2.2,1 4.8,0 5.8,-2.2 0.2,-0.4 0.3,-0.9 0.4,-1.3 2.2,-1.2 4.7,-1.5 6.8,-0.6 v 8.4 h 4.1 c -0.2,1.3 -0.7,2.7 -1.4,4.1 l 0.4,2.4 c 0.5,-0.5 1,-1 1.4,-1.6 v 0 22.5 h -3.5 c -0.6,0 -1,0.5 -1,1 v 24.1 c 0,0.6 0.5,1 1,1 h 26.5 c 0.6,0 1,-0.5 1,-1 v -24.1 c 0,-0.6 -0.5,-1 -1,-1 h -3.5 v -27.5 H 961 v 27.5 h -3.5 c -0.6,0 -1,0.5 -1,1 v 24.1 c 0,0.6 0.5,1 1,1 H 984 c 0.6,0 1,-0.5 1,-1 v -24.1 c 0,-0.6 -0.5,-1 -1,-1 h -3.5 v -22.5 c 0,0 0,0 0.1,0.1 0.4,0.5 0.9,1 1.4,1.5 l 0.4,-2.4 c -0.7,-1.5 -1.2,-2.9 -1.4,-4.1 h 4.1 v -8.4 c 2.1,-0.9 4.6,-0.6 6.7,0.6 0.1,0.5 0.2,0.9 0.4,1.3 1,2.2 3.6,3.2 5.8,2.2 0.4,-0.2 0.8,-0.4 1.1,-0.7 v 0 c 3.3,0.8 5.9,3.1 6,6.5 0.1,4.3 -2.3,6.7 -6.9,8.7 l -1.3,2 c 6.6,-0.2 11.9,-5 11.7,-10.8 -0.1,-3.5 -2.1,-6.5 -5.1,-8.4 z m -77.2,-5.1 c -1.5,-0.4 -3.1,-0.5 -4.7,-0.2 l -2.2,-5.8 -1.1,0.4 c -0.6,-6.7 0.7,-18.1 8,-20.7 z m 66.8,-5.5 -1.1,-0.4 -2.2,5.8 c -1.6,-0.3 -3.2,-0.2 -4.7,0.2 v -26.2 c 7.2,2.5 8.6,13.9 8,20.6 z"
   id="path622" />
			<path
   class="st3"
   d="m 1208.2,-648.2 2.2,-5.8 -2.5,-0.9 c 7.7,-23.7 -6.2,-45.1 -18.2,-46.5 v -3.7 h -13.2 v -4.6 h 7.1 v -8.3 h 5.2 v -19.6 h -5.2 v -7.3 h -4.7 v -6.3 h -37.6 v 6.3 h -4.7 v 7.3 h -5.2 v 19.6 h 5.2 v 8.3 h 7.1 v 4.6 H 1131 v 3.7 c -12,1.4 -25.8,22.8 -18.2,46.5 l -2.5,0.9 2.2,5.8 c -3,1.8 -4.9,4.9 -5,8.4 -0.1,5.8 5.1,10.7 11.7,10.8 l -1.3,-2 c -4.6,-2 -7,-4.4 -6.9,-8.7 0.1,-3.4 2.7,-5.8 6,-6.5 0.3,0.3 0.7,0.6 1.1,0.7 2.2,1 4.8,0 5.8,-2.2 0.2,-0.4 0.3,-0.9 0.4,-1.3 2.2,-1.2 4.7,-1.5 6.8,-0.6 v 8.4 h 4.1 c -0.2,1.3 -0.7,2.7 -1.4,4.1 l 0.4,2.4 c 0.5,-0.5 1,-1 1.4,-1.6 v 0 22.5 h -3.5 c -0.6,0 -1,0.5 -1,1 v 24.1 c 0,0.6 0.5,1 1,1 h 26.5 c 0.6,0 1,-0.5 1,-1 v -24.1 c 0,-0.6 -0.5,-1 -1,-1 h -3.5 v -27.5 h 10.7 v 27.5 h -3.5 c -0.6,0 -1,0.5 -1,1 v 24.1 c 0,0.6 0.5,1 1,1 h 26.5 c 0.6,0 1,-0.5 1,-1 v -24.1 c 0,-0.6 -0.5,-1 -1,-1 h -3.5 v -22.5 c 0,0 0,0 0.1,0.1 0.4,0.5 0.9,1 1.4,1.5 l 0.4,-2.4 c -0.7,-1.5 -1.2,-2.9 -1.4,-4.1 h 4.1 v -8.4 c 2.1,-0.9 4.6,-0.6 6.7,0.6 0.1,0.5 0.2,0.9 0.4,1.3 1,2.2 3.6,3.2 5.8,2.2 0.4,-0.2 0.8,-0.4 1.1,-0.7 v 0 c 3.3,0.8 5.9,3.1 6,6.5 0.1,4.3 -2.3,6.7 -6.9,8.7 l -1.3,2 c 6.6,-0.2 11.9,-5 11.7,-10.8 -0.3,-3.5 -2.2,-6.5 -5.2,-8.4 z m -77.3,-5.1 c -1.5,-0.4 -3.1,-0.5 -4.7,-0.2 l -2.2,-5.8 -1.1,0.4 c -0.6,-6.7 0.7,-18.1 8,-20.7 z m 66.8,-5.5 -1.1,-0.4 -2.2,5.8 c -1.6,-0.3 -3.2,-0.2 -4.7,0.2 v -26.2 c 7.3,2.5 8.6,13.9 8,20.6 z"
   id="path624" />
			<path
   class="st3"
   d="m 1412.8,-648.2 2.2,-5.8 -2.5,-0.9 c 7.6,-23.7 -6.2,-45.1 -18.2,-46.5 v -3.7 h -13.2 v -4.6 h 7.1 v -8.3 h 5.2 v -19.6 h -5.2 v -7.3 h -4.7 v -6.3 h -37.6 v 6.3 h -4.7 v 7.3 h -5.2 v 19.6 h 5.2 v 8.3 h 7.1 v 4.6 h -12.7 v 3.7 c -12,1.4 -25.9,22.8 -18.2,46.5 l -2.5,0.9 2.2,5.8 c -3,1.8 -4.9,4.9 -5,8.4 -0.1,5.8 5.1,10.7 11.7,10.8 l -1.3,-2 c -4.6,-2 -7,-4.4 -6.9,-8.7 0.1,-3.4 2.7,-5.8 6,-6.5 0.3,0.3 0.7,0.6 1.1,0.7 2.2,1 4.8,0 5.8,-2.2 0.2,-0.4 0.3,-0.9 0.4,-1.3 2.2,-1.2 4.7,-1.5 6.8,-0.6 v 8.4 h 4.1 c -0.2,1.3 -0.7,2.7 -1.4,4.1 l 0.4,2.4 c 0.5,-0.5 1,-1 1.4,-1.6 v 0 22.5 h -3.5 c -0.6,0 -1,0.5 -1,1 v 24.1 c 0,0.6 0.5,1 1,1 h 26.5 c 0.6,0 1,-0.5 1,-1 v -24.1 c 0,-0.6 -0.5,-1 -1,-1 h -3.5 v -27.5 h 10.7 v 27.5 h -3.5 c -0.6,0 -1,0.5 -1,1 v 24.1 c 0,0.6 0.5,1 1,1 h 26.5 c 0.6,0 1,-0.5 1,-1 v -24.1 c 0,-0.6 -0.5,-1 -1,-1 h -3.5 v -22.5 c 0,0 0,0 0.1,0.1 0.4,0.5 0.9,1 1.4,1.5 l 0.4,-2.4 c -0.7,-1.5 -1.2,-2.9 -1.4,-4.1 h 4.1 v -8.4 c 2.1,-0.9 4.6,-0.6 6.7,0.6 0.1,0.5 0.2,0.9 0.3,1.3 1,2.2 3.6,3.2 5.8,2.2 0.4,-0.2 0.8,-0.4 1.1,-0.7 v 0 c 3.3,0.8 5.9,3.1 6,6.5 0.1,4.3 -2.3,6.7 -6.9,8.7 l -1.3,2 c 6.6,-0.2 11.9,-5 11.7,-10.8 -0.1,-3.5 -2.1,-6.5 -5.1,-8.4 z m -77.2,-5.1 c -1.5,-0.4 -3.1,-0.5 -4.7,-0.2 l -2.2,-5.8 -1.1,0.4 c -0.6,-6.7 0.7,-18.1 8,-20.7 z m 66.8,-5.5 -1.1,-0.4 -2.2,5.8 c -1.6,-0.3 -3.2,-0.2 -4.7,0.2 v -26.2 c 7.2,2.5 8.6,13.9 8,20.6 z"
   id="path626" />
			<rect
   x="569.09998"
   y="-587.5"
   class="st3"
   width="1163.8"
   height="92.699997"
   id="rect628" />
		</g>
		<rect
   x="573.40002"
   y="-1119.2"
   class="st3"
   width="1159.4"
   height="37.400002"
   id="rect632" />
		<path
   class="st3"
   d="m 941,-1075.9 v 7.6 h -4.9 c 0,21.8 -13.8,40.4 -33.2,47.6 -8.9,15 -27.8,38 -33.4,49 -3.9,7.7 -6.7,17.4 -10.2,27.4 6.1,9.6 7,22.1 1.5,33 -0.5,0.9 -1,1.8 -1.6,2.7 l 19.9,68.4 5.2,-1.8 6.2,17.3 c 10.4,-1.5 20.7,1.6 27.6,9.4 11.6,13 9,34.2 -5.7,47.4 l -0.9,-7.2 c 6.5,-13.3 7.3,-23.5 -1.2,-33.1 -6.8,-7.7 -17.4,-7.8 -26.3,-3.2 -0.1,1.3 -0.5,2.6 -1.1,3.9 -3.1,6.5 -10.9,9.2 -17.3,6.2 -1.3,-0.6 -2.4,-1.4 -3.4,-2.3 -9.8,2.1 -17.9,8.8 -18.4,19.1 -0.5,12.9 6.5,20.3 20,26.5 l 3.9,6.2 c -19.7,-0.9 -35.1,-15.7 -34.3,-33.1 0.4,-10.4 6.5,-19.4 15.5,-24.7 l -6.2,-17.4 7.3,-2.6 -30.4,-65.4 c -1.3,-0.5 -2.6,-1 -3.8,-1.7 -16.5,-8.4 -23.1,-28.6 -14.7,-45.1 2.5,-5 6.2,-9.1 10.4,-12.1 0,0 0,0 0,-0.1 7.7,-13.3 17.7,-24.7 23.2,-35.5 0.7,-1.4 1.5,-3 2.2,-4.9 0.8,-2.2 1.7,-4.6 2.6,-7.2 0.3,-1 0.7,-1.9 1,-3 0.8,-2.3 1.6,-4.8 2.4,-7.3 0.3,-1 0.7,-2 1,-3.1 0.8,-2.4 1.6,-4.9 2.4,-7.3 1.1,-3.4 2.2,-6.8 3.4,-10.1 -9.4,-9.2 -15.1,-22 -15.1,-36.1 h -4.9 v -7.6 h 6.3 v -6.4 h 98.5 v 6.4 h 6.5 z"
   id="path634" />
	</g>
	<path
   class="st10"
   d="m 716.7,-1164.9 h -0.9 v 40.7 h 0.9 137.3 v -40.7 z m 129.3,4.3 -18.2,14.4 -18.2,-14.4 z m -45.7,0 -18.1,14.4 -18.2,-14.5 z m -45.6,0 -18.1,14.4 -18.2,-14.4 z m -38.5,1.6 18.3,14.5 -18.3,14.5 z m 2.2,30.6 18.2,-14.4 18.2,14.4 z m 39.1,-1 -18.9,-15.1 18.9,-15 z m 4.6,-29.4 18,14.4 -18,14.3 z m 1.8,30.4 18.3,-14.5 18.2,14.5 z m 39.5,-0.8 -19.2,-15.2 19.2,-15.3 z m 4.6,-29.4 17.8,14.2 -17.8,14.1 z m 1.7,30.2 18.2,-14.5 18.2,14.5 z m 39.6,-0.6 -19.4,-15.4 19.4,-15.4 z"
   id="path638" />
	<path
   class="st10"
   d="M 854.9,-1164.9 H 854 v 40.7 h 0.9 137 v -40.7 z m 129.1,4.3 -18.2,14.4 -18.2,-14.4 z m -45.7,0 -18.1,14.4 -18.2,-14.5 z m -45.6,0 -18.1,14.4 -18.2,-14.4 z m -38.5,1.6 18.3,14.5 -18.3,14.5 z m 2.2,30.6 18.2,-14.4 18.2,14.4 z m 39.1,-1 -18.9,-15.1 18.9,-15 z m 4.6,-29.4 18,14.4 -18,14.3 z m 1.8,30.4 18.3,-14.5 18.2,14.5 z m 39.5,-0.8 -19.2,-15.2 19.2,-15.3 z m 4.6,-29.4 17.8,14.2 -17.8,14.1 z m 1.7,30.2 18.2,-14.5 18.2,14.5 z m 39.6,-0.6 -19.4,-15.4 19.4,-15.4 z"
   id="path640" />
	<path
   class="st10"
   d="m 1404,-1164.9 h -1 v 40.7 h 1 140.5 v -40.7 z m 132.6,4.3 -18.2,14.4 -18.2,-14.4 z m -45.7,0 -18.1,14.4 -18.2,-14.5 z m -45.6,0 -18.1,14.4 -18.2,-14.4 z m -38.5,1.6 18.3,14.5 -18.3,14.5 z m 2.2,30.6 18.2,-14.4 18.2,14.4 z m 39.1,-1 -18.9,-15.1 18.9,-15 z m 4.6,-29.4 18,14.4 -18,14.3 z m 1.8,30.4 18.3,-14.5 18.2,14.5 z m 39.5,-0.8 -19.2,-15.2 19.2,-15.3 z m 4.6,-29.4 17.8,14.2 -17.8,14.1 z m 1.7,30.2 18.2,-14.5 18.2,14.5 z m 39.6,-0.6 -19.4,-15.4 19.4,-15.4 z"
   id="path642" />
	<path
   class="st10"
   d="m 1545.5,-1164.9 h -0.9 v 40.7 h 0.9 137.3 v -40.7 z m 129.3,4.3 -18.2,14.4 -18.2,-14.4 z m -45.7,0 -18.1,14.4 -18.2,-14.5 z m -45.6,0 -18.1,14.4 -18.2,-14.4 z m -38.5,1.6 18.3,14.5 -18.3,14.5 z m 2.2,30.6 18.2,-14.4 18.2,14.4 z m 39.1,-1 -18.9,-15.1 18.9,-15 z m 4.6,-29.4 18,14.4 -18,14.3 z m 1.8,30.4 18.3,-14.5 18.2,14.5 z m 39.5,-0.8 -19.2,-15.2 19.2,-15.3 z m 4.6,-29.4 17.8,14.2 -17.8,14.1 z m 1.7,30.2 18.2,-14.5 18.2,14.5 z m 39.6,-0.6 -19.4,-15.4 19.4,-15.4 z"
   id="path644" />
	<path
   class="st10"
   d="m 1683.7,-1164.9 h -0.9 v 40.7 h 0.9 137 v -40.7 z m 129.1,4.3 -18.2,14.4 -18.2,-14.4 z m -45.7,0 -18.1,14.4 -18.2,-14.5 z m -45.6,0 -18.1,14.4 -18.2,-14.4 z m -38.5,1.6 18.3,14.5 -18.3,14.5 z m 2.2,30.6 18.2,-14.4 18.2,14.4 z m 39.1,-1 -18.9,-15.1 18.9,-15 z m 4.6,-29.4 18,14.4 -18,14.3 z m 1.8,30.4 18.3,-14.5 18.2,14.5 z m 39.5,-0.8 -19.2,-15.2 19.2,-15.3 z m 4.6,-29.4 17.8,14.2 -17.8,14.1 z m 1.7,30.2 18.2,-14.5 18.2,14.5 z m 39.6,-0.6 -19.4,-15.4 19.4,-15.4 z"
   id="path646" />
	<g
   class="st9"
   id="g662">
		<polygon
   class="st3"
   points="1310.1,-929.3 1305.9,-902.3 1287.5,-902.3 1283.4,-929.3 "
   id="polygon648" />
		<path
   class="st3"
   d="m 1309.3,-874.7 c -0.1,0.1 -0.1,0.2 -0.2,0.3 -2.9,3.8 -7.9,7 -12.9,7 -8.4,0 -15.1,-6.1 -15.4,-14.4 0,-6.9 3,-10.5 6,-12.7 3,-2.2 6,-2.9 6,-4.2 v -3.5 h 7.7 v 6 c 0,1.3 -0.4,2.4 -1.1,3.3 -0.6,0.9 -1.6,1.5 -2.7,1.5 -4.6,0 -8.2,3.7 -8.2,8.2 0,4.6 3.7,8.2 8.2,8.2 4.5,0 8.2,-3.7 8.2,-8.2 v -0.4 c 0,-3 1,-3.9 2.7,-3.9 1.4,-0.1 6,4.6 1.7,12.8 z"
   id="path650" />
		<g
   id="g654">
			<path
   class="st3"
   d="m 1312.8,-997.3 -2.3,11.7 h 4.9 l 2.8,-13.8 c -1.6,1.1 -3.4,1.8 -5.4,2.1 z m 6.1,-9.8 c -0.5,-0.4 -1.1,-0.6 -1.9,-0.6 h -40.7 c -0.7,0 -1.4,0.2 -1.8,0.6 -0.5,0.4 -0.7,0.8 -0.6,1.3 l 1.3,6.5 2.8,13.8 11.3,56.3 4.3,21.4 0.6,3 c 0.2,0.8 1.2,1.5 2.4,1.5 1.2,0 2.3,-0.6 2.4,-1.5 l 0.6,-3 4.3,-21.4 11.3,-56.3 2.8,-13.8 1.3,-6.5 c 0.3,-0.5 0.1,-1 -0.4,-1.3 z m -8.4,21.5 -11.3,56.3 -2.4,11.9 -2.4,-11.9 -11.3,-56.3 -2.3,-11.7 -1.4,-7 h 35.1 l -1.4,7 z"
   id="path652" />
		</g>
		<path
   class="st3"
   d="m 1324.8,-1011.4 c 0,7.9 -6.4,14.3 -14.3,14.3 H 1283 c -7.9,0 -14.3,-6.4 -14.3,-14.3 v 0 c 0,-7.9 6.4,-14.3 14.3,-14.3 h 27.5 c 7.9,0 14.3,6.4 14.3,14.3 z"
   id="path656" />
		<polyline
   class="st3"
   points="1279.2,-1083.5 1279.2,-1011.4 1273.9,-1011.4 1273.9,-1083.5   "
   id="polyline658" />
		<polyline
   class="st3"
   points="1318.3,-1083.5 1318.3,-1011.4 1313,-1011.4 1313,-1083.5   "
   id="polyline660" />
	</g>
	<g
   class="st9"
   id="g678">
		<polygon
   class="st3"
   points="-737.7,-171.8 -740.9,-150.9 -755.2,-150.9 -758.4,-171.8 "
   id="polygon664" />
		<path
   class="st3"
   d="m -738.4,-129.6 c 0,0.1 -0.1,0.2 -0.1,0.2 -2.2,2.9 -6.1,5.4 -10,5.4 -6.5,0 -11.7,-4.7 -11.9,-11.2 0,-5.3 2.3,-8.1 4.7,-9.8 2.3,-1.7 4.7,-2.3 4.7,-3.2 v -2.7 h 5.9 v 4.6 c 0,1 -0.3,1.9 -0.9,2.6 -0.5,0.7 -1.3,1.1 -2.1,1.1 -3.5,0 -6.4,2.8 -6.4,6.3 0,3.5 2.8,6.4 6.4,6.4 3.5,0 6.3,-2.8 6.3,-6.4 v -0.3 c 0,-2.3 0.8,-3 2.1,-3 1.1,0 4.7,3.7 1.3,10 z"
   id="path666" />
		<g
   id="g670">
			<path
   class="st3"
   d="m -735.6,-224.4 -1.8,9.1 h 3.8 l 2.1,-10.6 c -1.2,0.7 -2.6,1.3 -4.1,1.5 z m 4.7,-7.6 c -0.4,-0.3 -0.9,-0.5 -1.4,-0.5 h -31.5 c -0.5,0 -1.1,0.2 -1.4,0.5 -0.4,0.3 -0.5,0.7 -0.5,1 l 1,5 2.1,10.6 8.8,43.5 3.3,16.5 0.5,2.3 c 0.1,0.7 0.9,1.1 1.9,1.1 1,0 1.7,-0.5 1.9,-1.1 l 0.5,-2.3 3.3,-16.5 8.8,-43.5 2.1,-10.6 1,-5 c 0.1,-0.3 0,-0.7 -0.4,-1 z m -6.5,16.7 -8.8,43.5 -1.9,9.2 -1.9,-9.2 -8.8,-43.5 -1.8,-9.1 -1.1,-5.4 h 27.1 l -1.1,5.4 z"
   id="path668" />
		</g>
		<path
   class="st3"
   d="m -726.3,-235.3 c 0,6.1 -5,11.1 -11.1,11.1 h -21.2 c -6.1,0 -11.1,-5 -11.1,-11.1 v 0 c 0,-6.1 5,-11.1 11.1,-11.1 h 21.2 c 6.1,0 11.1,5 11.1,11.1 z"
   id="path672" />
		<polyline
   class="st3"
   points="-761.6,-291.1 -761.6,-235.3 -765.7,-235.3 -765.7,-291.1   "
   id="polyline674" />
		<polyline
   class="st3"
   points="-731.4,-291.1 -731.4,-235.3 -735.5,-235.3 -735.5,-291.1   "
   id="polyline676" />
	</g>
</g>
<path
   class="st11"
   d="m 110.26638,29.313705 c -0.1,0 -0.1,0 -0.2,0 V 191.2137 c 0.1,0 0.1,0 0.2,0 44.7,0 81,-36.2 81,-81 0,-44.799995 -36.3,-80.899995 -81,-80.899995 z"
   id="path681" /><path
   class="st12"
   d="m 29.366385,110.3137 c 0,44.6 36.1,80.8 80.699995,81 V 29.313705 c -44.599995,0.2 -80.699995,36.3 -80.699995,80.999995 z"
   id="path683" /><g
   id="g691"
   transform="translate(5.9663847,6.1137052)">
		<path
   class="st13"
   d="m 104.3,29.4 c -0.1,0 -0.1,0 -0.2,0 v 0.1 -0.1 C 62.9,29.6 29.6,63 29.6,104.1 c 0,41.1 33.3,74.6 74.5,74.7 v -0.1 0.1 c 0.1,0 0.1,0 0.2,0 41.2,0 74.7,-33.4 74.7,-74.7 0,-41.3 -33.4,-74.7 -74.7,-74.7 z"
   id="path685" />
		<path
   class="st14"
   d="m 29.6,104.1 c 0,-41.2 33.3,-74.6 74.5,-74.7 V 18.3 C 91.2,18.2 80.2,10.6 76.2,0 c -9.2,2.5 -18,6.2 -26,10.9 4.7,10.4 2.2,23.6 -6.9,32.8 -9.1,9.1 -22.2,11.6 -32.6,7 -4.7,8 -8.3,16.8 -10.7,26 10.5,4.1 17.9,15.1 17.9,28 0,12.7 -7.3,23.6 -17.7,27.8 2.5,9.2 6.2,17.9 10.9,26 10.3,-4.2 23.1,-1.7 32,7.3 8.9,8.9 11.5,21.6 7.3,31.9 8.1,4.7 16.8,8.3 26.1,10.7 4.3,-10.1 15,-17.2 27.5,-17.3 V 178.8 C 62.9,178.7 29.6,145.3 29.6,104.1 Z"
   id="path687" />
		<path
   class="st15"
   d="m 190.7,104.7 c 0,-12.9 7.5,-23.8 17.9,-28 -2.4,-9.2 -6,-18 -10.7,-26.1 -10.4,4.5 -23.4,2.1 -32.6,-7 -9.2,-9.2 -11.6,-22.4 -6.9,-32.8 -8.1,-4.7 -16.8,-8.4 -26,-10.9 -4,10.7 -15.1,18.3 -28.1,18.3 -0.1,0 -0.1,0 -0.2,0 v 11.1 c 0.1,0 0.1,0 0.2,0 41.2,0 74.7,33.4 74.7,74.7 0,41.3 -33.4,74.7 -74.7,74.7 -0.1,0 -0.1,0 -0.2,0 V 191 c 0.1,0 0.1,0 0.2,0 12.6,0 23.4,7.2 27.7,17.3 9.2,-2.4 18,-6.1 26.1,-10.7 -4.1,-10.2 -1.6,-22.9 7.3,-31.9 9,-9 21.8,-11.5 32,-7.3 4.7,-8.1 8.4,-16.8 10.9,-26 -10.3,-4.1 -17.6,-15 -17.6,-27.7 z"
   id="path689" />
	</g><circle
   class="st16"
   cx="110.26639"
   cy="110.3137"
   r="64.900002"
   id="circle693" /><g
   id="g697"
   transform="translate(5.9663847,6.1137052)">
		<circle
   class="st13"
   cx="104.3"
   cy="104.1"
   r="74.699997"
   id="circle695" />
	</g><g
   id="g703"
   transform="translate(5.9663847,6.1137052)">
		<path
   class="st17"
   d="m 104.3,39.3 c -35.8,0 -64.9,29 -64.9,64.9 0,12.3 3.4,23.8 9.4,33.7 V 77 h 42.5 c 3.6,0 6.6,1.3 9.2,3.8 2.5,2.5 3.8,5.6 3.8,9.2 0,-3.6 1.3,-6.6 3.8,-9.2 2.5,-2.5 5.6,-3.8 9.2,-3.8 h 42.3 v 12.3 h -42.3 c -0.4,0 -0.7,0.2 -0.7,0.7 v 28.6 c 0,0.4 0.2,0.7 0.7,0.7 h 42.5 v 12.3 h -42.5 c -3.6,0 -6.6,-1.3 -9.2,-3.8 -2.5,-2.5 -3.8,-5.6 -3.8,-9.2 0,3.6 -1.3,6.6 -3.8,9.2 -2.5,2.5 -5.6,3.8 -9.2,3.8 H 61.2 v 21 c 11.5,10.2 26.6,16.4 43.1,16.4 35.8,0 64.9,-29 64.9,-64.9 0,-35.9 -29.1,-64.8 -64.9,-64.8 z"
   id="path699" />
		<path
   class="st17"
   d="m 91.3,119.3 c 0.4,0 0.7,-0.2 0.7,-0.7 V 90 c 0,-0.4 -0.2,-0.7 -0.7,-0.7 H 61.9 c -0.4,0 -0.7,0.2 -0.7,0.7 v 28.6 c 0,0.4 0.2,0.7 0.7,0.7 0,0 29.4,0 29.4,0 z"
   id="path701" />
	</g>
</svg>
