<svg xmlns="http://www.w3.org/2000/svg" xmlns:xlink="http://www.w3.org/1999/xlink" viewBox="0 0 672.27 500"><defs><pattern id="a30779a7-b716-4a08-bcbf-31bbd5ef5d22" data-name="Íîâûé îáðàçåö óçîðà 4" width="97" height="97" patternTransform="translate(90.45 85.59) scale(1.06)" patternUnits="userSpaceOnUse" viewBox="0 0 97 97"><rect width="97" height="97" fill="none"/><rect width="97" height="97" fill="#fff"/></pattern><pattern id="bc66870c-e567-49cb-a8e4-ff445e9297cf" data-name="Íîâûé îáðàçåö óçîðà 4" width="97" height="97" patternTransform="translate(126.14 108.1) scale(0.69)" patternUnits="userSpaceOnUse" viewBox="0 0 97 97"><rect width="97" height="97" fill="none"/><rect width="97" height="97" fill="#fff"/></pattern><clipPath id="a554429a-8f2e-49e2-b4ee-3ff58773778a" transform="translate(0.07)"><rect x="330.25" y="271.22" width="36.04" height="36.04" fill="none"/></clipPath></defs><g id="a586c38e-9f84-4988-bb13-a3ce7052d7a5" data-name="Ñëîé 1"><rect width="672.27" height="500" fill="#2db5ea"/><path d="M283,500a270.85,270.85,0,0,1,72.44-135.95,265.27,265.27,0,0,1,84.63-57.93,263.65,263.65,0,0,1,207.21,0,266.76,266.76,0,0,1,24.92,12.3V257.16a315.26,315.26,0,0,0-128.53-27.25c-158.43,0-290,116.74-315.78,270.09Z" transform="translate(0.07)" fill="#51c5e0"/><path d="M357.64,33.2a224,224,0,0,1-66,159.44A225.55,225.55,0,0,1-.07,215.89v64.72a279.23,279.23,0,0,0,132.22,33.08c154.91,0,280.49-125.58,280.49-280.49a282,282,0,0,0-2-33.2H355.23A230,230,0,0,1,357.64,33.2Z" transform="translate(0.07)" fill="#51c5e0"/></g><g id="f9617e3b-a334-49b2-9540-c4b12d355ce0" data-name="Ñëîé 2"><ellipse cx="254.98" cy="441.26" rx="176.51" ry="14.5" fill="#26a1c6"/><polygon points="309.11 432.13 195.74 432.13 202.25 383.92 302.6 383.92 309.11 432.13" fill="#abc8cc"/><rect x="38.67" y="72.47" width="426.4" height="314.05" rx="9.18" fill="#0d3f72"/><path d="M38.6,342.22V379a7.56,7.56,0,0,0,7.56,7.56H457.44A7.55,7.55,0,0,0,465,379V342.22Z" transform="translate(0.07)" fill="#fff"/><rect x="52.39" y="86.8" width="397.45" height="241.08" fill="#0095e0"/><path d="M262.13,367.63a9.78,9.78,0,1,1-9.77-9.77A9.76,9.76,0,0,1,262.13,367.63Z" transform="translate(0.07)" fill="#dce0e2"/><path d="M319.47,441.26H181.34v-1.37A11.67,11.67,0,0,1,193,428.22H307.8a11.67,11.67,0,0,1,11.67,11.67Z" transform="translate(0.07)" fill="#fff"/><rect x="85.92" y="152.51" width="102.81" height="102.81" rx="11.66" fill="#abc8cc"/><rect x="125.14" y="120.71" width="102.81" height="102.81" rx="11.66" fill="#b8ed35"/><path d="M305.53,256.4l-1-.15a10.74,10.74,0,0,1-1.13-.22l-1-.24.49-2.06,1,.24a7.27,7.27,0,0,0,.93.18l1.05.16Zm81.4,0h-3.22v-2.12h3.17Zm-7.43,0h-3.17v-2.12h3.17Zm-7.38,0h-3.18v-2.12h3.18Zm-7.38,0h-3.18v-2.12h3.18Zm-7.38,0h-3.18v-2.12h3.18Zm-7.39,0H346.8v-2.12H350Zm-7.38,0h-3.17v-2.12h3.17Zm-7.38,0H332v-2.12h3.17Zm-7.38,0h-3.18v-2.12h3.18Zm-7.38,0h-3.18v-2.12h3.18Zm-7.38,0h-3.18v-2.12h3.18Zm78.46-1.3-1.1-1.81.9-.55a8.37,8.37,0,0,0,.79-.53l.86-.63,1.26,1.7-.85.63c-.31.23-.63.44-1,.64Zm-93.38-1.62-.76-.74c-.27-.27-.53-.55-.78-.85l-.68-.81,1.62-1.36.68.81c.21.24.42.48.65.7l.76.74Zm99-4-2-.81.4-1q.18-.44.33-.9l.31-1,2,.62-.32,1a10.72,10.72,0,0,1-.39,1.08Zm-103.25-2.77-.16-1a11,11,0,0,1-.13-1.14l-.07-1.06,2.11-.14.07,1.06c0,.32.06.63.11.95l.17,1Zm104.61-4.82h-2.12v-3.17h2.12ZM295.73,239.2h-2.12V236h2.12Zm102.81-4.67h-2.12v-3.18h2.12Zm-102.81-2.71h-2.12v-3.18h2.12Zm102.81-4.67h-2.12V224h2.12Zm-102.81-2.71h-2.12v-3.18h2.12Zm102.81-4.68h-2.12v-3.17h2.12Zm-102.81-2.7h-2.12v-3.18h2.12Zm102.81-4.68h-2.12v-3.17h2.12Zm-102.81-2.71h-2.12V206.5h2.12ZM398.54,205h-2.12v-3.17h2.12Zm-102.81-2.71h-2.12v-3.17h2.12Zm102.81-4.67h-2.12v-3.18h2.12Zm-102.81-2.71h-2.12v-3.17h2.12Zm102.81-4.67h-2.12v-3.18h2.12Zm-102.81-2.71h-2.12v-3.17h2.12Zm102.81-4.67h-2.12v-3.18h2.12Zm-102.81-2.71h-2.12V177h2.12Zm102.81-4.68h-2.12V172.3h2.12Zm-102.81-2.7h-2.12v-3.18h2.12Zm102.81-4.68h-2.12v-3.17h2.12Zm-102.81-2.7h-2.12v-1.22c0-.33,0-.66,0-1l.09-1.06,2.11.17-.08,1c0,.27,0,.54,0,.82ZM396,161.15l-.4-1c-.12-.29-.26-.58-.4-.86l-.49-.94,1.88-1,.49.94c.17.34.34.69.48,1.05l.4,1Zm-99-2.27-1.73-1.24.62-.86c.22-.31.46-.61.71-.9l.69-.8,1.61,1.38-.69.8c-.21.24-.41.5-.6.76Zm95.19-3.19-.9-.56c-.27-.16-.55-.32-.84-.46l-.95-.47.94-1.9,1,.47c.35.17.68.36,1,.56l.9.55ZM302,154.43l-.66-2,1-.33a10.75,10.75,0,0,1,1.11-.31l1-.24.48,2.06-1,.24c-.31.07-.62.16-.92.26Zm83.92-.86h-3.17v-2.12h3.17Zm-7.38,0h-3.17v-2.12h3.17Zm-7.38,0H368v-2.12h3.17Zm-7.38,0H360.6v-2.12h3.18Zm-7.38,0h-3.18v-2.12h3.18Zm-7.38,0h-3.18v-2.12H349Zm-7.39,0h-3.17v-2.12h3.17Zm-7.38,0h-3.17v-2.12h3.17Zm-7.38,0H323.7v-2.12h3.17Zm-7.38,0h-3.18v-2.12h3.18Zm-7.38,0h-3.18v-2.12h3.18Z" transform="translate(0.07)" fill="url(#a30779a7-b716-4a08-bcbf-31bbd5ef5d22)"/><polygon points="245.18 216.39 245.18 216.39 201.86 198.22 220.03 241.54 220.03 241.54 220.03 241.54 228.41 233.16 244.39 249.13 252.77 240.75 236.79 224.78 245.18 216.39 245.18 216.39" fill="#fff"/><path d="M317.66,122.75l-.77-.72-.77-.71-.78-.71,1.43-1.57.78.71.79.73.77.73Zm-75-.54-1.45-1.54.77-.73.8-.74.79-.7,1.42,1.57-.79.71-.76.7ZM312.14,118l-.86-.62-.85-.61-.87-.61,1.22-1.73.87.6.88.63.85.63Zm-63.9-.49L247,115.78l.87-.61.88-.61.88-.6,1.19,1.76-.88.59-.86.59ZM306.06,114l-.93-.51-.91-.49-.94-.5,1-1.87.94.49,1,.51.92.51Zm-51.68-.38-1-1.88.94-.49,1-.5,1-.47.95,1.89-.95.48-.92.47Zm45.14-2.82-1-.39-1-.36-1-.36.73-2,1,.37,1,.38,1,.38ZM261,110.51l-.73-2,1-.37,1-.36,1-.35.7,2-1,.34-1,.35Zm31.66-2-1-.25-1-.22-1-.22.44-2.07,1,.22,1.06.23,1,.24Zm-24.73-.17-.45-2.07,1-.22,1.06-.22,1-.21.41,2.08-1,.21q-.51.09-1,.21Zm17.58-1.12-1.05-.09-1-.08-1.06-.07.14-2.12,1.06.07c.36,0,.72,0,1.08.09l1.06.09Zm-10.41-.07-.15-2.11L276,105l1.08-.07,1.06-.06.12,2.12-1.06.06-1,.06Z" transform="translate(0.07)" fill="url(#a30779a7-b716-4a08-bcbf-31bbd5ef5d22)"/><path d="M323.61,128.13h-2.12V125h2.12Zm-6.36,0h-3.18V126h3.18Zm-7.42,0h-3.18V126h3.18Zm13.78-7.42h-2.12v-3.18h2.12Zm0-7.42h-2.12v-3.18h2.12Z" transform="translate(0.07)" fill="url(#bc66870c-e567-49cb-a8e4-ff445e9297cf)"/><rect x="124.99" y="271.22" width="36.04" height="36.04" fill="#abc8cc"/><polygon points="151.37 274.66 146.44 274.66 146.44 280.03 151.37 280.03 151.37 284.95 156.74 284.95 156.74 280.03 156.74 274.66 151.37 274.66" fill="#0095e0"/><polygon points="134.65 302.97 139.58 302.97 139.58 297.6 134.65 297.6 134.65 292.68 129.28 292.68 129.28 297.6 129.28 302.97 134.65 302.97" fill="#0095e0"/><rect x="176.47" y="271.22" width="36.04" height="36.04" fill="#abc8cc"/><rect x="277.93" y="271.22" width="36.04" height="36.04" fill="#b8ed35"/><rect x="227.96" y="271.22" width="36.04" height="36.04" fill="#abc8cc"/><g clip-path="url(#a554429a-8f2e-49e2-b4ee-3ff58773778a)"><rect x="287.31" y="253.2" width="102.81" height="102.81" fill="none"/><rect x="287.31" y="253.2" width="102.81" height="102.81" fill="#e96330"/></g><polygon points="202.85 274.66 197.92 274.66 197.92 280.03 202.85 280.03 202.85 284.95 208.22 284.95 208.22 280.03 208.22 274.66 202.85 274.66" fill="#0095e0"/><polygon points="186.13 302.97 191.06 302.97 191.06 297.6 186.13 297.6 186.13 292.68 180.76 292.68 180.76 297.6 180.76 302.97 186.13 302.97" fill="#0095e0"/><polygon points="208.65 297.17 208.65 292.25 203.28 292.25 203.28 297.17 198.35 297.17 198.35 302.54 203.28 302.54 208.65 302.54 208.65 297.17" fill="#0095e0"/><polygon points="301.45 294.35 311.77 284.02 304.61 276.86 294.28 287.18 287.71 280.61 280.55 287.78 287.12 294.35 294.28 301.51 301.45 294.35" fill="#fff"/><polygon points="180.33 280.46 180.33 285.38 185.71 285.38 185.71 280.46 190.63 280.46 190.63 275.08 185.71 275.08 180.33 275.08 180.33 280.46" fill="#0095e0"/><polygon points="249.84 297.62 249.84 302.54 255.21 302.54 255.21 297.62 260.13 297.62 260.13 292.25 255.21 292.25 249.84 292.25 249.84 297.62" fill="#0095e0"/><polygon points="242.11 280.01 242.11 275.08 236.74 275.08 236.74 280.01 231.82 280.01 231.82 285.38 236.74 285.38 242.11 285.38 242.11 280.01" fill="#0095e0"/><rect x="179.64" y="234.13" width="25.48" height="3.18" transform="translate(-110.26 205.07) rotate(-45)" fill="#fff"/><rect x="192.4" y="236.78" width="17.99" height="3.18" transform="translate(-109.5 212.21) rotate(-45)" fill="#fff"/><rect x="334.06" y="284.53" width="29.24" height="9.23" transform="translate(396.01 739.65) rotate(-135.66)" fill="#fff"/><rect x="334.06" y="284.53" width="29.24" height="9.23" transform="translate(-101.75 336.4) rotate(-45.66)" fill="#fff"/></g></svg>